<svg width="12" height="12" viewBox="0 0 12 12" fill="none" xmlns="http://www.w3.org/2000/svg">
<path d="M3.97247 1.90768C3.81544 1.97565 3.72638 2.15377 3.76154 2.33658C3.7756 2.41627 3.9795 2.62955 5.56154 4.21158L7.34747 5.99987L5.56154 7.7858C3.62325 9.72877 3.71935 9.61627 3.76154 9.83658C3.78263 9.95143 3.92325 10.0921 4.0381 10.1131C4.25841 10.1553 4.13185 10.2678 6.26232 8.13737C8.00372 6.39362 8.22404 6.16627 8.2381 6.08893C8.28029 5.86627 8.39044 5.99283 6.28575 3.88112C5.15841 2.75143 4.317 1.92643 4.27247 1.90768C4.17872 1.86783 4.06388 1.86783 3.97247 1.90768Z" fill="white"/>
</svg>
