<svg width="563" height="682" viewBox="0 0 563 682" fill="none" xmlns="http://www.w3.org/2000/svg">
<path d="M269.333 1.86663C266 2.79996 261.2 4.66663 258.667 5.86663C252.667 8.9333 12.1334 249.467 7.46674 257.067C5.46674 260.133 2.9334 266.4 1.86674 270.933C-5.73326 300.133 19.8667 329.333 50.1334 326.267C66.8001 324.533 65.4667 325.733 154.267 236.933L236 155.467L236.267 402L236.667 648.667L240.133 656C244.533 665.333 253.333 674.133 262.667 678.533C268.667 681.333 272 682 281.333 682C291.067 682 293.733 681.467 300.267 678.267C309.867 673.6 318.133 665.333 322.533 656L326 648.667L326.4 402L326.667 155.467L408.4 236.933C480 308.533 490.933 318.933 497.6 322C520.667 332.533 546.667 323.2 557.467 300.8C564.4 286.4 563.6 270.533 555.2 257.067C550.533 249.333 310 8.9333 304 5.99996C292.8 0.266631 280.4 -1.20004 269.333 1.86663Z" fill="white"/>
</svg>
