<svg width="330" height="186" viewBox="0 0 330 186" fill="none" xmlns="http://www.w3.org/2000/svg">
<rect width="330" height="186" fill="white"/>
<g clip-path="url(#clip0_1_3)">
<mask id="mask0_1_3" style="mask-type:luminance" maskUnits="userSpaceOnUse" x="95" y="23" width="140" height="140">
<path d="M235 23H95V163H235V23Z" fill="white"/>
</mask>
<g mask="url(#mask0_1_3)">
<path d="M235 23H95V163H235V23Z" fill="white"/>
<path d="M200.85 57.0278H129.634C127.185 57.0278 125.201 59.0126 125.201 61.461V123.858C125.201 126.864 127.638 129.303 130.646 129.303H199.837C202.845 129.303 205.283 126.864 205.283 123.858V78.9189V61.461C205.283 59.0126 203.299 57.0278 200.85 57.0278Z" fill="black"/>
<path d="M152.018 113.815C151.047 113.815 150.136 113.332 149.583 112.521C149.086 111.792 148.945 110.882 149.19 110.041L150.225 102.047C150.345 101.118 150.776 100.241 151.439 99.5789L200.043 50.9745L211.911 62.8425L163.307 111.447C162.644 112.109 161.767 112.541 160.838 112.661L152.847 113.696C152.577 113.775 152.299 113.815 152.018 113.815Z" fill="black"/>
<path d="M200.043 53.5089L209.377 62.8425L162.04 110.179C161.654 110.566 161.15 110.813 160.608 110.883L152.447 111.941C152.302 111.998 152.158 112.023 152.018 112.023C151.251 112.023 150.634 111.235 150.945 110.439L152.002 102.277C152.073 101.735 152.32 101.232 152.706 100.845L200.043 53.5089ZM200.043 48.4402L197.509 50.9745L150.172 98.3115C149.231 99.2523 148.619 100.498 148.448 101.817L147.429 109.689C147.093 111 147.331 112.4 148.103 113.531C148.99 114.831 150.454 115.607 152.018 115.607C152.418 115.607 152.815 115.557 153.201 115.457L161.068 114.438C162.388 114.267 163.634 113.655 164.574 112.713L211.911 65.3768L214.445 62.8425L211.911 60.3082L202.577 50.9745L200.043 48.4402Z" fill="white"/>
<path d="M200.31 50.7084L204.043 46.9748C205.254 45.7634 206.864 45.0972 208.577 45.0972C210.289 45.0972 211.899 45.7634 213.11 46.9743L215.91 49.7748C217.121 50.9857 217.789 52.5958 217.789 54.3085C217.789 56.0212 217.121 57.6314 215.91 58.8423L212.177 62.5764L200.31 50.7084Z" fill="black"/>
<path d="M208.577 46.8888C209.76 46.8888 210.942 47.3399 211.844 48.2422L214.644 51.0422C216.448 52.8463 216.448 55.7713 214.644 57.5754L212.177 60.0425L202.843 50.7089L205.31 48.2422C206.212 47.3399 207.395 46.8888 208.577 46.8888ZM208.577 43.3048C206.385 43.3048 204.325 44.1582 202.776 45.7078L200.309 48.1745L197.775 50.7089L200.309 53.2432L209.643 62.5768L212.177 65.1107L214.711 62.5768L217.178 60.1097C220.377 56.9114 220.377 51.7066 217.178 48.5078L214.378 45.7078C212.828 44.1582 210.769 43.3048 208.577 43.3048Z" fill="white"/>
</g>
</g>
<defs>
<clipPath id="clip0_1_3">
<rect width="140" height="140" fill="white" transform="translate(95 23)"/>
</clipPath>
</defs>
</svg>
