<svg width="611" height="583" viewBox="0 0 611 583" fill="none" xmlns="http://www.w3.org/2000/svg">
<path d="M152 2.93324C149.467 4.66657 146 8.66657 144.4 11.9999C141.6 17.3332 141.333 19.8665 141.333 36.9332V55.9999H115.067C100.533 55.9999 84.5333 56.6665 79.6 57.3332C42.2667 62.7999 11.8667 89.8665 2.66667 126.267C0 136.267 0 141.467 0 319.467C0 494.933 0.133333 502.667 2.53333 512.133C6 525.467 9.6 533.6 16.6667 543.467C25.6 555.867 37.6 566 51.3333 572.667C72.9333 583.333 56.6667 582.667 305.333 582.667C554 582.667 537.733 583.333 559.333 572.667C584.533 560.4 602.133 538.133 608.667 510.133C610.267 503.333 610.667 473.2 610.667 319.333C610.667 142.533 610.667 136.267 608.133 126.4C601.333 99.8665 583.333 77.5999 559.333 65.9999C542.8 57.9999 537.333 57.0665 501.733 56.3999L469.6 55.7332L469.067 35.4666C468.667 12.7999 467.333 8.7999 458.533 2.93324C452.667 -1.2001 441.333 -0.800096 435.067 3.73324C427.867 8.7999 426.667 13.4666 426.667 35.8666V55.9999H305.333H184V35.8666C184 13.4666 182.8 8.7999 175.6 3.73324C169.333 -0.800096 158 -1.06676 152 2.93324ZM141.333 111.067C141.333 125.6 144.4 133.333 151.867 138.267C160.533 144 174.267 141.333 180.4 132.8C182.933 129.333 183.467 126.4 184 114L184.667 99.3332H305.333H426L426.667 114C427.2 126.4 427.733 129.333 430.267 132.8C436.4 141.333 450.267 144 458.667 138.267C466.4 133.2 468.533 127.867 469.2 112.267L469.6 98.3999L499.2 98.9332C525.733 99.4665 529.467 99.7332 536.267 102.4C545.733 106.133 553.467 112.267 559.467 120.667C567.467 132.133 568 135.6 568 183.6V226.667H305.333H42.5333L42.9333 180.933L43.3333 135.333L47.0667 127.733C53.8667 113.733 67.8667 103.067 82.9333 100.133C86.1333 99.4665 100.533 98.9332 115.067 98.7999L141.333 98.6665V111.067ZM568 383.733C568 510.133 568.267 505.467 559.6 518.267C553.6 526.933 543.733 534.133 533.467 537.333C525.2 540 520.667 540 305.333 540C90 540 85.4667 540 77.2 537.333C66.9333 534.133 57.0667 526.933 51.0667 518.267C42.4 505.467 42.6667 510.133 42.6667 383.733V269.333H305.333H568V383.733Z" fill="url(#paint0_linear_197_14)"/>
<defs>
<linearGradient id="paint0_linear_197_14" x1="305.333" y1="582.675" x2="305.333" y2="0.067688" gradientUnits="userSpaceOnUse">
<stop stop-color="white"/>
<stop offset="1" stop-color="#D3D3D3"/>
</linearGradient>
</defs>
</svg>
