<svg width="683" height="683" viewBox="0 0 683 683" fill="none" xmlns="http://www.w3.org/2000/svg">
<path d="M444 44C348.267 57.3333 277.067 131.467 268.134 227.2C267.334 234.4 266.667 240.533 266.267 240.8C266 241.067 259.867 240 252.534 238.4C234.667 234.533 194.934 234.133 176.667 237.733C149.2 243.2 119.467 255.867 97.2003 271.333C82.8003 281.333 57.3337 306.8 47.3337 321.2C31.467 343.867 19.2003 373.467 13.7337 402C10.4003 419.2 10.5337 454.8 13.867 472.667C18.9337 499.867 30.0003 527.6 44.667 549.333C48.667 555.467 52.0003 560.533 52.0003 560.8C52.0003 560.933 42.667 575.733 31.3337 593.733C18.0003 614.667 10.667 627.6 10.667 629.867C10.667 634.267 16.1337 640 20.1337 640C21.867 640 45.2003 635.067 72.267 629.2L121.334 618.4L134.4 623.733C163.467 635.733 181.867 639.333 214.667 639.2C242.667 639.2 255.867 636.933 280.134 628.533C310.134 618.133 332 604.133 356.134 580.133C392.134 544.133 410.934 503.333 415.467 451.6C416 446 416.8 441.333 417.2 441.333C417.6 441.333 424.267 442.667 432 444.133C450.134 447.867 485.2 448.267 503.334 444.933C519.467 442 536.8 436.933 550.4 431.067L561.734 426.133L611.2 437.067C638.4 443.2 661.734 448 663.067 448C666.8 448 672 442 672 437.6C672 434.933 665.734 424 651.867 401.867C640.667 384.4 631.6 369.333 631.6 368.667C631.6 367.867 635.067 362.133 639.2 355.6C652.934 334.533 662.534 311.333 668.267 284.8C672.534 265.067 672.534 225.467 668.134 205.333C650.667 124.133 590.267 63.7333 509.467 46.5333C494.8 43.4666 458.267 42 444 44ZM503.734 67.3333C567.067 79.7333 619.2 125.067 640.4 186.133C647.867 207.867 649.867 220.4 649.867 245.333C649.867 270.533 647.867 283.067 640.534 304.267C633.467 324.4 624.934 340.267 611.6 357.733C608.667 361.6 606.667 365.6 606.667 367.733C606.8 370 612.667 380.667 622.534 396C631.2 409.6 638.267 420.8 638.134 420.933C638 421.067 620.134 417.2 598.4 412.4L558.667 403.733L545.067 409.733C518.934 421.333 497.6 425.733 469.334 425.733C450.534 425.733 442.267 424.8 423.734 420.4L414.934 418.267L414 410.133C412.534 397.2 406.134 373.6 400.267 359.6C381.334 314.4 343.734 274.933 299.734 254.4L287.6 248.667L288.4 234.533C292.534 162.267 340.134 98.9333 408.8 74.2666C417.734 71.0666 439.2 66.1333 449.334 64.8C458.8 63.6 493.067 65.2 503.734 67.3333ZM247.734 259.333C310.934 271.6 363.2 317.067 384.4 378.133C391.867 399.867 393.867 412.4 393.867 437.333C393.867 462.267 391.867 474.8 384.4 496.667C369.067 541.2 336.267 578.4 293.867 599.733C282.4 605.467 260.667 612.8 246.934 615.6C232.667 618.4 196.934 618.8 183.734 616.267C168.8 613.467 152.134 608.267 137.6 601.733L123.867 595.6L85.6003 604C64.5337 608.667 46.4003 612.667 45.3337 613.067C43.867 613.733 44.0003 612.933 46.0003 610C60.4003 588 76.0003 561.733 76.0003 559.333C76.0003 557.6 73.7337 553.333 71.067 549.733C47.2003 518.4 34.5337 484.4 32.5337 446C27.6003 352.4 96.267 270.133 190 257.467C202.8 255.733 234.4 256.667 247.734 259.333Z" fill="black"/>
<path d="M384 181.333V192H469.334H554.667V181.333V170.667H469.334H384V181.333Z" fill="black"/>
<path d="M384 245.333V256H469.334H554.667V245.333V234.667H469.334H384V245.333Z" fill="black"/>
<path d="M426.667 309.333V320H490.667H554.667V309.333V298.667H490.667H426.667V309.333Z" fill="black"/>
<path d="M148.267 375.333C144.8 377.867 144.934 377.2 126.667 446.933L112.534 501.333H123.467H134.534L135.867 496.267C136.534 493.6 139.067 484 141.467 474.933L145.734 458.533L165.067 458.933L184.534 459.333L189.867 480L195.334 500.667L206.4 501.067C212.4 501.333 217.334 501.2 217.334 500.933C217.334 499.333 186.4 382.8 185.2 379.867C183.2 374.667 178.667 373.333 164.267 373.333C154.667 373.333 150.534 373.867 148.267 375.333ZM172.667 414.267C175.467 425.2 178 434.8 178.4 435.6C178.8 436.933 175.734 437.333 165.467 437.333C156.4 437.333 152 436.8 152 435.867C152 434.4 156.267 418 160.8 401.6C162.267 396.533 163.334 394.667 165.2 394.667C167.2 394.667 168.4 398.133 172.667 414.267Z" fill="black"/>
<path d="M240 384V394.667H253.334H266.667V437.333V480H253.334H240V490.667V501.333H277.334H314.667V490.667V480H301.334H288V437.333V394.667H301.334H314.667V384V373.333H277.334H240V384Z" fill="black"/>
</svg>
