<svg width="21" height="21" viewBox="0 0 21 21" fill="none" xmlns="http://www.w3.org/2000/svg">
<path d="M0.841011 0.432675C0.562465 0.636942 0.367483 1.0919 0.432477 1.44473C0.469616 1.65828 1.4631 2.69819 4.74066 5.99432L9.00242 10.2654L4.81494 14.4436C2.51229 16.7462 0.57175 18.7517 0.497471 18.9096C0.163215 19.6988 1.02671 20.5252 1.78807 20.1445C1.89949 20.0888 3.88645 18.1575 6.1891 15.8549L10.3952 11.6581L14.6383 15.9013C17.5445 18.7982 18.9744 20.163 19.1508 20.2095C19.5593 20.3023 19.9771 20.1352 20.2186 19.7824C20.6642 19.1139 20.7756 19.2531 16.0589 14.5364L11.7879 10.2654L15.9754 6.08717C18.278 3.78452 20.2186 1.78827 20.3021 1.63971C20.6271 1.02691 20.1164 0.284117 19.3736 0.284117C18.9929 0.284117 18.9744 0.293402 14.694 4.57373L10.3952 8.87263L6.09625 4.57373C1.86235 0.349111 1.79735 0.284117 1.42596 0.284117C1.22169 0.284117 0.961715 0.349111 0.841011 0.432675Z" fill="black"/>
</svg>
