<svg width="683" height="503" viewBox="0 0 683 503" fill="none" xmlns="http://www.w3.org/2000/svg">
<path d="M62.6665 2.79998C33.1998 9.06665 8.26647 34.2666 1.9998 64C-0.933529 78 -0.933529 424.667 1.9998 438.667C8.26647 468.667 33.3331 493.733 63.3331 500C77.3331 502.933 605.333 502.933 619.333 500C649.333 493.733 674.4 468.667 680.666 438.667C683.6 424.667 683.6 78 680.666 64C674.4 34 649.333 8.93331 619.333 2.66665C605.733 -0.133352 75.9998 -0.133352 62.6665 2.79998ZM594.533 56.4C592.8 57.8666 535.066 100.667 466.4 151.867L341.333 244.8L216.4 151.867C147.6 100.667 89.8665 57.8666 88.1331 56.4C85.0665 54.1333 92.1331 54 341.333 54C590.533 54 597.6 54.1333 594.533 56.4ZM198 204.667L341.333 311.2L484.666 204.667C563.466 146 628.266 98 628.666 98C629.066 98 629.2 172.933 629.066 264.4L628.666 430.933L625.066 436.133C623.066 438.933 619.2 442.8 616.4 444.667L611.466 448H341.333H71.1998L66.2665 444.667C63.4665 442.8 59.5998 438.933 57.5998 436.133L53.9998 430.933L53.5998 264.4C53.4665 172.933 53.5998 98 53.9998 98C54.3998 98 119.2 146 198 204.667Z" fill="url(#paint0_linear_197_11)"/>
<defs>
<linearGradient id="paint0_linear_197_11" x1="341.333" y1="502.2" x2="341.333" y2="0.583008" gradientUnits="userSpaceOnUse">
<stop stop-color="white"/>
<stop offset="1" stop-color="#D3D3D3"/>
</linearGradient>
</defs>
</svg>
