<svg width="330" height="186" viewBox="0 0 330 186" fill="none" xmlns="http://www.w3.org/2000/svg">
<g clip-path="url(#clip0_244_8)">
<mask id="mask0_244_8" style="mask-type:luminance" maskUnits="userSpaceOnUse" x="50" y="68" width="251" height="50">
<path d="M300.7 68H50V117.153H300.7V68Z" fill="white"/>
</mask>
<g mask="url(#mask0_244_8)">
<path d="M90.25 85.384C90.25 85.7742 90.1782 86.1764 90.0343 86.5909C89.9147 87.0054 89.7589 87.3833 89.5671 87.7247C89.2557 87.7735 88.9682 87.8832 88.7046 88.0538C88.4652 88.2245 88.2734 88.3342 88.1296 88.383C87.8182 88.4318 87.4468 88.4561 87.0157 88.4561C86.6084 88.4318 86.237 88.4318 85.9016 88.4561C85.2546 88.5049 84.6079 88.578 83.9609 88.6756C83.338 88.7731 82.7152 88.895 82.0921 89.0413C82.0443 89.0413 81.9964 89.0535 81.9484 89.0779C81.9005 89.0779 81.8766 89.1022 81.8766 89.151C81.8766 89.1998 81.8886 89.2485 81.9125 89.2973C81.9364 89.3461 81.9484 89.3948 81.9484 89.4436C81.9484 89.5167 81.8766 89.5533 81.7329 89.5533C81.4693 89.5533 81.2897 89.468 81.1937 89.2973C80.4272 89.4923 79.6603 89.6996 78.8937 89.919C78.1272 90.1141 77.3603 90.3091 76.5937 90.5042C76.2103 90.5773 75.8272 90.6505 75.4437 90.7236C75.0843 90.7968 74.713 90.8943 74.3296 91.0162C74.138 91.065 73.9464 91.1503 73.7546 91.2722L73.1796 91.638C73.0598 91.6134 72.9521 91.6013 72.8562 91.6013C72.7604 91.5769 72.6646 91.5648 72.5687 91.5648C72.1615 91.5648 71.7302 91.6502 71.275 91.8208C70.8198 91.9671 70.4245 92.1743 70.0891 92.4425H69.8375C69.5979 92.4425 69.4302 92.406 69.3344 92.3327C69.1187 92.3084 68.987 92.3816 68.9391 92.5523C68.8911 92.6986 68.8073 92.8327 68.6875 92.9546C67.8729 93.0277 67.0703 93.1739 66.2797 93.3935C65.4891 93.6128 64.7104 93.8567 63.9437 94.1249C63.1771 94.3686 62.3984 94.6247 61.6078 94.8929C60.8411 95.1368 60.0625 95.3318 59.2719 95.4781C59.176 95.9656 59.1281 96.5264 59.1281 97.1603C59.1281 97.6481 59.1641 98.2086 59.2359 98.8427C59.3318 99.4766 59.5234 100.013 59.8109 100.452V100.525C59.8109 100.647 59.763 100.732 59.6672 100.781C59.5714 100.83 59.5234 100.915 59.5234 101.037C59.5234 101.671 59.5833 102.268 59.7031 102.829C59.8469 103.39 59.9906 103.938 60.1344 104.475C60.2781 105.011 60.4099 105.548 60.5297 106.084C60.6734 106.62 60.7453 107.169 60.7453 107.73C60.7453 107.876 60.7333 108.01 60.7094 108.132C60.7094 108.278 60.6974 108.425 60.6734 108.571C60.7453 108.79 60.8651 108.973 61.0328 109.119C61.2005 109.266 61.3443 109.436 61.4641 109.632C61.488 109.753 61.5 109.863 61.5 109.961V110.326C61.5 110.741 61.4521 111.107 61.3562 111.424C61.2604 111.741 61.1406 112.033 60.9969 112.301C60.8531 112.594 60.6974 112.874 60.5297 113.143C60.362 113.435 60.2062 113.752 60.0625 114.093C59.8229 114.142 59.6312 114.167 59.4875 114.167C59.1281 114.167 58.8286 114.069 58.5891 113.874C58.3734 113.679 58.1818 113.435 58.0141 113.143C57.8464 112.874 57.6786 112.594 57.5109 112.301C57.3672 112.009 57.1875 111.765 56.9719 111.57C56.9958 111.448 57.0078 111.338 57.0078 111.241C57.0318 111.143 57.0437 111.033 57.0437 110.911C57.0437 110.424 56.9599 109.949 56.7922 109.485C56.6484 109.022 56.4807 108.583 56.2891 108.169C56.2651 107.34 56.1812 106.523 56.0375 105.718C55.8937 104.914 55.6901 104.121 55.4266 103.341C55.4745 103.049 55.5104 102.768 55.5344 102.5C55.5583 102.207 55.5703 101.927 55.5703 101.659C55.5703 100.952 55.5344 100.245 55.4625 99.5376C55.3906 98.8305 55.3786 98.1234 55.4266 97.4163C55.3547 97.2944 55.2828 97.197 55.2109 97.1238C55.1391 97.0262 55.0792 96.9166 55.0312 96.7947H54.8875C54.5281 96.7947 54.1807 96.8312 53.8453 96.9044C53.5099 96.9531 53.1745 96.9775 52.8391 96.9775C52.7193 96.9775 52.6115 96.9775 52.5156 96.9775C52.4198 96.9531 50.9464 97.0262 50.8266 97.0018C50.563 96.7336 50.3594 96.4288 50.2156 96.0876C50.0719 95.7463 50 95.3926 50 95.027C50 94.4905 50.1437 94.003 50.4312 93.5641C51.0302 93.4178 52.9828 93.1496 53.5578 92.9546C54.1568 92.7351 54.7318 92.479 55.2828 92.1864C55.3547 91.8208 55.3906 91.455 55.3906 91.0893C55.4146 90.7236 55.5464 90.3823 55.7859 90.0653C55.7141 89.8703 55.5943 89.6996 55.4266 89.5533C55.2828 89.3826 55.2109 89.1876 55.2109 88.9681C55.2109 88.8462 55.2349 88.6878 55.2828 88.4927C55.5224 88.2245 55.6901 87.8832 55.7859 87.4687C55.8818 87.0542 55.9656 86.6153 56.0375 86.1521C56.1094 85.6888 56.1812 85.2256 56.2531 84.7623C56.349 84.2991 56.5047 83.8846 56.7203 83.5189C56.6724 83.3238 56.6365 83.1166 56.6125 82.8971C56.5885 82.6533 56.5766 82.4339 56.5766 82.2388C56.5766 81.9462 56.5885 81.6537 56.6125 81.3611C56.6604 81.0441 56.7323 80.7516 56.8281 80.4834C56.5646 80.1664 56.349 79.8007 56.1812 79.3862C56.0135 78.9473 55.9297 78.5206 55.9297 78.1062C55.9297 77.3016 56.313 76.7896 57.0797 76.5701C57.0557 76.4726 57.0318 76.3872 57.0078 76.3141C57.0078 76.241 57.0078 76.1678 57.0078 76.0947C57.0078 75.8752 57.0677 75.668 57.1875 75.473C57.3073 75.2779 57.4031 75.0828 57.475 74.8878C57.3552 74.5708 57.2953 74.3026 57.2953 74.0832C57.2953 73.8881 57.3312 73.7175 57.4031 73.5712C57.475 73.4005 57.5349 73.2177 57.5828 73.0226C57.6547 72.7788 57.7026 72.5594 57.7266 72.3643C57.7745 72.1692 57.8464 71.9986 57.9422 71.8523C58.038 71.706 58.1578 71.5963 58.3016 71.5231C58.4693 71.45 58.7208 71.4134 59.0562 71.4134C59.5833 71.4134 60.0865 71.5841 60.5656 71.9254C61.0687 72.2424 61.4521 72.6081 61.7156 73.0226C61.9792 72.9982 62.2068 72.9494 62.3984 72.8763C62.6141 72.7788 62.8057 72.6935 62.9734 72.6203C63.1651 72.5472 63.3568 72.4862 63.5484 72.4374C63.7641 72.3643 64.0156 72.3399 64.3031 72.3643C64.375 72.1936 64.4948 72.0839 64.6625 72.0352C64.8542 71.962 65.0458 71.9133 65.2375 71.8889C65.4292 71.8401 65.6089 71.7791 65.7766 71.706C65.9443 71.6328 66.0521 71.4988 66.1 71.3037C66.1958 71.3769 66.3036 71.4134 66.4234 71.4134C66.5432 71.4134 66.663 71.4012 66.7828 71.3769C66.9026 71.3281 67.0344 71.3037 67.1781 71.3037C67.3219 71.3037 67.4417 71.3525 67.5375 71.45C68.1604 71.1086 68.8193 70.8648 69.5141 70.7185C70.2328 70.5479 70.9396 70.4504 71.6344 70.426C73.2875 69.4995 75.0245 68.8655 76.8454 68.5242C78.6902 68.1829 80.5348 68.0122 82.3796 68.0122C82.6432 68.0122 82.8948 68.0122 83.1343 68.0122C83.3978 67.9878 83.6495 68 83.8891 68.0488C84.1527 68.0975 84.4402 68.1829 84.7516 68.3048C85.087 68.4267 85.4103 68.573 85.7218 68.7436C86.0573 68.9143 86.3687 69.1094 86.6562 69.3288C86.9437 69.5238 87.1834 69.7067 87.375 69.8774C87.5666 70.3162 87.6625 70.7429 87.6625 71.1574C87.6625 71.3525 87.6505 71.5475 87.6266 71.7426C87.6027 71.9133 87.5907 72.0961 87.5907 72.2911C87.5907 72.5837 87.6505 72.9129 87.7704 73.2786C87.6984 73.2542 87.5785 73.242 87.4109 73.242C87.1954 73.242 87.0157 73.2908 86.8718 73.3883C86.7282 73.4859 86.5964 73.5956 86.4766 73.7175C86.3568 73.8394 86.237 73.9491 86.1171 74.0466C86.0214 74.1442 85.9255 74.1929 85.8296 74.1929C85.638 74.1929 85.4704 74.1563 85.3266 74.0832C85.2068 74.0101 85.075 73.9369 84.9312 73.8638C84.8114 73.7662 84.6796 73.6931 84.5359 73.6443C84.3921 73.5712 84.2245 73.5468 84.0329 73.5712V73.4249C84.0329 73.1567 83.9489 72.986 83.7812 72.9129C83.6136 72.8154 83.4818 72.6813 83.3859 72.5106C83.0266 72.4862 82.6671 72.4374 82.3079 72.3643C81.9723 72.2911 81.625 72.2546 81.2657 72.2546C80.7864 72.2546 80.4152 72.4252 80.1516 72.7666C80.0318 72.7178 79.9239 72.6569 79.8282 72.5837C79.7562 72.5106 79.6484 72.4862 79.5046 72.5106H79.3968C78.1032 72.5106 76.8334 72.6569 75.5875 72.9494C74.3416 73.2177 73.1079 73.559 71.8859 73.9735C70.6641 74.3636 69.4422 74.7903 68.2203 75.2535C66.9984 75.7168 65.7766 76.1191 64.5547 76.4604C64.2672 76.8505 63.9677 77.1431 63.6562 77.3381C63.3448 77.5088 63.0333 77.6551 62.7219 77.777C62.4344 77.8989 62.1469 78.0208 61.8594 78.1427C61.5719 78.2646 61.3203 78.4597 61.1047 78.7279C60.913 78.9961 60.7573 79.374 60.6375 79.8616C60.5417 80.3249 60.5177 80.971 60.5656 81.8C60.4458 81.9462 60.374 82.1047 60.35 82.2754C60.326 82.4461 60.3021 82.6167 60.2781 82.7874C60.2542 82.9337 60.2182 83.08 60.1703 83.2263C60.1224 83.3726 60.0385 83.5067 59.9187 83.6286C59.9667 83.8724 60.0026 84.1162 60.0266 84.36C60.0505 84.6038 60.0625 84.8477 60.0625 85.0915C60.0625 86.1155 59.8948 87.1152 59.5594 88.0904C59.6792 88.2855 59.7391 88.5049 59.7391 88.7487C59.7391 89.0169 59.7031 89.2607 59.6312 89.4801C59.5594 89.6996 59.5234 89.9434 59.5234 90.2116C59.5234 90.4798 59.5714 90.6992 59.6672 90.8699C59.8109 90.8699 59.8948 90.9187 59.9187 91.0162H60.1344C60.5656 91.0162 60.937 90.9065 61.2484 90.687C61.5599 90.4676 61.8953 90.3579 62.2547 90.3579C62.3266 90.3579 62.4104 90.3823 62.5062 90.431C62.6021 90.4798 62.6859 90.5042 62.7578 90.5042C62.9255 90.5042 62.9974 90.4432 62.9734 90.3213C62.9495 90.1994 63.0094 90.1141 63.1531 90.0653L64.4469 89.8459C65.2615 89.6996 66.0281 89.5289 66.7469 89.3339C67.4896 89.1144 68.2203 88.7975 68.9391 88.383C69.1068 88.4561 69.2984 88.4927 69.5141 88.4927C69.7057 88.4927 69.9094 88.4683 70.125 88.4196C70.3406 88.3464 70.5443 88.3098 70.7359 88.3098C70.9036 88.3098 71.0354 88.3342 71.1312 88.383C71.275 88.2855 71.4547 88.2123 71.6703 88.1635C71.8859 88.0904 72.0057 87.9441 72.0297 87.7247H72.1016C72.1974 87.7247 72.2693 87.7491 72.3172 87.7978C72.3651 87.8466 72.437 87.871 72.5328 87.871H72.6766C73.1796 87.6272 73.6348 87.4443 74.0421 87.3224C74.713 87.1517 75.4318 87.0054 76.1984 86.8835C76.9652 86.7372 77.6478 86.4934 78.2468 86.1521C78.9416 86.1521 79.6125 86.0423 80.2593 85.8229C80.9302 85.5791 81.6011 85.4572 82.2718 85.4572C82.5834 85.4572 82.8709 85.506 83.1343 85.6035C83.3739 85.4328 83.6495 85.3109 83.9609 85.2378C84.2964 85.1646 84.5718 85.0305 84.7875 84.8355C84.9312 84.8598 85.075 84.8842 85.2187 84.9086C85.3864 84.9086 85.5541 84.9086 85.7218 84.9086C86.4407 84.9086 87.1234 84.8111 87.7704 84.616C88.441 84.3966 89.1239 84.2381 89.8187 84.1406C89.9864 84.3357 90.0943 84.5429 90.1421 84.7623C90.2141 84.9574 90.25 85.1646 90.25 85.384Z" fill="black"/>
<path d="M110.426 104.183C110.354 104.524 110.199 104.804 109.959 105.024C109.743 105.219 109.48 105.377 109.168 105.499C108.857 105.621 108.534 105.707 108.198 105.755C107.887 105.78 107.599 105.792 107.336 105.792C107.216 105.792 107.096 105.792 106.976 105.792C106.88 105.767 106.773 105.755 106.653 105.755C106.533 105.755 106.473 105.816 106.473 105.938C106.473 106.06 106.413 106.145 106.293 106.194C106.174 106.145 106.054 106.109 105.934 106.084C105.814 106.06 105.695 106.048 105.575 106.048C105.407 106.048 105.239 106.06 105.072 106.084C104.928 106.109 104.784 106.121 104.64 106.121C104.449 106.121 104.305 106.096 104.209 106.048C104.137 105.999 104.065 105.95 103.993 105.901C103.946 105.828 103.886 105.755 103.814 105.682C103.766 105.609 103.682 105.548 103.562 105.499C103.395 105.426 103.251 105.414 103.131 105.463C103.035 105.511 102.879 105.438 102.664 105.243C102.376 104.999 102.125 104.707 101.909 104.366C101.717 104 101.526 103.622 101.334 103.232C101.142 102.842 100.939 102.452 100.723 102.061C100.508 101.671 100.256 101.33 99.9685 101.037H99.681C99.2497 101.037 98.9503 101.22 98.7826 101.586C98.6628 101.513 98.5429 101.427 98.4231 101.33C98.3035 101.208 98.1717 101.11 98.028 101.037C97.4769 101.208 96.9019 101.354 96.303 101.476C95.704 101.598 95.1049 101.659 94.506 101.659H94.003C93.8592 101.659 93.7035 101.635 93.5356 101.586C93.2962 101.683 93.0804 101.805 92.8888 101.952C92.6973 102.074 92.4815 102.134 92.2419 102.134C92.0981 102.134 91.9304 102.086 91.7388 101.988C91.5951 101.988 91.5231 102.049 91.5231 102.171C91.5473 102.293 91.4753 102.354 91.3076 102.354H90.9842C90.6486 102.354 90.3133 102.366 89.978 102.391C89.6665 102.415 89.3429 102.427 89.0076 102.427C88.5524 102.427 88.0853 102.366 87.606 102.244C87.4861 102.318 87.3544 102.354 87.2106 102.354C87.1149 102.403 87.0429 102.488 86.9951 102.61C86.9473 102.707 86.8992 102.805 86.8513 102.903C86.8035 102.976 86.7315 103.049 86.6358 103.122C86.5638 103.171 86.456 103.183 86.3122 103.159C86.2644 103.451 86.1446 103.683 85.953 103.853C85.7611 104.024 85.6655 104.28 85.6655 104.621C85.4019 104.768 85.1861 104.951 85.0185 105.17C84.8508 105.39 84.6831 105.621 84.5155 105.865C84.3478 106.109 84.1679 106.34 83.9763 106.56C83.8087 106.779 83.5929 106.95 83.3296 107.072C83.2098 107.218 83.1736 107.45 83.2217 107.767C82.9581 107.986 82.6348 108.181 82.2513 108.352C81.8679 108.523 81.5087 108.608 81.1733 108.608C80.4785 108.608 79.9992 108.23 79.7358 107.474C79.7358 107.23 79.7598 106.974 79.8076 106.706C79.8315 106.414 79.8796 106.145 79.9513 105.901C80.0233 105.633 80.131 105.402 80.2747 105.207C80.4185 104.987 80.6223 104.829 80.8858 104.731C80.8858 104.512 80.8138 104.366 80.6701 104.292C80.5263 104.195 80.4665 104.036 80.4905 103.817C81.1372 103.5 81.7003 103.085 82.1796 102.573C82.6587 102.061 83.0899 101.525 83.4733 100.964C83.8804 100.379 84.2878 99.7939 84.6951 99.2087C85.1024 98.6235 85.5576 98.0995 86.0608 97.6363V96.8681C86.7796 96.0879 87.2467 95.2102 87.4622 94.2349C87.7258 94.1862 87.8935 94.0642 87.9655 93.8693C88.0611 93.6743 88.1092 93.4426 88.1092 93.1743C88.229 93.1743 88.3008 93.1256 88.3247 93.028C88.3728 92.9061 88.4804 92.8696 88.6481 92.9183C88.8638 92.3331 89.1035 91.7969 89.3669 91.3091C89.6304 90.8214 89.894 90.3338 90.1576 89.8462C90.4212 89.3341 90.6486 88.8099 90.8405 88.2736C91.056 87.7372 91.2117 87.1398 91.3076 86.4815C91.6429 86.4571 91.8228 86.2987 91.8467 86.0061C91.8946 85.6891 91.9424 85.4087 91.9905 85.1649C92.3497 84.8236 92.6133 84.4213 92.781 83.958C92.9728 83.4948 93.1405 83.0193 93.2842 82.5317C93.428 82.0197 93.5837 81.5199 93.7513 81.0322C93.9429 80.5202 93.6674 79.2646 94.003 78.8745V78.7648C94.003 78.6429 93.9549 78.5697 93.8592 78.5453C93.7633 78.4966 93.7155 78.4112 93.7155 78.2893C93.7394 78.2649 93.7513 78.2405 93.7513 78.2162C94.0388 78.0943 94.2544 77.8992 94.3981 77.631C94.5419 77.3384 94.7576 77.1312 95.0451 77.0093C95.5481 77.4238 96.5304 78.4844 96.9138 78.5819C97.2973 78.655 97.8003 78.716 98.4231 78.7648C98.7348 79.1061 98.9024 79.5206 98.9263 80.0082C98.9742 80.4714 99.0581 80.9347 99.178 81.398C99.3696 82.1782 99.5731 82.9462 99.7888 83.702C100.029 84.4335 100.208 85.1893 100.328 85.9695C100.4 86.4327 100.532 86.8716 100.723 87.2861C100.915 87.7006 101.047 88.1273 101.118 88.5661C101.167 88.9075 101.167 89.2976 101.118 89.7365C101.071 90.1509 101.118 90.5167 101.262 90.8336L101.514 91.4188C101.634 91.6871 101.729 91.9675 101.801 92.2601C101.897 92.5527 101.981 92.8452 102.053 93.1378C102.245 93.8693 102.412 94.6616 102.556 95.515C102.724 96.344 102.975 97.0998 103.311 97.7826C103.43 98.0262 103.61 98.1968 103.85 98.2944C104.113 98.3921 104.401 98.4651 104.712 98.514C105.024 98.5383 105.323 98.5505 105.611 98.5505C105.922 98.5262 106.186 98.514 106.401 98.514H106.761C106.904 98.514 107.048 98.5383 107.192 98.587C107.288 98.782 107.336 98.9529 107.336 99.0992C107.336 99.3917 107.24 99.6232 107.048 99.7939C106.857 99.9645 106.761 100.16 106.761 100.379C106.761 100.501 106.809 100.635 106.904 100.781C106.809 100.757 106.665 100.745 106.473 100.745C105.922 100.745 105.383 100.842 104.856 101.037C105.048 101.452 105.299 101.805 105.611 102.098C105.946 102.366 106.293 102.622 106.653 102.866C106.892 102.671 107.144 102.573 107.408 102.573C107.695 102.573 107.959 102.647 108.198 102.793C108.462 102.915 108.737 102.976 109.025 102.976C109.24 102.976 109.396 102.939 109.492 102.866C109.684 103.085 109.839 103.317 109.959 103.561C110.079 103.78 110.235 103.988 110.426 104.183ZM99.178 98.331C99.1299 97.9164 99.0462 97.6239 98.9263 97.4532C98.8304 97.2583 98.7467 97.0265 98.6747 96.7585C98.579 96.417 98.5071 96.0514 98.4592 95.6612C98.4353 95.2711 98.3872 94.8933 98.3155 94.5274C98.1478 93.6986 97.956 92.8696 97.7405 92.0405C97.5486 91.2115 97.2973 90.4069 96.9856 89.6267C97.0815 89.4804 97.1294 89.3463 97.1294 89.2244V89.1147C96.9138 88.8709 96.7581 88.5783 96.6622 88.237C96.5665 87.8713 96.4706 87.5177 96.3747 87.1764C96.303 86.8107 96.1951 86.4815 96.0513 86.1889C95.9315 85.872 95.728 85.616 95.4405 85.4209C95.3685 85.5672 95.3326 85.7379 95.3326 85.9329C95.3326 86.1036 95.3446 86.2621 95.3685 86.4084C95.4165 86.5546 95.4405 86.7131 95.4405 86.8838C95.2008 87.0057 95.0212 87.2008 94.9013 87.469C94.8054 87.7128 94.6378 87.9078 94.3981 88.0541C94.2065 88.8343 93.931 89.578 93.5717 90.285C93.2122 90.9677 92.829 91.6506 92.4217 92.3331C92.0383 93.0159 91.6669 93.7108 91.3076 94.4179C90.9481 95.1004 90.6606 95.8197 90.4451 96.5755C90.1337 96.795 89.9179 97.0754 89.7981 97.4167C89.7024 97.758 89.6544 98.0995 89.6544 98.4407C89.8701 98.5627 90.1098 98.6357 90.3731 98.6603C90.6606 98.6603 90.9361 98.6603 91.1997 98.6603C91.4633 98.6603 91.7149 98.6846 91.9544 98.7333C92.194 98.782 92.4098 98.904 92.6013 99.0992C92.9128 99.0016 93.2481 98.9407 93.6076 98.9161C93.991 98.8674 94.3024 98.7577 94.5419 98.587C95.0212 98.7577 95.5361 98.8431 96.0872 98.8431C96.3747 98.8431 96.6503 98.8188 96.9138 98.7698C97.2013 98.7211 97.4769 98.6603 97.7405 98.587C97.956 98.6357 98.1236 98.7211 98.2435 98.8431C98.3633 98.9407 98.5429 98.9772 98.7826 98.9529C98.9024 98.8553 98.9742 98.7577 98.9981 98.6603C99.0223 98.5383 99.0821 98.4286 99.178 98.331Z" fill="black"/>
<path d="M133.406 82.8243C133.358 83.1169 133.287 83.3729 133.191 83.5923C133.119 83.7873 133.107 84.0556 133.155 84.3969C132.915 84.4213 132.724 84.5066 132.58 84.6529C132.46 84.7748 132.352 84.9211 132.256 85.0918C132.185 85.2624 132.101 85.4453 132.005 85.6404C131.933 85.811 131.837 85.9695 131.717 86.1158C131.909 86.9935 132.017 87.8834 132.041 88.7856C132.065 89.6877 132.125 90.5776 132.22 91.4553C132.34 92.577 132.52 93.6864 132.76 94.7835C133.023 95.8562 133.155 96.9535 133.155 98.0751C133.155 98.4164 133.143 98.7333 133.119 99.0259C133.119 99.3185 133.119 99.6232 133.119 99.9401C133.119 100.135 133.119 100.342 133.119 100.562C133.143 100.757 133.155 100.952 133.155 101.147C133.155 101.854 133.059 102.561 132.867 103.268C132.7 103.975 132.568 104.682 132.472 105.39C132.185 105.658 131.933 105.95 131.717 106.267C131.526 106.584 131.322 106.877 131.106 107.145C130.891 107.413 130.639 107.645 130.352 107.84C130.064 108.059 129.705 108.206 129.274 108.279C129.202 108.523 129.058 108.705 128.842 108.827C128.651 108.949 128.483 109.12 128.339 109.339H128.267C127.668 109.339 127.153 109.254 126.722 109.083C126.291 108.913 125.883 108.717 125.5 108.498C125.141 108.279 124.769 108.047 124.386 107.803C124.003 107.559 123.56 107.364 123.057 107.218C122.386 106.657 121.775 106.048 121.224 105.39C120.673 104.707 120.05 104.097 119.355 103.561C119.187 103.073 118.96 102.671 118.672 102.354C118.408 102.037 118.145 101.671 117.882 101.257C117.762 101.086 117.666 100.928 117.594 100.781C117.546 100.635 117.474 100.464 117.378 100.269C117.307 100.074 117.187 99.9401 117.019 99.8671C116.875 99.7938 116.743 99.7086 116.624 99.611C116.432 98.8552 116.157 98.1603 115.797 97.5265C115.438 96.8926 115.018 96.2829 114.539 95.6977C114.395 95.966 114.276 96.2586 114.18 96.5755C114.108 96.8681 114.036 97.1728 113.964 97.49C113.892 97.7825 113.796 98.0873 113.677 98.4042C113.581 98.6968 113.449 98.965 113.282 99.2087V99.3185C113.282 99.4404 113.329 99.5134 113.425 99.538C113.521 99.5624 113.569 99.6354 113.569 99.7573C113.569 99.7817 113.557 99.806 113.533 99.8306C113.533 99.8549 113.533 99.8793 113.533 99.9036C113.413 100.001 113.317 100.123 113.245 100.269C113.198 100.416 113.078 100.501 112.886 100.525C112.91 100.647 112.922 100.769 112.922 100.891V101.22C112.922 101.927 112.838 102.634 112.67 103.342C112.527 104.048 112.455 104.768 112.455 105.499V105.975C112.455 106.145 112.467 106.304 112.491 106.45C112.539 106.596 112.611 106.743 112.707 106.889C112.802 107.035 113.857 107.883 113.857 108.005C113.857 108.176 113.785 108.334 113.641 108.481C113.808 108.603 114 108.737 114.216 108.883C114.432 109.029 114.623 109.188 114.791 109.358C114.982 109.553 115.138 109.749 115.258 109.944C115.378 110.163 115.438 110.395 115.438 110.638C115.438 111.053 115.306 111.346 115.042 111.516C114.779 111.687 114.455 111.821 114.072 111.918C113.713 112.016 113.329 112.101 112.922 112.174C112.539 112.272 111.209 111.717 110.945 111.936H110.838C110.55 111.936 110.335 111.851 110.191 111.68C110.047 111.509 109.832 111.424 109.544 111.424C109.089 110.668 108.777 109.815 108.61 108.864C108.442 107.937 108.358 107.047 108.358 106.194C108.358 105.146 108.454 104.097 108.645 103.049C108.813 102 109.029 100.964 109.292 99.9401C109.532 98.9161 109.795 97.9042 110.083 96.9048C110.394 95.8808 110.682 94.8567 110.945 93.8327L110.982 93.7229C110.982 93.601 110.945 93.5156 110.874 93.4669C110.826 93.4182 110.802 93.3449 110.802 93.2476C110.802 93.1986 110.814 93.1743 110.838 93.1743C110.91 92.9304 110.982 92.6989 111.053 92.4794C111.149 92.2601 111.221 92.0162 111.269 91.7479C111.413 91.0653 111.508 90.3704 111.557 89.6633C111.628 88.9319 111.664 88.2126 111.664 87.5055C111.688 86.7985 111.712 86.0914 111.736 85.3843C111.784 84.6529 111.868 83.9336 111.988 83.2266C112.179 83.0315 112.359 82.8243 112.527 82.6048C112.694 82.3854 112.91 82.1904 113.174 82.0197C113.653 82.0441 114.132 82.1172 114.611 82.2391C115.09 82.361 115.545 82.5561 115.977 82.8243C116.264 83.8727 116.456 84.9211 116.552 85.9695C116.671 87.0179 116.863 88.0663 117.127 89.1147V89.2244C117.127 89.3463 117.187 89.4073 117.307 89.4073C117.45 89.3829 117.558 89.4195 117.63 89.517C117.582 89.5902 117.546 89.6755 117.522 89.773C117.522 89.8706 117.522 89.9681 117.522 90.0656V90.6873C117.57 90.8824 117.63 91.0896 117.702 91.3091C117.774 91.5286 117.929 91.6627 118.169 91.7114C118.289 92.4915 118.468 93.2108 118.708 93.8692C118.948 94.5274 119.223 95.1615 119.535 95.771C119.846 96.3805 120.182 96.99 120.541 97.5995C120.9 98.1847 121.271 98.8066 121.655 99.4647C122.254 99.928 122.769 100.464 123.2 101.074C123.631 101.659 124.063 102.232 124.494 102.793C124.949 103.329 125.452 103.805 126.003 104.219C126.578 104.634 127.321 104.89 128.231 104.987C128.351 104.89 128.435 104.756 128.483 104.585L128.663 104.073C128.735 103.902 128.806 103.756 128.878 103.634C128.974 103.488 129.106 103.378 129.274 103.305C129.321 102.622 129.369 101.927 129.417 101.22C129.489 100.513 129.645 99.8428 129.885 99.2087C129.765 98.9894 129.705 98.7211 129.705 98.4042C129.705 98.1603 129.717 97.9288 129.741 97.7093C129.789 97.49 129.813 97.2704 129.813 97.0511C129.813 96.5876 129.717 96.2099 129.525 95.9173C129.525 95.7467 129.537 95.5758 129.561 95.4052C129.585 95.2102 129.657 95.0274 129.777 94.8567C129.585 94.369 129.429 93.8571 129.31 93.3206C129.214 92.7841 129.166 92.2357 129.166 91.6749C129.166 91.3578 129.202 91.0287 129.274 90.6873C129.13 90.3216 129.034 89.8949 128.986 89.4073L128.842 87.9078C128.794 87.3958 128.723 86.9204 128.627 86.4815C128.531 86.0426 128.351 85.6891 128.088 85.4209C128.231 85.2015 128.303 84.9455 128.303 84.6529C128.303 84.1653 128.231 83.702 128.088 83.2631C127.944 82.8243 127.872 82.361 127.872 81.8734C127.872 81.5321 127.944 81.1907 128.088 80.8494C128.615 80.8738 129.13 80.9347 129.633 81.0322C130.16 81.1054 130.675 81.1419 131.178 81.1419C131.322 81.337 131.49 81.4955 131.681 81.6174C131.873 81.7393 132.077 81.8612 132.292 81.9831C132.508 82.0806 132.712 82.1904 132.903 82.3123C133.119 82.4342 133.287 82.6048 133.406 82.8243Z" fill="black"/>
<path d="M160.771 88.8222C160.771 89.0661 160.687 89.2245 160.519 89.2977C160.351 89.3708 160.268 89.5171 160.268 89.7366C160.268 89.8097 160.291 89.8706 160.34 89.9194C160.387 89.9682 160.411 90.0413 160.411 90.1388V90.2851C160.124 91.6993 159.704 92.9305 159.153 93.9791C158.626 95.0275 158.003 95.9904 157.285 96.8681C156.566 97.7459 155.751 98.5749 154.841 99.3551C153.954 100.135 152.996 100.952 151.966 101.805C151.678 102.049 151.379 102.293 151.068 102.537C150.78 102.781 150.504 103.037 150.241 103.305L149.45 104.073C149.426 104.097 149.295 104.158 149.055 104.256C148.815 104.329 148.672 104.378 148.624 104.402C148.288 104.548 147.929 104.719 147.546 104.914C147.186 105.109 146.875 105.353 146.611 105.646C146.132 105.646 145.725 105.719 145.39 105.865C145.054 106.011 144.683 106.206 144.275 106.45C144.156 106.45 144.048 106.426 143.952 106.377C143.88 106.328 143.796 106.28 143.7 106.231C143.604 106.182 143.497 106.158 143.377 106.158C143.281 106.133 143.149 106.145 142.982 106.194C142.694 105.707 142.383 105.292 142.047 104.951C141.712 104.609 141.257 104.402 140.682 104.329C140.61 103.915 140.442 103.597 140.178 103.378C139.915 103.134 139.651 102.878 139.388 102.61C139.34 102.464 139.304 102.293 139.28 102.098C139.256 101.903 139.208 101.72 139.136 101.549C139.065 101.379 138.969 101.232 138.849 101.111C138.729 100.989 138.561 100.928 138.346 100.928C138.322 100.781 138.382 100.708 138.525 100.708C138.669 100.708 138.741 100.647 138.741 100.525C138.741 100.379 138.717 100.233 138.669 100.087C138.621 99.9402 138.597 99.7818 138.597 99.6111C138.597 99.4892 138.609 99.3794 138.633 99.282C138.657 99.1844 138.693 99.0747 138.741 98.9529C138.669 98.2945 138.633 97.6239 138.633 96.9414C138.633 95.6248 138.717 94.3325 138.885 93.0646C139.076 91.7724 139.172 90.468 139.172 89.1514C139.172 88.5662 139.136 87.9811 139.065 87.3959C139.016 86.8108 138.909 86.2378 138.741 85.677C138.19 85.7989 137.639 85.9452 137.088 86.1159C136.537 86.2622 136.022 86.4694 135.543 86.7376C135.279 86.5669 135.003 86.4694 134.716 86.445C134.404 86.3963 134.105 86.3231 133.818 86.2256C133.65 85.8843 133.566 85.5307 133.566 85.165C133.566 84.8237 133.626 84.4945 133.746 84.1776L134.105 83.2267C134.68 83.1048 135.255 82.9219 135.83 82.6781C136.381 82.4343 136.944 82.2148 137.519 82.0198C137.711 81.971 137.95 81.9101 138.238 81.8369C138.549 81.7638 138.765 81.7028 138.885 81.6541C139.052 81.5809 139.16 81.4468 139.208 81.2518C139.28 81.0323 139.376 80.8495 139.496 80.7032H140.107C140.25 80.7032 140.406 80.7154 140.574 80.7398C140.741 80.7398 140.897 80.7763 141.041 80.8495C141.903 80.63 142.766 80.4959 143.628 80.4472C144.491 80.374 145.377 80.2765 146.288 80.1546C146.384 80.1546 146.527 80.1424 146.719 80.118L147.33 80.0083C147.546 79.9596 147.737 79.923 147.905 79.8986C148.097 79.8498 148.228 79.8254 148.3 79.8254C148.372 79.8254 148.408 79.862 148.408 79.9352H149.019C150.049 79.9352 151.056 80.0693 152.038 80.3375L154.985 81.142C155.392 81.4834 155.799 81.8125 156.207 82.1295C156.614 82.4465 157.069 82.7269 157.572 82.9707C157.692 83.3608 157.872 83.6777 158.111 83.9215C158.375 84.141 158.662 84.3848 158.974 84.653C159.094 84.97 159.249 85.3113 159.441 85.677C159.657 86.0184 159.86 86.3719 160.052 86.7376C160.244 87.1033 160.411 87.4691 160.555 87.8348C160.699 88.1761 160.771 88.5053 160.771 88.8222ZM157.428 89.3708C157.165 88.81 156.913 88.2249 156.674 87.6154C156.434 87.0058 156.135 86.4572 155.775 85.9696C155.344 85.8477 154.901 85.7014 154.446 85.5307C154.015 85.3357 153.715 85.0065 153.547 84.5433C153.499 84.5676 153.415 84.5798 153.296 84.5798C153.08 84.5798 152.888 84.4945 152.721 84.3238C152.553 84.1532 152.361 84.0435 152.146 83.9947C151.954 83.9703 151.69 83.9337 151.355 83.885C151.044 83.8362 150.708 83.7996 150.349 83.7753C149.99 83.7509 149.63 83.7265 149.271 83.7021C148.935 83.6777 148.672 83.6655 148.48 83.6655C148.288 83.6655 148.085 83.6777 147.869 83.7021C147.677 83.7021 147.474 83.7143 147.258 83.7387C147.066 83.7387 146.947 83.7753 146.899 83.8484C146.851 83.8972 146.755 83.9459 146.611 83.9947C146.491 83.9459 146.36 83.9215 146.216 83.9215H145.785C145.282 83.9215 144.778 84.0069 144.275 84.1776C143.796 84.3238 143.317 84.5311 142.838 84.7993V84.9456C142.838 85.1406 142.922 85.2503 143.09 85.2747C143.257 85.2991 143.353 85.3966 143.377 85.5673C143.257 85.5673 143.161 85.5795 143.09 85.6039C143.018 85.6039 142.982 85.6892 142.982 85.8599C142.982 86.1037 143.006 86.3719 143.053 86.6645C143.125 86.9571 143.161 87.2496 143.161 87.5422C143.161 87.7616 143.137 88.0176 143.09 88.3102C143.041 88.6028 142.922 88.8344 142.73 89.0051C142.97 89.2245 143.09 89.5171 143.09 89.8828C143.09 90.1266 143.041 90.3827 142.946 90.6509C142.85 90.9191 142.73 91.1507 142.586 91.3457C142.538 92.3699 142.443 93.4061 142.299 94.4545C142.155 95.5029 142.083 96.5391 142.083 97.5631C142.083 98.0752 142.107 98.5749 142.155 99.0625C142.227 99.5503 142.335 100.038 142.478 100.525C142.742 100.794 143.018 101.001 143.305 101.147C143.616 101.294 143.94 101.44 144.275 101.586V101.696C144.275 101.769 144.227 101.842 144.132 101.915C144.036 101.988 143.988 102.086 143.988 102.208C143.988 102.305 144.036 102.354 144.132 102.354C145.138 102.062 146.084 101.708 146.971 101.294C147.857 100.879 148.684 100.318 149.45 99.6111C149.522 99.5381 149.594 99.5014 149.666 99.5014C149.714 99.5014 149.774 99.5135 149.846 99.5381C149.941 99.5624 150.025 99.5868 150.097 99.6111L150.061 99.4648C150.061 99.3186 150.097 99.1844 150.169 99.0625C150.265 98.9408 150.373 98.831 150.493 98.7334L150.852 98.4043C150.972 98.2824 151.068 98.1604 151.14 98.0385C151.331 97.9898 151.463 97.8922 151.535 97.7459C151.631 97.5996 151.786 97.5266 152.002 97.5266C152.05 97.2583 152.182 97.0634 152.397 96.9414C152.613 96.7951 152.745 96.5877 152.793 96.3197C153.272 96.0515 153.691 95.7224 154.05 95.3322C154.434 94.942 154.781 94.5275 155.093 94.0887C155.428 93.6498 155.74 93.1987 156.027 92.7355C156.315 92.248 156.614 91.7848 156.925 91.3457V91.1994C156.925 90.8093 156.985 90.4924 157.105 90.2486C157.249 90.0047 157.357 89.7122 157.428 89.3708Z" fill="black"/>
<path d="M184.721 85.6771C184.577 85.8965 184.493 86.1404 184.469 86.4085C184.445 86.6768 184.433 86.9206 184.433 87.14C184.433 87.4326 184.433 87.7252 184.433 88.0177C184.457 88.2859 184.469 88.5541 184.469 88.8223V89.3709C184.421 89.5416 184.349 89.7123 184.254 89.8829C184.158 90.0536 184.086 90.2243 184.038 90.3949C183.703 91.297 183.535 92.1992 183.535 93.1015V93.1745C183.415 93.4671 183.295 93.7353 183.176 93.9792C183.08 94.2229 182.984 94.4668 182.888 94.7107C182.792 94.93 182.72 95.1739 182.673 95.4421C182.624 95.6858 182.613 95.9784 182.636 96.3198C182.301 97.173 181.858 97.9534 181.307 98.6605C180.756 99.343 180.217 100.05 179.69 100.782C179.186 100.977 178.719 101.233 178.288 101.55C177.881 101.867 177.485 102.22 177.102 102.61C176.359 102.854 175.629 103.134 174.91 103.451C174.191 103.768 173.544 104.195 172.969 104.731C172.514 104.78 172.059 104.853 171.604 104.951C171.148 105.048 170.705 105.195 170.274 105.39H169.843C169.627 105.39 169.471 105.341 169.376 105.244C169.064 105.414 168.741 105.536 168.405 105.609C168.07 105.658 167.734 105.682 167.399 105.682C166.968 105.682 166.536 105.658 166.105 105.609C165.698 105.536 165.279 105.463 164.848 105.39C164.608 105.048 164.273 104.792 163.841 104.622C163.41 104.427 163.027 104.244 162.691 104.073C161.996 103.098 161.493 102.159 161.182 101.257C160.87 100.331 160.547 99.2943 160.211 98.1483C160.259 97.8071 160.343 97.478 160.463 97.1608C160.583 96.8196 160.631 96.4537 160.607 96.0638C161.038 94.7959 161.601 93.6499 162.296 92.6259C163.015 91.5775 163.829 90.5778 164.74 89.6269C164.74 89.4806 164.764 89.3587 164.811 89.2612C164.883 89.1637 164.895 89.0174 164.848 88.8223C164.871 88.8467 164.919 88.8589 164.991 88.8589C165.183 88.8589 165.303 88.8101 165.351 88.7126C165.398 88.5907 165.41 88.4566 165.386 88.3103C166.249 87.7495 167.028 87.1034 167.723 86.372C168.441 85.6405 169.256 85.031 170.166 84.5434C170.238 84.3239 170.358 84.1411 170.526 83.9948C170.693 83.8485 170.825 83.6778 170.921 83.4828C171.688 83.2633 172.382 82.9342 173.005 82.4953C173.628 82.0564 174.287 81.6663 174.982 81.325C175.365 81.1056 175.724 80.9593 176.06 80.8861C176.419 80.7886 176.803 80.6911 177.21 80.5936C177.354 80.5448 177.485 80.5082 177.605 80.4838C177.725 80.4595 177.857 80.4473 178.001 80.4473C178.432 80.4473 178.851 80.5326 179.258 80.7033C179.666 80.8495 180.085 80.9227 180.516 80.9227C180.636 80.9227 180.732 80.9227 180.804 80.9227C180.899 80.8983 180.995 80.8739 181.091 80.8495C181.498 81.3616 182.014 81.7517 182.636 82.0199C182.78 82.3856 182.948 82.7026 183.14 82.9707C183.355 83.239 183.571 83.5071 183.786 83.7753C184.002 84.0192 184.194 84.2995 184.361 84.6165C184.553 84.9091 184.673 85.2626 184.721 85.6771ZM181.127 87.5789C181.127 87.457 181.115 87.3472 181.091 87.2497C180.852 87.1766 180.624 87.079 180.408 86.9571C180.193 86.8352 179.953 86.7743 179.69 86.7743C179.522 86.7743 179.354 86.8109 179.186 86.884C179.163 86.7133 179.091 86.5914 178.971 86.5183C178.875 86.4451 178.755 86.3842 178.611 86.3354C178.492 86.2623 178.36 86.2135 178.216 86.1891C178.096 86.1404 177.989 86.0672 177.893 85.9697C177.821 85.7746 177.737 85.5796 177.641 85.3845C177.569 85.1651 177.426 85.0066 177.21 84.9091C176.994 85.1285 176.743 85.3114 176.455 85.4577C176.168 85.5796 175.868 85.7015 175.557 85.8234C175.269 85.9453 174.982 86.0916 174.694 86.2623C174.431 86.4329 174.203 86.6402 174.011 86.884H173.365C173.221 87.1522 173.017 87.3594 172.754 87.5057C172.49 87.6276 172.263 87.8105 172.071 88.0543C171.688 88.2494 171.328 88.4932 170.993 88.7858C170.681 89.0539 170.37 89.3465 170.058 89.6635C169.747 89.9561 169.435 90.2608 169.124 90.5778C168.836 90.8948 168.525 91.1873 168.19 91.4556C167.878 92.1383 167.531 92.7356 167.148 93.2478C166.788 93.7353 166.441 94.2351 166.105 94.7472C165.794 95.2591 165.518 95.8199 165.279 96.4294C165.063 97.0145 164.955 97.746 164.955 98.6237V98.9896C164.955 99.1115 164.967 99.2335 164.991 99.3552C165.303 99.6967 165.554 100.062 165.746 100.452C165.961 100.842 166.309 101.123 166.788 101.294C167.267 101.489 167.77 101.574 168.298 101.55C168.848 101.525 169.376 101.586 169.879 101.733C171.029 101.513 172.131 101.16 173.185 100.672C174.263 100.16 175.281 99.5504 176.24 98.8433C176.383 98.7213 176.551 98.5994 176.743 98.4774C176.934 98.3312 177.09 98.1849 177.21 98.0386C177.33 97.9166 177.426 97.7827 177.498 97.6365C177.593 97.4902 177.689 97.356 177.785 97.2341C177.977 96.9172 178.192 96.6003 178.432 96.2831C178.671 95.9662 178.923 95.6736 179.186 95.4054C179.306 94.8691 179.462 94.357 179.654 93.8694C179.845 93.3573 180.037 92.8576 180.229 92.37C180.42 91.8822 180.576 91.3824 180.696 90.8704C180.84 90.3584 180.911 89.822 180.911 89.2612C180.911 89.1393 180.899 89.0052 180.876 88.8589C180.876 88.7126 180.864 88.5785 180.84 88.4566C181.031 88.1884 181.127 87.8958 181.127 87.5789Z" fill="black"/>
<path d="M221.513 103.854C221.393 104.244 221.358 104.634 221.406 105.024C221.334 105.121 221.25 105.182 221.154 105.207C221.058 105.231 220.962 105.268 220.867 105.316C220.771 105.341 220.687 105.39 220.615 105.463C220.567 105.511 220.567 105.621 220.615 105.792C219.824 105.841 218.949 104.402 218.23 104.695C217.512 104.987 216.805 105.304 216.11 105.646C215.75 105.524 215.439 105.378 215.175 105.207C214.912 105.036 214.576 104.926 214.169 104.878C213.762 104.049 213.379 103.183 213.019 102.281C212.684 101.354 212.516 100.428 212.516 99.5014C212.516 98.8189 212.636 98.197 212.875 97.6364C212.875 96.9049 212.935 96.1857 213.055 95.4786C213.175 94.7715 213.307 94.0765 213.45 93.394C213.618 92.6869 213.762 91.9798 213.882 91.2726C214.001 90.5656 214.062 89.8463 214.062 89.1149V88.3103C214.013 88.3103 213.954 88.3712 213.882 88.4931C213.81 88.5907 213.738 88.7126 213.666 88.8589C213.618 88.9808 213.57 89.1027 213.522 89.2246C213.474 89.3465 213.438 89.4196 213.415 89.444C213.007 89.761 212.684 90.1633 212.444 90.6509C212.229 91.1142 211.989 91.5531 211.725 91.9676C211.39 92.4795 211.031 92.9795 210.647 93.467C210.288 93.9546 209.833 94.3326 209.282 94.6008V94.6739C209.282 94.7958 209.246 94.8812 209.174 94.9299C209.102 94.9786 209.09 95.1006 209.138 95.2958C208.539 95.4907 207.976 95.7711 207.449 96.1368C206.946 96.5026 206.526 96.9658 206.191 97.5266C205.712 97.6486 205.257 97.8192 204.825 98.0385C204.418 98.2337 203.999 98.453 203.568 98.6969C203.376 98.7943 203.172 98.9162 202.957 99.0625C202.741 99.2088 202.525 99.3064 202.31 99.3551C202.118 99.4284 201.855 99.4771 201.519 99.5014C201.208 99.526 200.872 99.5503 200.513 99.5747C200.178 99.599 199.842 99.6112 199.507 99.6112H198.716C198.596 99.6112 198.441 99.5503 198.249 99.4284C198.057 99.3064 197.842 99.1723 197.602 99.026C197.386 98.8797 197.159 98.7456 196.919 98.6237C196.68 98.4774 196.452 98.38 196.236 98.3311C196.045 97.6972 195.769 97.1364 195.41 96.6489C195.074 96.1368 194.715 95.6249 194.332 95.1127C194.212 94.5276 194.044 93.9181 193.829 93.2842C193.637 92.6502 193.29 92.1261 192.786 91.7116C192.906 91.5409 192.966 91.3458 192.966 91.1264C192.966 90.8581 192.906 90.6021 192.786 90.3583C192.667 90.1145 192.607 89.8463 192.607 89.5537C192.607 89.3587 192.619 89.2124 192.643 89.1149C192.379 89.4074 192.187 89.7854 192.068 90.2486C191.972 90.6875 191.924 91.0898 191.924 91.4555C191.924 91.7481 191.96 92.0163 192.032 92.2602C191.792 92.6015 191.636 93.0282 191.565 93.5403C191.517 94.0522 191.493 94.5032 191.493 94.8934C191.493 95.381 191.529 95.8563 191.6 96.3198C191.217 96.7097 191.025 97.1854 191.025 97.7459C191.025 98.0631 191.097 98.3433 191.241 98.5872C191.241 98.6848 191.217 98.7578 191.169 98.8067C191.121 98.8554 191.061 98.8919 190.99 98.9162C190.942 98.9408 190.882 98.9773 190.81 99.026C190.762 99.0504 190.738 99.1115 190.738 99.2088C190.738 99.3308 190.738 99.4649 190.738 99.6112C190.762 99.7575 190.774 99.9038 190.774 100.05C190.774 100.391 190.762 100.745 190.738 101.111C190.714 101.476 190.702 101.83 190.702 102.171C190.702 102.878 190.762 103.39 190.882 103.707C191.025 104 191.193 104.219 191.385 104.366C191.6 104.512 191.828 104.658 192.068 104.805C192.307 104.951 192.547 105.231 192.786 105.646C192.715 105.865 192.583 106.048 192.391 106.194C192.223 106.316 192.056 106.45 191.888 106.597C191.744 106.719 191.612 106.865 191.493 107.035C191.373 107.206 191.325 107.45 191.349 107.767H191.169C190.858 107.767 190.558 107.816 190.271 107.913C189.983 108.011 189.684 108.059 189.372 108.059C189.3 108.059 189.229 108.047 189.157 108.023C189.085 108.023 189.013 108.023 188.941 108.023L188.582 107.803C188.462 107.73 188.342 107.694 188.222 107.694C188.103 107.694 187.947 107.718 187.755 107.767C187.42 106.67 187.156 105.536 186.965 104.366C186.797 103.195 186.713 102.049 186.713 100.928C186.713 100.806 186.737 100.684 186.785 100.562C186.857 100.416 186.953 100.367 187.072 100.416V99.721C187.072 98.9652 187.132 98.2337 187.252 97.5266C187.396 96.7952 187.468 96.0394 187.468 95.259C187.468 95.0397 187.456 94.8201 187.432 94.6008C187.432 94.3813 187.42 94.1741 187.396 93.9792C187.516 93.5646 187.635 93.1501 187.755 92.7356C187.899 92.2967 187.971 91.8457 187.971 91.3823C187.971 91.1873 187.935 90.9557 187.863 90.6875C188.055 90.5412 188.198 90.3583 188.294 90.1389C188.39 89.8951 188.462 89.6391 188.51 89.3709C188.558 89.0783 188.594 88.7979 188.618 88.5297C188.642 88.2615 188.666 88.0177 188.69 87.7983C188.929 87.3106 189.061 86.7864 189.085 86.2257C189.109 85.6649 189.229 85.1407 189.444 84.653C189.42 84.5555 189.408 84.3848 189.408 84.141C189.408 83.6534 189.48 83.1658 189.624 82.6781C189.792 82.1661 190.115 81.776 190.594 81.5078C191.025 81.6785 191.529 81.7638 192.104 81.7638C192.655 81.7638 193.182 81.6785 193.685 81.5078C193.829 81.5566 193.96 81.6175 194.08 81.6907C194.2 81.7394 194.32 81.8004 194.44 81.8735C194.583 81.9223 194.727 81.9711 194.871 82.0198C195.015 82.0442 195.182 82.0442 195.374 82.0198C195.613 82.7269 195.817 83.4462 195.985 84.1776C196.176 84.9091 196.32 85.6527 196.416 86.4085C196.464 86.7255 196.476 87.0668 196.452 87.4325C196.452 87.7983 196.476 88.1396 196.524 88.4566C196.548 88.6516 196.608 88.8345 196.704 89.0052C196.799 89.1514 196.895 89.3221 196.991 89.5172C197.087 89.7122 197.159 89.9316 197.207 90.1755C197.279 90.4193 197.303 90.724 197.279 91.0898C197.542 91.7237 197.83 92.3332 198.141 92.9184C198.476 93.4792 198.836 94.04 199.219 94.6008C199.435 94.6739 199.626 94.7715 199.794 94.8934C199.962 94.9908 200.07 95.1616 200.118 95.4053C200.333 95.4053 200.525 95.4421 200.693 95.5151L201.304 95.6979C202.214 95.4053 203.053 95.0154 203.819 94.5276C204.61 94.04 205.437 93.6255 206.299 93.2842C207.353 92.2359 208.263 91.0776 209.03 89.8097C209.797 88.5175 210.563 87.2375 211.33 85.9696V85.165C211.474 85.0919 211.594 85.0066 211.69 84.9091C211.809 84.7872 211.953 84.7018 212.121 84.653C212.145 84.3605 212.205 84.0801 212.3 83.8119C212.42 83.5193 212.54 83.2511 212.66 83.0073C212.804 82.7391 212.923 82.4831 213.019 82.2393C213.115 81.9711 213.163 81.6907 213.163 81.3981C213.163 81.2274 213.151 81.0811 213.127 80.9592C213.486 80.5935 213.918 80.4106 214.421 80.4106C214.9 80.4106 215.379 80.5326 215.858 80.7764C216.361 80.9958 216.829 81.203 217.26 81.3981C217.523 81.9833 217.715 82.605 217.835 83.2633C217.979 83.8972 218.074 84.5555 218.122 85.2382C218.17 85.9209 218.194 86.6036 218.194 87.2862V89.8829C218.17 90.0779 218.098 90.2242 217.979 90.3218C217.883 90.3949 217.811 90.5168 217.763 90.6875V91.0532C217.763 91.1751 217.751 91.297 217.727 91.419C217.727 91.9311 217.667 92.4673 217.547 93.0282C217.428 93.7353 217.272 94.4545 217.08 95.186C216.912 95.8931 216.829 96.6124 216.829 97.3438C216.829 97.6118 216.841 97.8801 216.865 98.1483C216.888 98.4165 216.936 98.6848 217.008 98.953C216.888 99.1723 216.829 99.4527 216.829 99.794C216.829 100.184 216.888 100.55 217.008 100.891C217.152 101.208 217.32 101.525 217.512 101.842C217.847 101.842 218.182 101.83 218.518 101.806C218.853 101.781 219.2 101.769 219.56 101.769C220.016 103.378 220.327 103.415 220.615 103.488C220.902 103.537 221.202 103.659 221.513 103.854Z" fill="black"/>
<path d="M247.355 95.9894C247.116 96.014 246.9 96.0749 246.708 96.1725C246.541 96.2699 246.361 96.3431 246.17 96.3918C246.194 96.4161 246.205 96.4527 246.205 96.5016C246.205 96.6479 246.17 96.7576 246.098 96.8307C246.026 96.8794 246.014 97.0013 246.062 97.1965C245.702 97.3915 245.331 97.5378 244.948 97.6354C244.564 97.7327 244.169 97.8182 243.762 97.8912C243.378 97.9645 242.995 98.0497 242.612 98.1473C242.228 98.2449 241.869 98.4033 241.533 98.6227V98.2205C241.246 98.3912 240.97 98.4764 240.707 98.4764C240.467 98.4764 240.24 98.4398 240.024 98.3668C239.809 98.2692 239.569 98.2205 239.305 98.2205C239.186 98.2205 239.03 98.2692 238.838 98.3668C238.599 98.3422 238.407 98.2814 238.263 98.1838C238.144 98.0621 237.988 97.9401 237.796 97.8182C237.676 98.0621 237.497 98.2205 237.257 98.2936C237.041 98.3422 236.838 98.3668 236.646 98.3668C236.382 98.3668 236.131 98.3547 235.891 98.3301C235.676 98.3057 235.46 98.2692 235.245 98.2205C234.861 98.3422 234.502 98.4155 234.166 98.4398C233.831 98.4398 233.472 98.4398 233.088 98.4398C232.753 98.4398 232.429 98.4642 232.118 98.5131C231.83 98.5375 231.531 98.6227 231.22 98.7689C231.124 98.5253 230.92 98.4033 230.608 98.4033C230.465 98.4033 230.309 98.4155 230.141 98.4398C229.998 98.4398 229.854 98.4398 229.71 98.4398C229.47 98.4398 229.291 98.3668 229.171 98.2205C229.075 98.2692 229.027 98.3547 229.027 98.4764C229.051 98.5983 229.051 98.6959 229.027 98.7689C228.668 98.6227 228.285 98.5496 227.877 98.5496C227.542 98.5496 227.219 98.5861 226.907 98.6594C226.595 98.7324 226.284 98.7689 225.973 98.7689C225.805 98.7689 225.637 98.7446 225.47 98.6959C225.302 98.6472 225.158 98.6227 225.038 98.6227C224.895 98.6227 224.787 98.6594 224.715 98.7324C224.643 98.7811 224.571 98.8422 224.499 98.9152C224.451 98.9642 224.379 99.025 224.283 99.0983C224.212 99.147 224.104 99.1713 223.96 99.1713C223.697 99.1713 223.517 99.0983 223.421 98.952C223.325 98.7811 223.182 98.6716 222.99 98.6227C222.99 98.379 222.954 98.1594 222.882 97.9645C222.81 97.7695 222.726 97.5743 222.63 97.3793C222.535 97.1598 222.451 96.9526 222.379 96.7576C222.307 96.5624 222.271 96.3431 222.271 96.0992C222.271 96.0262 222.271 95.9529 222.271 95.8799C222.295 95.7823 222.307 95.6969 222.307 95.6238C222.642 95.1363 223.122 94.7948 223.745 94.5998C224.391 94.3803 224.978 94.2707 225.505 94.2707C225.769 94.2707 225.961 94.3194 226.08 94.417C226.224 94.5144 226.392 94.6485 226.583 94.8191C228.261 94.6242 229.938 94.49 231.615 94.417C233.316 94.3437 235.005 94.2585 236.682 94.1609C237.233 94.112 237.784 94.0755 238.335 94.0512C238.886 94.0025 239.437 93.9536 239.988 93.9049C240.06 93.9049 240.108 93.8805 240.132 93.8319C240.156 93.7586 240.168 93.6856 240.168 93.6123C240.192 93.5393 240.216 93.4782 240.24 93.4295C240.288 93.3808 240.36 93.3562 240.455 93.3562C240.719 93.3562 240.899 93.4417 240.995 93.6123C241.09 93.7586 241.234 93.8562 241.426 93.9049C241.594 93.8073 241.785 93.7342 242.001 93.6856C242.24 93.6366 242.468 93.6001 242.683 93.5758C242.899 93.5269 243.103 93.4782 243.295 93.4295C243.51 93.3562 243.69 93.2467 243.833 93.1004C244.025 93.0758 244.133 93.1247 244.157 93.2467C244.181 93.3441 244.253 93.4173 244.373 93.466C244.492 93.4417 244.624 93.4173 244.768 93.393C244.912 93.3441 245.044 93.3197 245.163 93.3197H245.415C245.511 93.3197 245.595 93.3319 245.666 93.3562C245.882 93.844 246.157 94.2829 246.493 94.6728C246.852 95.063 247.14 95.5019 247.355 95.9894Z" fill="black"/>
<path d="M300.307 115.045C300.307 115.313 300.247 115.569 300.127 115.813C299.649 116.081 299.145 116.264 298.619 116.362C298.115 116.483 297.614 116.544 297.11 116.544C296.871 116.544 296.606 116.532 296.319 116.508C296.054 116.508 295.815 116.483 295.601 116.435C295.527 116.41 295.445 116.362 295.348 116.288C295.251 116.215 295.157 116.178 295.061 116.178C294.821 116.178 294.594 116.215 294.377 116.288C294.164 116.386 293.936 116.435 293.694 116.435C293.575 116.435 293.455 116.398 293.336 116.325C293.239 116.252 293.133 116.203 293.014 116.178C292.846 116.13 292.678 116.118 292.51 116.142C292.342 116.166 292.163 116.178 291.969 116.178C291.707 116.178 291.468 116.142 291.252 116.069C291.061 115.996 290.879 115.862 290.714 115.667C290.113 115.593 289.527 115.471 288.952 115.301C288.377 115.154 287.802 114.984 287.227 114.789C286.652 114.618 286.077 114.448 285.502 114.277C284.927 114.13 284.34 114.033 283.74 113.984C283.597 113.814 283.429 113.679 283.239 113.582C283.045 113.509 282.903 113.375 282.806 113.18C282.687 113.18 282.601 113.192 282.555 113.216C282.507 113.265 282.422 113.289 282.302 113.289C281.895 112.948 281.451 112.655 280.973 112.412C280.518 112.168 280.039 111.936 279.536 111.717C279.057 111.497 278.578 111.266 278.099 111.022C277.644 110.803 277.212 110.51 276.805 110.144H276.625C276.434 110.168 276.266 110.12 276.122 109.998C276.003 109.9 275.847 109.852 275.655 109.852C275.535 109.852 275.439 109.864 275.367 109.888C275.296 109.693 275.188 109.535 275.044 109.413C274.9 109.291 274.745 109.169 274.577 109.047C274.433 108.949 274.289 108.84 274.146 108.718C274.002 108.62 273.894 108.486 273.822 108.316C273.223 108.096 272.636 107.828 272.061 107.511C271.51 107.218 271.019 106.828 270.588 106.341C270.109 106.292 269.713 106.146 269.402 105.902C269.091 105.633 268.803 105.304 268.539 104.914C267.964 104.719 267.437 104.463 266.958 104.146C266.479 103.829 266 103.5 265.521 103.159C265.066 102.817 264.574 102.513 264.047 102.244C263.544 101.952 262.969 101.745 262.322 101.623C262.298 101.452 262.226 101.33 262.107 101.257C261.987 101.16 261.843 101.086 261.675 101.038C261.532 100.964 261.388 100.904 261.244 100.855C261.1 100.806 260.992 100.709 260.921 100.562C260.849 100.562 260.777 100.562 260.705 100.562C260.633 100.538 260.561 100.526 260.489 100.526C260.417 100.526 260.334 100.538 260.238 100.562C260.166 100.562 260.094 100.562 260.022 100.562L260.058 100.452C260.058 100.355 260.022 100.294 259.95 100.27C259.903 100.245 259.831 100.221 259.735 100.196C259.639 100.172 259.555 100.136 259.483 100.087C259.411 100.038 259.375 99.9282 259.375 99.7576H259.268C259.004 99.7576 258.764 99.7089 258.549 99.6113C258.333 99.5137 258.094 99.4406 257.83 99.3919C257.782 99.6599 257.758 99.916 257.758 100.16V100.818C257.758 101.915 257.878 103.074 258.118 104.293C258.357 105.487 258.729 106.56 259.232 107.511C259.735 107.706 260.166 107.962 260.525 108.279C260.885 108.596 261.232 108.962 261.568 109.376C261.591 110.034 261.352 110.583 260.849 111.022C260.37 111.485 259.807 111.717 259.16 111.717C258.8 111.717 258.465 111.619 258.154 111.424C257.866 111.254 257.626 110.997 257.435 110.656C257.291 110.656 257.159 110.681 257.039 110.729C256.92 110.803 256.776 110.839 256.608 110.839C256.536 110.839 256.464 110.827 256.393 110.803C256.153 110.388 255.913 110.022 255.674 109.705C255.458 109.388 255.314 108.962 255.243 108.425C254.979 108.303 254.811 108.084 254.739 107.767C254.691 107.45 254.56 107.194 254.344 106.999C254.248 105.902 254.116 104.805 253.949 103.707C253.805 102.61 253.733 101.513 253.733 100.416C253.733 100.172 253.745 99.9282 253.769 99.6845C253.793 99.4163 253.817 99.1481 253.841 98.8798C253.793 98.7579 253.721 98.6483 253.625 98.5507C253.554 98.4288 253.494 98.3068 253.446 98.1849C252.966 98.3068 252.463 98.4288 251.936 98.5507C251.433 98.6483 250.918 98.697 250.391 98.697C250.056 98.697 249.648 98.6483 249.169 98.5507C248.69 98.4288 248.319 98.2703 248.055 98.0753C247.863 97.9534 247.732 97.7338 247.66 97.4169C247.564 97.0757 247.516 96.7831 247.516 96.5392C247.516 96.1247 247.588 95.7101 247.732 95.2958C247.875 94.857 248.067 94.479 248.307 94.162C249.481 93.6745 250.571 93.0769 251.577 92.3701C252.607 91.663 253.613 90.8948 254.596 90.0658C254.62 89.822 254.656 89.5782 254.704 89.3344C254.775 89.0906 254.811 88.8345 254.811 88.5663C254.811 88.2738 254.739 87.9934 254.596 87.7252C254.739 87.5789 254.811 87.396 254.811 87.1766C254.811 86.9328 254.871 86.7133 254.991 86.5183V86.2989C254.991 86.2013 254.979 86.1038 254.955 86.0063C254.955 85.9087 254.919 85.8112 254.847 85.7137C255.015 84.7628 255.147 83.8241 255.243 82.8976C255.338 81.9467 255.386 80.9715 255.386 79.9718C255.386 79.8987 255.422 79.7036 255.494 79.3867C255.59 79.0453 255.65 78.8137 255.674 78.6918C255.77 78.131 255.829 77.5824 255.854 77.046C255.901 76.4853 255.961 75.9245 256.033 75.3637C256.057 75.1687 254.844 75.1565 254.916 74.8395C254.988 74.5226 255.024 74.3031 255.024 74.1812C255.024 74.0106 254.988 73.9008 254.916 73.8521C254.868 73.7789 254.82 73.6692 254.772 73.5229C254.916 72.9621 256.249 72.1575 256.249 71.5968C256.273 71.0116 256.321 70.4387 256.393 69.8779C256.8 69.7072 257.123 69.5365 257.363 69.3659C257.603 69.1952 257.95 69.1099 258.405 69.1099H258.477C258.525 69.4024 258.633 69.6828 258.8 69.951C258.968 70.1948 259.136 70.4509 259.304 70.719C259.495 70.9628 259.663 71.2067 259.807 71.4505C259.95 71.6699 260.022 71.8894 260.022 72.1088C260.022 72.5233 259.986 72.9743 259.914 73.462C259.842 73.9496 259.783 74.4007 259.735 74.8151C259.615 75.9123 259.507 76.9973 259.411 78.0701C259.316 79.1185 259.172 80.1913 258.98 81.2884C259.052 81.6298 259.088 81.9467 259.088 82.2393C259.088 82.6782 259.052 83.1171 258.98 83.5559C258.908 83.9948 258.872 84.4459 258.872 84.9091C258.872 85.1285 258.884 85.3602 258.908 85.604C258.956 85.8478 259.028 86.0672 259.124 86.2623C259.938 86.0428 260.669 85.5918 261.316 84.9091C261.412 84.8116 261.508 84.6897 261.604 84.5434C261.723 84.3727 261.843 84.2386 261.963 84.1411C262.203 83.946 262.454 83.7754 262.717 83.6291C263.005 83.4584 263.281 83.2877 263.544 83.1171C264.167 82.7026 264.766 82.2759 265.341 81.837C265.94 81.3738 266.539 80.9227 267.138 80.4838C268.911 79.1672 270.624 77.8019 272.277 76.3877C273.954 74.9492 275.583 73.4376 277.164 71.8528C277.236 71.4383 277.38 71.1091 277.596 70.8653C277.811 70.6215 278.003 70.3289 278.171 69.9876C278.626 69.8169 279.021 69.5609 279.357 69.2196C279.5 69.2683 279.644 69.3049 279.788 69.3293C279.956 69.3293 280.111 69.3293 280.255 69.3293C280.423 69.3293 280.577 69.3415 280.722 69.3659C280.89 69.3659 281.033 69.4024 281.152 69.4756C281.178 69.8413 281.212 70.1705 281.261 70.463C281.309 70.7556 281.451 71.036 281.693 71.3042C281.693 71.353 281.693 71.4017 281.693 71.4505C281.716 71.4992 281.727 71.548 281.727 71.5968C281.727 71.865 281.656 72.0844 281.514 72.2551C281.369 72.4257 281.286 72.633 281.261 72.8768L279.392 74.7786C278.77 75.4125 278.195 76.0952 277.667 76.8266C277.476 76.851 277.308 76.912 277.164 77.0095C277.021 77.107 276.877 77.2167 276.733 77.3386C276.613 77.4362 276.482 77.5337 276.338 77.6312C276.194 77.7287 276.038 77.8019 275.871 77.8506C275.439 78.4358 274.948 78.9722 274.397 79.4598C273.846 79.9231 273.283 80.3741 272.708 80.813C272.133 81.2519 271.558 81.7029 270.983 82.1662C270.432 82.605 269.917 83.0927 269.438 83.6291C268.935 83.8729 268.444 84.1655 267.964 84.5068C267.509 84.8238 267.138 85.2261 266.85 85.7137H266.671C266.551 85.7137 266.455 85.7503 266.383 85.8234C266.311 85.8722 266.216 85.8966 266.096 85.8966C264.802 87.0425 263.46 88.1275 262.071 89.1515C260.681 90.1511 259.351 91.2483 258.082 92.4431V93.3573C258.489 93.6012 258.932 93.8329 259.411 94.0523C259.891 94.2472 260.358 94.4668 260.813 94.7107C261.292 94.9543 261.735 95.2226 262.143 95.5152C262.574 95.7834 262.945 96.1125 263.257 96.5027C263.304 96.4783 263.364 96.4662 263.436 96.4662C263.652 96.4662 263.82 96.5392 263.939 96.6855C264.059 96.8074 264.263 96.8439 264.55 96.7953C264.646 97.1854 264.862 97.4656 265.197 97.6365C265.533 97.8071 265.868 97.9534 266.204 98.0753C266.491 98.3679 266.754 98.6483 266.994 98.9163C267.234 99.1602 267.581 99.3187 268.036 99.3919C268.084 99.4893 268.12 99.5991 268.144 99.721C268.168 99.843 268.216 99.9525 268.288 100.05C268.743 100.196 269.174 100.404 269.582 100.672C270.013 100.94 270.432 101.22 270.839 101.513C271.247 101.781 271.654 102.049 272.061 102.318C272.492 102.561 272.948 102.757 273.427 102.903C273.499 103.147 273.631 103.317 273.822 103.415C274.038 103.512 274.206 103.659 274.325 103.854H274.972C275.044 103.976 275.14 104.098 275.26 104.219C275.379 104.317 275.463 104.463 275.511 104.658C275.703 104.707 275.919 104.78 276.158 104.878C276.398 104.951 276.613 105.048 276.805 105.17C276.877 105.244 276.925 105.329 276.949 105.426C276.997 105.524 277.069 105.609 277.164 105.682C277.308 105.804 277.524 105.902 277.811 105.975C278.123 106.024 278.386 106.109 278.602 106.231C279.033 106.475 279.453 106.743 279.86 107.036C280.267 107.352 280.697 107.645 281.152 107.913L282.555 108.681C282.795 108.803 283.011 108.937 283.202 109.084C283.418 109.23 283.632 109.364 283.848 109.486C284.28 109.681 284.736 109.803 285.214 109.852C285.718 109.925 286.173 110.059 286.58 110.254C286.7 110.327 286.783 110.412 286.831 110.51C286.879 110.632 286.962 110.729 287.082 110.803C287.275 110.924 287.574 111.01 287.981 111.058C288.388 111.107 288.724 111.192 288.989 111.314C289.322 111.461 289.646 111.595 289.957 111.717C290.293 111.863 290.628 112.034 290.964 112.229C291.682 112.278 292.39 112.363 293.085 112.485C293.802 112.607 294.511 112.729 295.205 112.851C295.9 112.972 296.595 113.082 297.289 113.18C298.007 113.277 298.727 113.314 299.444 113.289C299.444 113.338 299.47 113.362 299.518 113.362C299.589 113.387 299.649 113.399 299.697 113.399C299.865 113.667 300.008 113.935 300.127 114.204C300.247 114.472 300.307 114.752 300.307 115.045Z" fill="black"/>
</g>
</g>
<defs>
<clipPath id="clip0_244_8">
<rect width="230" height="49.1532" fill="white" transform="translate(50 68)"/>
</clipPath>
</defs>
</svg>
