<svg width="100" height="21" viewBox="0 0 100 21" fill="none" xmlns="http://www.w3.org/2000/svg">
<g clip-path="url(#clip0_231_60)">
<path d="M17.5 7.42708C17.5 7.59375 17.4688 7.76562 17.4062 7.94271C17.3542 8.11979 17.2865 8.28125 17.2031 8.42708C17.0677 8.44792 16.9427 8.49479 16.8281 8.56771C16.724 8.64062 16.6406 8.6875 16.5781 8.70833C16.4427 8.72917 16.2812 8.73958 16.0938 8.73958C15.9167 8.72917 15.7552 8.72917 15.6094 8.73958C15.3281 8.76042 15.0469 8.79167 14.7656 8.83333C14.4948 8.875 14.224 8.92708 13.9531 8.98958C13.9323 8.98958 13.9115 8.99479 13.8906 9.00521C13.8698 9.00521 13.8594 9.01562 13.8594 9.03646C13.8594 9.05729 13.8646 9.07812 13.875 9.09896C13.8854 9.11979 13.8906 9.14062 13.8906 9.16146C13.8906 9.19271 13.8594 9.20833 13.7969 9.20833C13.6823 9.20833 13.6042 9.17188 13.5625 9.09896C13.2292 9.18229 12.8958 9.27083 12.5625 9.36458C12.2292 9.44792 11.8958 9.53125 11.5625 9.61458C11.3958 9.64583 11.2292 9.67708 11.0625 9.70833C10.9062 9.73958 10.7448 9.78125 10.5781 9.83333C10.4948 9.85417 10.4115 9.89062 10.3281 9.94271L10.0781 10.099C10.026 10.0885 9.97917 10.0833 9.9375 10.0833C9.89583 10.0729 9.85417 10.0677 9.8125 10.0677C9.63542 10.0677 9.44792 10.1042 9.25 10.1771C9.05208 10.2396 8.88021 10.3281 8.73438 10.4427H8.625C8.52083 10.4427 8.44792 10.4271 8.40625 10.3958C8.3125 10.3854 8.25521 10.4167 8.23438 10.4896C8.21354 10.5521 8.17708 10.6094 8.125 10.6615C7.77083 10.6927 7.42188 10.7552 7.07812 10.849C6.73438 10.9427 6.39583 11.0469 6.0625 11.1615C5.72917 11.2656 5.39062 11.375 5.04688 11.4896C4.71354 11.5938 4.375 11.6771 4.03125 11.7396C3.98958 11.9479 3.96875 12.1875 3.96875 12.4583C3.96875 12.6667 3.98438 12.9062 4.01562 13.1771C4.05729 13.4479 4.14062 13.6771 4.26562 13.8646V13.8958C4.26562 13.9479 4.24479 13.9844 4.20312 14.0052C4.16146 14.026 4.14062 14.0625 4.14062 14.1146C4.14062 14.3854 4.16667 14.6406 4.21875 14.8802C4.28125 15.1198 4.34375 15.3542 4.40625 15.5833C4.46875 15.8125 4.52604 16.0417 4.57812 16.2708C4.64062 16.5 4.67188 16.7344 4.67188 16.974C4.67188 17.0365 4.66667 17.0938 4.65625 17.1458C4.65625 17.2083 4.65104 17.2708 4.64062 17.3333C4.67188 17.4271 4.72396 17.5052 4.79688 17.5677C4.86979 17.6302 4.93229 17.7031 4.98438 17.7865C4.99479 17.8385 5 17.8854 5 17.9271V18.0833C5 18.2604 4.97917 18.4167 4.9375 18.5521C4.89583 18.6875 4.84375 18.8125 4.78125 18.9271C4.71875 19.0521 4.65104 19.1719 4.57812 19.2865C4.50521 19.4115 4.4375 19.5469 4.375 19.6927C4.27083 19.7135 4.1875 19.724 4.125 19.724C3.96875 19.724 3.83854 19.6823 3.73438 19.599C3.64062 19.5156 3.55729 19.4115 3.48438 19.2865C3.41146 19.1719 3.33854 19.0521 3.26562 18.9271C3.20312 18.8021 3.125 18.6979 3.03125 18.6146C3.04167 18.5625 3.04688 18.5156 3.04688 18.474C3.05729 18.4323 3.0625 18.3854 3.0625 18.3333C3.0625 18.125 3.02604 17.9219 2.95312 17.724C2.89062 17.526 2.81771 17.3385 2.73438 17.1615C2.72396 16.8073 2.6875 16.4583 2.625 16.1146C2.5625 15.7708 2.47396 15.4323 2.35938 15.099C2.38021 14.974 2.39583 14.8542 2.40625 14.7396C2.41667 14.6146 2.42188 14.4948 2.42188 14.3802C2.42188 14.0781 2.40625 13.776 2.375 13.474C2.34375 13.1719 2.33854 12.8698 2.35938 12.5677C2.32812 12.5156 2.29688 12.474 2.26562 12.4427C2.23438 12.401 2.20833 12.3542 2.1875 12.3021H2.125C1.96875 12.3021 1.81771 12.3177 1.67188 12.349C1.52604 12.3698 1.38021 12.3802 1.23438 12.3802C1.18229 12.3802 1.13542 12.3802 1.09375 12.3802C1.05208 12.3698 0.411458 12.401 0.359375 12.3906C0.244792 12.276 0.15625 12.1458 0.09375 12C0.03125 11.8542 0 11.7031 0 11.5469C0 11.3177 0.0625 11.1094 0.1875 10.9219C0.447917 10.8594 1.29688 10.7448 1.54688 10.6615C1.80729 10.5677 2.05729 10.4583 2.29688 10.3333C2.32812 10.1771 2.34375 10.0208 2.34375 9.86458C2.35417 9.70833 2.41146 9.5625 2.51562 9.42708C2.48438 9.34375 2.43229 9.27083 2.35938 9.20833C2.29688 9.13542 2.26562 9.05208 2.26562 8.95833C2.26562 8.90625 2.27604 8.83854 2.29688 8.75521C2.40104 8.64062 2.47396 8.49479 2.51562 8.31771C2.55729 8.14062 2.59375 7.95312 2.625 7.75521C2.65625 7.55729 2.6875 7.35938 2.71875 7.16146C2.76042 6.96354 2.82812 6.78646 2.92188 6.63021C2.90104 6.54688 2.88542 6.45833 2.875 6.36458C2.86458 6.26042 2.85938 6.16667 2.85938 6.08333C2.85938 5.95833 2.86458 5.83333 2.875 5.70833C2.89583 5.57292 2.92708 5.44792 2.96875 5.33333C2.85417 5.19792 2.76042 5.04167 2.6875 4.86458C2.61458 4.67708 2.57812 4.49479 2.57812 4.31771C2.57812 3.97396 2.74479 3.75521 3.07812 3.66146C3.06771 3.61979 3.05729 3.58333 3.04688 3.55208C3.04688 3.52083 3.04688 3.48958 3.04688 3.45833C3.04688 3.36458 3.07292 3.27604 3.125 3.19271C3.17708 3.10938 3.21875 3.02604 3.25 2.94271C3.19792 2.80729 3.17188 2.69271 3.17188 2.59896C3.17188 2.51562 3.1875 2.44271 3.21875 2.38021C3.25 2.30729 3.27604 2.22917 3.29688 2.14583C3.32812 2.04167 3.34896 1.94792 3.35938 1.86458C3.38021 1.78125 3.41146 1.70833 3.45312 1.64583C3.49479 1.58333 3.54688 1.53646 3.60938 1.50521C3.68229 1.47396 3.79167 1.45833 3.9375 1.45833C4.16667 1.45833 4.38542 1.53125 4.59375 1.67708C4.8125 1.8125 4.97917 1.96875 5.09375 2.14583C5.20833 2.13542 5.30729 2.11458 5.39062 2.08333C5.48438 2.04167 5.56771 2.00521 5.64062 1.97396C5.72396 1.94271 5.80729 1.91667 5.89062 1.89583C5.98438 1.86458 6.09375 1.85417 6.21875 1.86458C6.25 1.79167 6.30208 1.74479 6.375 1.72396C6.45833 1.69271 6.54167 1.67188 6.625 1.66146C6.70833 1.64062 6.78646 1.61458 6.85938 1.58333C6.93229 1.55208 6.97917 1.49479 7 1.41146C7.04167 1.44271 7.08854 1.45833 7.14062 1.45833C7.19271 1.45833 7.24479 1.45312 7.29688 1.44271C7.34896 1.42188 7.40625 1.41146 7.46875 1.41146C7.53125 1.41146 7.58333 1.43229 7.625 1.47396C7.89583 1.32812 8.18229 1.22396 8.48438 1.16146C8.79688 1.08854 9.10417 1.04688 9.40625 1.03646C10.125 0.640625 10.8802 0.369792 11.6719 0.223958C12.474 0.078125 13.276 0.00520833 14.0781 0.00520833C14.1927 0.00520833 14.3021 0.00520833 14.4062 0.00520833C14.5208 -0.00520833 14.6302 0 14.7344 0.0208333C14.849 0.0416667 14.974 0.078125 15.1094 0.130208C15.2552 0.182292 15.3958 0.244792 15.5312 0.317708C15.6771 0.390625 15.8125 0.473958 15.9375 0.567708C16.0625 0.651042 16.1667 0.729167 16.25 0.802083C16.3333 0.989583 16.375 1.17188 16.375 1.34896C16.375 1.43229 16.3698 1.51562 16.3594 1.59896C16.349 1.67188 16.3438 1.75 16.3438 1.83333C16.3438 1.95833 16.3698 2.09896 16.4219 2.25521C16.3906 2.24479 16.3385 2.23958 16.2656 2.23958C16.1719 2.23958 16.0938 2.26042 16.0312 2.30208C15.9688 2.34375 15.9115 2.39062 15.8594 2.44271C15.8073 2.49479 15.7552 2.54167 15.7031 2.58333C15.6615 2.625 15.6198 2.64583 15.5781 2.64583C15.4948 2.64583 15.4219 2.63021 15.3594 2.59896C15.3073 2.56771 15.25 2.53646 15.1875 2.50521C15.1354 2.46354 15.0781 2.43229 15.0156 2.41146C14.9531 2.38021 14.8802 2.36979 14.7969 2.38021V2.31771C14.7969 2.20312 14.7604 2.13021 14.6875 2.09896C14.6146 2.05729 14.5573 2 14.5156 1.92708C14.3594 1.91667 14.2031 1.89583 14.0469 1.86458C13.901 1.83333 13.75 1.81771 13.5938 1.81771C13.3854 1.81771 13.224 1.89062 13.1094 2.03646C13.0573 2.01562 13.0104 1.98958 12.9688 1.95833C12.9375 1.92708 12.8906 1.91667 12.8281 1.92708H12.7812C12.2188 1.92708 11.6667 1.98958 11.125 2.11458C10.5833 2.22917 10.0469 2.375 9.51562 2.55208C8.98438 2.71875 8.45312 2.90104 7.92188 3.09896C7.39062 3.29688 6.85938 3.46875 6.32812 3.61458C6.20312 3.78125 6.07292 3.90625 5.9375 3.98958C5.80208 4.0625 5.66667 4.125 5.53125 4.17708C5.40625 4.22917 5.28125 4.28125 5.15625 4.33333C5.03125 4.38542 4.92188 4.46875 4.82812 4.58333C4.74479 4.69792 4.67708 4.85938 4.625 5.06771C4.58333 5.26562 4.57292 5.54167 4.59375 5.89583C4.54167 5.95833 4.51042 6.02604 4.5 6.09896C4.48958 6.17188 4.47917 6.24479 4.46875 6.31771C4.45833 6.38021 4.44271 6.44271 4.42188 6.50521C4.40104 6.56771 4.36458 6.625 4.3125 6.67708C4.33333 6.78125 4.34896 6.88542 4.35938 6.98958C4.36979 7.09375 4.375 7.19792 4.375 7.30208C4.375 7.73958 4.30208 8.16667 4.15625 8.58333C4.20833 8.66667 4.23438 8.76042 4.23438 8.86458C4.23438 8.97917 4.21875 9.08333 4.1875 9.17708C4.15625 9.27083 4.14062 9.375 4.14062 9.48958C4.14062 9.60417 4.16146 9.69792 4.20312 9.77083C4.26562 9.77083 4.30208 9.79167 4.3125 9.83333H4.40625C4.59375 9.83333 4.75521 9.78646 4.89062 9.69271C5.02604 9.59896 5.17188 9.55208 5.32812 9.55208C5.35938 9.55208 5.39583 9.5625 5.4375 9.58333C5.47917 9.60417 5.51562 9.61458 5.54688 9.61458C5.61979 9.61458 5.65104 9.58854 5.64062 9.53646C5.63021 9.48438 5.65625 9.44792 5.71875 9.42708L6.28125 9.33333C6.63542 9.27083 6.96875 9.19792 7.28125 9.11458C7.60417 9.02083 7.92188 8.88542 8.23438 8.70833C8.30729 8.73958 8.39062 8.75521 8.48438 8.75521C8.56771 8.75521 8.65625 8.74479 8.75 8.72396C8.84375 8.69271 8.93229 8.67708 9.01562 8.67708C9.08854 8.67708 9.14583 8.6875 9.1875 8.70833C9.25 8.66667 9.32812 8.63542 9.42188 8.61458C9.51562 8.58333 9.56771 8.52083 9.57812 8.42708H9.60938C9.65104 8.42708 9.68229 8.4375 9.70312 8.45833C9.72396 8.47917 9.75521 8.48958 9.79688 8.48958H9.85938C10.0781 8.38542 10.276 8.30729 10.4531 8.25521C10.7448 8.18229 11.0573 8.11979 11.3906 8.06771C11.724 8.00521 12.0208 7.90104 12.2812 7.75521C12.5833 7.75521 12.875 7.70833 13.1562 7.61458C13.4479 7.51042 13.7396 7.45833 14.0312 7.45833C14.1667 7.45833 14.2917 7.47917 14.4062 7.52083C14.5104 7.44792 14.6302 7.39583 14.7656 7.36458C14.9115 7.33333 15.0312 7.27604 15.125 7.19271C15.1875 7.20312 15.25 7.21354 15.3125 7.22396C15.3854 7.22396 15.4583 7.22396 15.5312 7.22396C15.8438 7.22396 16.1406 7.18229 16.4219 7.09896C16.7135 7.00521 17.0104 6.9375 17.3125 6.89583C17.3854 6.97917 17.4323 7.06771 17.4531 7.16146C17.4844 7.24479 17.5 7.33333 17.5 7.42708Z" fill="black"/>
<path d="M26.2724 15.4585C26.2411 15.6044 26.1734 15.7242 26.0693 15.8179C25.9755 15.9012 25.8609 15.969 25.7255 16.021C25.5901 16.0731 25.4495 16.1096 25.3036 16.1304C25.1682 16.1408 25.0432 16.146 24.9286 16.146C24.8766 16.146 24.8245 16.146 24.7724 16.146C24.7307 16.1356 24.6839 16.1304 24.6318 16.1304C24.5797 16.1304 24.5536 16.1564 24.5536 16.2085C24.5536 16.2606 24.5276 16.2971 24.4755 16.3179C24.4234 16.2971 24.3714 16.2814 24.3193 16.271C24.2672 16.2606 24.2151 16.2554 24.163 16.2554C24.0901 16.2554 24.0172 16.2606 23.9443 16.271C23.8818 16.2814 23.8193 16.2867 23.7568 16.2867C23.6734 16.2867 23.6109 16.2762 23.5693 16.2554C23.538 16.2346 23.5068 16.2137 23.4755 16.1929C23.4547 16.1617 23.4286 16.1304 23.3974 16.0992C23.3766 16.0679 23.3401 16.0419 23.288 16.021C23.2151 15.9898 23.1526 15.9846 23.1005 16.0054C23.0589 16.0262 22.9911 15.995 22.8974 15.9117C22.7724 15.8075 22.663 15.6825 22.5693 15.5367C22.4859 15.3804 22.4026 15.219 22.3193 15.0523C22.2359 14.8856 22.1474 14.719 22.0536 14.5523C21.9599 14.3856 21.8505 14.2398 21.7255 14.1148H21.6005C21.413 14.1148 21.2828 14.1929 21.2099 14.3492C21.1578 14.3179 21.1057 14.2814 21.0536 14.2398C21.0016 14.1877 20.9443 14.146 20.8818 14.1148C20.6422 14.1877 20.3922 14.2502 20.1318 14.3023C19.8714 14.3544 19.6109 14.3804 19.3505 14.3804H19.1318C19.0693 14.3804 19.0016 14.37 18.9286 14.3492C18.8245 14.3908 18.7307 14.4429 18.6474 14.5054C18.5641 14.5575 18.4703 14.5835 18.3661 14.5835C18.3036 14.5835 18.2307 14.5627 18.1474 14.521C18.0849 14.521 18.0536 14.5471 18.0536 14.5992C18.0641 14.6512 18.0328 14.6773 17.9599 14.6773H17.8193C17.6734 14.6773 17.5276 14.6825 17.3818 14.6929C17.2464 14.7033 17.1057 14.7085 16.9599 14.7085C16.762 14.7085 16.5589 14.6825 16.3505 14.6304C16.2984 14.6617 16.2411 14.6773 16.1786 14.6773C16.137 14.6981 16.1057 14.7346 16.0849 14.7867C16.0641 14.8283 16.0432 14.87 16.0224 14.9117C16.0016 14.9429 15.9703 14.9742 15.9287 15.0054C15.8974 15.0262 15.8505 15.0314 15.788 15.021C15.7672 15.146 15.7151 15.245 15.6318 15.3179C15.5484 15.3908 15.5068 15.5002 15.5068 15.646C15.3922 15.7085 15.2984 15.7867 15.2255 15.8804C15.1526 15.9742 15.0797 16.0731 15.0068 16.1773C14.9339 16.2814 14.8557 16.3804 14.7724 16.4742C14.6995 16.5679 14.6057 16.6408 14.4912 16.6929C14.4391 16.7554 14.4234 16.8544 14.4443 16.9898C14.3297 17.0835 14.1891 17.1669 14.0224 17.2398C13.8557 17.3127 13.6995 17.3492 13.5537 17.3492C13.2516 17.3492 13.0432 17.1877 12.9287 16.8648C12.9287 16.7606 12.9391 16.6512 12.9599 16.5367C12.9703 16.4117 12.9912 16.2971 13.0224 16.1929C13.0537 16.0783 13.1005 15.9794 13.163 15.896C13.2255 15.8023 13.3141 15.7346 13.4287 15.6929C13.4287 15.5992 13.3974 15.5367 13.3349 15.5054C13.2724 15.4637 13.2464 15.396 13.2568 15.3023C13.538 15.1669 13.7828 14.9898 13.9912 14.771C14.1995 14.5523 14.387 14.3231 14.5537 14.0835C14.7307 13.8335 14.9078 13.5835 15.0849 13.3335C15.262 13.0835 15.4599 12.8596 15.6787 12.6617V12.3335C15.9912 12.0002 16.1943 11.6252 16.288 11.2085C16.4026 11.1877 16.4755 11.1356 16.5068 11.0523C16.5484 10.969 16.5693 10.87 16.5693 10.7554C16.6214 10.7554 16.6526 10.7346 16.663 10.6929C16.6839 10.6408 16.7307 10.6252 16.8036 10.646C16.8974 10.396 17.0016 10.1669 17.1161 9.95849C17.2307 9.75016 17.3453 9.54183 17.4599 9.33349C17.5745 9.11474 17.6734 8.89078 17.7568 8.66162C17.8505 8.43245 17.9182 8.17724 17.9599 7.89599C18.1057 7.88558 18.1839 7.81787 18.1943 7.69287C18.2151 7.55745 18.2359 7.43766 18.2568 7.33349C18.413 7.18766 18.5276 7.01578 18.6005 6.81787C18.6839 6.61995 18.7568 6.41683 18.8193 6.20849C18.8818 5.98974 18.9495 5.7762 19.0224 5.56787C19.1057 5.34912 18.9859 4.81266 19.1318 4.64599V4.59912C19.1318 4.54704 19.1109 4.51578 19.0693 4.50537C19.0276 4.48454 19.0068 4.44808 19.0068 4.39599C19.0172 4.38558 19.0224 4.37516 19.0224 4.36474C19.1474 4.31266 19.2411 4.22933 19.3036 4.11474C19.3661 3.98974 19.4599 3.9012 19.5849 3.84912C19.8036 4.0262 20.2307 4.47933 20.3974 4.52099C20.5641 4.55224 20.7828 4.57828 21.0536 4.59912C21.1891 4.74495 21.262 4.92204 21.2724 5.13037C21.2932 5.32828 21.3297 5.5262 21.3818 5.72412C21.4651 6.05745 21.5536 6.38558 21.6474 6.70849C21.7516 7.02099 21.8297 7.34391 21.8818 7.67724C21.913 7.87516 21.9703 8.06266 22.0536 8.23974C22.137 8.41683 22.1943 8.59912 22.2255 8.78662C22.2464 8.93245 22.2464 9.09912 22.2255 9.28662C22.2047 9.4637 22.2255 9.61995 22.288 9.75537L22.3974 10.0054C22.4495 10.12 22.4911 10.2398 22.5224 10.3648C22.5641 10.4898 22.6005 10.6148 22.6318 10.7398C22.7151 11.0523 22.788 11.3908 22.8505 11.7554C22.9234 12.1096 23.0328 12.4325 23.1786 12.7242C23.2307 12.8283 23.3089 12.9012 23.413 12.9429C23.5276 12.9846 23.6526 13.0158 23.788 13.0367C23.9234 13.0471 24.0536 13.0523 24.1786 13.0523C24.3141 13.0419 24.4286 13.0367 24.5224 13.0367H24.6786C24.7411 13.0367 24.8036 13.0471 24.8661 13.0679C24.9078 13.1512 24.9286 13.2242 24.9286 13.2867C24.9286 13.4117 24.887 13.5106 24.8036 13.5835C24.7203 13.6564 24.6786 13.7398 24.6786 13.8335C24.6786 13.8856 24.6995 13.9429 24.7411 14.0054C24.6995 13.995 24.637 13.9898 24.5536 13.9898C24.3141 13.9898 24.0797 14.0314 23.8505 14.1148C23.9339 14.2919 24.0432 14.4429 24.1786 14.5679C24.3245 14.6825 24.4755 14.7919 24.6318 14.896C24.7359 14.8127 24.8453 14.771 24.9599 14.771C25.0849 14.771 25.1995 14.8023 25.3036 14.8648C25.4182 14.9169 25.538 14.9429 25.663 14.9429C25.7568 14.9429 25.8245 14.9273 25.8661 14.896C25.9495 14.9898 26.0172 15.0887 26.0693 15.1929C26.1214 15.2867 26.1891 15.3752 26.2724 15.4585ZM21.3818 12.9585C21.3609 12.7814 21.3245 12.6564 21.2724 12.5835C21.2307 12.5002 21.1943 12.4012 21.163 12.2867C21.1214 12.1408 21.0901 11.9846 21.0693 11.8179C21.0589 11.6512 21.038 11.4898 21.0068 11.3335C20.9339 10.9794 20.8505 10.6252 20.7568 10.271C20.6734 9.91683 20.5641 9.57308 20.4286 9.23974C20.4703 9.17724 20.4911 9.11995 20.4911 9.06787V9.02099C20.3974 8.91683 20.3297 8.79183 20.288 8.64599C20.2464 8.48974 20.2047 8.3387 20.163 8.19287C20.1318 8.03662 20.0849 7.89599 20.0224 7.77099C19.9703 7.63558 19.8818 7.5262 19.7568 7.44287C19.7255 7.50537 19.7099 7.57828 19.7099 7.66162C19.7099 7.73454 19.7151 7.80224 19.7255 7.86474C19.7464 7.92724 19.7568 7.99495 19.7568 8.06787C19.6526 8.11995 19.5745 8.20328 19.5224 8.31787C19.4807 8.42204 19.4078 8.50537 19.3036 8.56787C19.2203 8.9012 19.1005 9.21891 18.9443 9.52099C18.788 9.81266 18.6214 10.1044 18.4443 10.396C18.2776 10.6877 18.1161 10.9846 17.9599 11.2867C17.8036 11.5783 17.6786 11.8856 17.5849 12.2085C17.4495 12.3023 17.3557 12.4221 17.3036 12.5679C17.262 12.7137 17.2411 12.8596 17.2411 13.0054C17.3349 13.0575 17.4391 13.0887 17.5536 13.0992C17.6786 13.0992 17.7984 13.0992 17.913 13.0992C18.0276 13.0992 18.137 13.1096 18.2411 13.1304C18.3453 13.1512 18.4391 13.2033 18.5224 13.2867C18.6578 13.245 18.8036 13.219 18.9599 13.2085C19.1266 13.1877 19.262 13.1408 19.3661 13.0679C19.5745 13.1408 19.7984 13.1773 20.038 13.1773C20.163 13.1773 20.2828 13.1669 20.3974 13.146C20.5224 13.1252 20.6422 13.0992 20.7568 13.0679C20.8505 13.0887 20.9234 13.1252 20.9755 13.1773C21.0276 13.219 21.1057 13.2346 21.2099 13.2242C21.262 13.1825 21.2932 13.1408 21.3036 13.0992C21.3141 13.0471 21.3401 13.0002 21.3818 12.9585Z" fill="black"/>
<path d="M36.2636 6.3335C36.2428 6.4585 36.2116 6.56788 36.1699 6.66163C36.1386 6.74496 36.1334 6.85955 36.1543 7.00538C36.0501 7.01579 35.9668 7.05225 35.9043 7.11475C35.8522 7.16684 35.8053 7.22934 35.7636 7.30225C35.7324 7.37517 35.6959 7.45329 35.6543 7.53663C35.623 7.60955 35.5814 7.67725 35.5293 7.73975C35.6126 8.11475 35.6595 8.49496 35.6699 8.88038C35.6803 9.26579 35.7064 9.646 35.748 10.021C35.8001 10.5002 35.8782 10.9742 35.9824 11.4429C36.097 11.9012 36.1543 12.37 36.1543 12.8492C36.1543 12.995 36.1491 13.1304 36.1386 13.2554C36.1386 13.3804 36.1386 13.5106 36.1386 13.646C36.1386 13.7294 36.1386 13.8179 36.1386 13.9117C36.1491 13.995 36.1543 14.0783 36.1543 14.1617C36.1543 14.4637 36.1126 14.7658 36.0293 15.0679C35.9564 15.37 35.8991 15.6721 35.8574 15.9742C35.7324 16.0887 35.623 16.2137 35.5293 16.3492C35.4459 16.4846 35.3574 16.6096 35.2636 16.7242C35.1699 16.8387 35.0605 16.9377 34.9355 17.021C34.8105 17.1148 34.6543 17.1773 34.4668 17.2085C34.4355 17.3127 34.373 17.3908 34.2793 17.4429C34.1959 17.495 34.123 17.5679 34.0605 17.6617H34.0293C33.7689 17.6617 33.5449 17.6252 33.3574 17.5523C33.1699 17.4794 32.9928 17.396 32.8261 17.3023C32.6699 17.2085 32.5084 17.1096 32.3418 17.0054C32.1751 16.9012 31.9824 16.8179 31.7637 16.7554C31.472 16.5158 31.2064 16.2554 30.9668 15.9742C30.7272 15.6825 30.4564 15.4221 30.1543 15.1929C30.0814 14.9846 29.9824 14.8127 29.8574 14.6773C29.7428 14.5419 29.6282 14.3856 29.5137 14.2085C29.4616 14.1356 29.4199 14.0679 29.3887 14.0054C29.3678 13.9429 29.3366 13.87 29.2949 13.7867C29.2637 13.7033 29.2116 13.646 29.1387 13.6148C29.0762 13.5835 29.0189 13.5471 28.9668 13.5054C28.8834 13.1825 28.7637 12.8856 28.6074 12.6148C28.4512 12.344 28.2689 12.0835 28.0605 11.8335C27.998 11.9481 27.9459 12.0731 27.9043 12.2085C27.873 12.3335 27.8418 12.4637 27.8105 12.5992C27.7793 12.7242 27.7376 12.8544 27.6855 12.9898C27.6439 13.1148 27.5866 13.2294 27.5137 13.3335V13.3804C27.5137 13.4325 27.5345 13.4637 27.5762 13.4742C27.6178 13.4846 27.6387 13.5158 27.6387 13.5679C27.6387 13.5783 27.6334 13.5887 27.623 13.5992C27.623 13.6096 27.623 13.62 27.623 13.6304C27.5709 13.6721 27.5293 13.7242 27.498 13.7867C27.4772 13.8492 27.4251 13.8856 27.3418 13.896C27.3522 13.9481 27.3574 14.0002 27.3574 14.0523V14.1929C27.3574 14.495 27.3209 14.7971 27.248 15.0992C27.1855 15.4012 27.1543 15.7085 27.1543 16.021V16.2242C27.1543 16.2971 27.1595 16.3648 27.1699 16.4273C27.1907 16.4898 27.222 16.5523 27.2637 16.6148C27.3053 16.6773 27.7637 17.0396 27.7637 17.0917C27.7637 17.1646 27.7324 17.2323 27.6699 17.2948C27.7428 17.3469 27.8262 17.4042 27.9199 17.4667C28.0137 17.5292 28.097 17.5969 28.1699 17.6698C28.2532 17.7531 28.3209 17.8365 28.373 17.9198C28.4251 18.0135 28.4512 18.1125 28.4512 18.2167C28.4512 18.3938 28.3939 18.5188 28.2793 18.5917C28.1647 18.6646 28.0241 18.7219 27.8574 18.7635C27.7012 18.8052 27.5345 18.8417 27.3574 18.8729C27.1907 18.9146 26.6126 18.6773 26.498 18.771H26.4512C26.3262 18.771 26.2324 18.7346 26.1699 18.6617C26.1074 18.5887 26.0137 18.5523 25.8887 18.5523C25.6907 18.2294 25.5553 17.8648 25.4824 17.4585C25.4095 17.0627 25.373 16.6825 25.373 16.3179C25.373 15.87 25.4147 15.4221 25.498 14.9742C25.5709 14.5262 25.6647 14.0835 25.7793 13.646C25.8834 13.2085 25.998 12.7762 26.123 12.3492C26.2584 11.9117 26.3834 11.4742 26.498 11.0367L26.5137 10.9898C26.5137 10.9377 26.498 10.9012 26.4668 10.8804C26.4459 10.8596 26.4355 10.8283 26.4355 10.7867C26.4355 10.7658 26.4407 10.7554 26.4512 10.7554C26.4824 10.6512 26.5137 10.5523 26.5449 10.4585C26.5866 10.3648 26.6178 10.2606 26.6387 10.146C26.7012 9.85434 26.7428 9.55746 26.7637 9.25538C26.7949 8.94288 26.8105 8.63559 26.8105 8.3335C26.8209 8.03142 26.8314 7.72934 26.8418 7.42725C26.8626 7.11475 26.8991 6.80746 26.9512 6.50538C27.0345 6.42205 27.1126 6.3335 27.1855 6.23975C27.2584 6.146 27.3522 6.06267 27.4668 5.98975C27.6751 6.00017 27.8834 6.03142 28.0918 6.0835C28.3001 6.13559 28.498 6.21892 28.6855 6.3335C28.8105 6.78142 28.8939 7.22934 28.9355 7.67725C28.9876 8.12517 29.0709 8.57309 29.1855 9.021V9.06788C29.1855 9.11996 29.2116 9.146 29.2637 9.146C29.3262 9.13559 29.373 9.15121 29.4043 9.19288C29.3834 9.22413 29.3678 9.26059 29.3574 9.30225C29.3574 9.34392 29.3574 9.38559 29.3574 9.42725V9.69288C29.3782 9.77621 29.4043 9.86475 29.4355 9.9585C29.4668 10.0523 29.5345 10.1096 29.6387 10.1304C29.6907 10.4637 29.7689 10.771 29.873 11.0523C29.9772 11.3335 30.097 11.6044 30.2324 11.8648C30.3678 12.1252 30.5137 12.3856 30.6699 12.646C30.8262 12.896 30.9876 13.1617 31.1543 13.4429C31.4147 13.6408 31.6387 13.87 31.8262 14.1304C32.0136 14.3804 32.2011 14.6252 32.3886 14.8648C32.5866 15.094 32.8053 15.2971 33.0449 15.4742C33.2949 15.6512 33.6178 15.7606 34.0136 15.8023C34.0657 15.7606 34.1022 15.7033 34.123 15.6304L34.2011 15.4117C34.2324 15.3387 34.2636 15.2762 34.2949 15.2242C34.3366 15.1617 34.3939 15.1148 34.4668 15.0835C34.4876 14.7919 34.5084 14.495 34.5293 14.1929C34.5605 13.8908 34.6282 13.6044 34.7324 13.3335C34.6803 13.2398 34.6543 13.1252 34.6543 12.9898C34.6543 12.8856 34.6595 12.7867 34.6699 12.6929C34.6907 12.5992 34.7011 12.5054 34.7011 12.4117C34.7011 12.2137 34.6595 12.0523 34.5761 11.9273C34.5761 11.8544 34.5814 11.7814 34.5918 11.7085C34.6022 11.6252 34.6334 11.5471 34.6855 11.4742C34.6022 11.2658 34.5345 11.0471 34.4824 10.8179C34.4407 10.5887 34.4199 10.3544 34.4199 10.1148C34.4199 9.97934 34.4355 9.83871 34.4668 9.69288C34.4043 9.53663 34.3626 9.35434 34.3418 9.146L34.2793 8.50538C34.2584 8.28663 34.2272 8.0835 34.1855 7.896C34.1439 7.7085 34.0657 7.55746 33.9511 7.44288C34.0136 7.34913 34.0449 7.23975 34.0449 7.11475C34.0449 6.90642 34.0136 6.7085 33.9511 6.521C33.8886 6.3335 33.8574 6.13559 33.8574 5.92725C33.8574 5.78142 33.8886 5.63559 33.9511 5.48975C34.1803 5.50017 34.4043 5.52621 34.623 5.56788C34.8522 5.59913 35.0761 5.61475 35.2949 5.61475C35.3574 5.69809 35.4303 5.76579 35.5136 5.81788C35.597 5.86996 35.6855 5.92205 35.7793 5.97413C35.873 6.01579 35.9616 6.06267 36.0449 6.11475C36.1386 6.16684 36.2116 6.23975 36.2636 6.3335Z" fill="black"/>
<path d="M48.1612 8.896C48.1612 9.00017 48.1247 9.06788 48.0518 9.09913C47.9789 9.13038 47.9424 9.19288 47.9424 9.28663C47.9424 9.31788 47.9528 9.34392 47.9737 9.36475C47.9945 9.38559 48.0049 9.41684 48.0049 9.4585V9.521C47.8799 10.1252 47.6976 10.6512 47.458 11.0992C47.2289 11.5471 46.958 11.9585 46.6455 12.3335C46.333 12.7085 45.9789 13.0627 45.583 13.396C45.1976 13.7294 44.7809 14.0783 44.333 14.4429C44.208 14.5471 44.0778 14.6512 43.9424 14.7554C43.8174 14.8596 43.6976 14.969 43.583 15.0835L43.2393 15.4117C43.2289 15.4221 43.1716 15.4481 43.0674 15.4898C42.9632 15.521 42.9007 15.5419 42.8799 15.5523C42.7341 15.6148 42.5778 15.6877 42.4112 15.771C42.2549 15.8544 42.1195 15.9585 42.0049 16.0835C41.7966 16.0835 41.6195 16.1148 41.4737 16.1773C41.3278 16.2398 41.1664 16.3231 40.9893 16.4273C40.9372 16.4273 40.8903 16.4169 40.8487 16.396C40.8174 16.3752 40.7809 16.3544 40.7393 16.3335C40.6976 16.3127 40.6507 16.3023 40.5987 16.3023C40.557 16.2919 40.4997 16.2971 40.4268 16.3179C40.3018 16.1096 40.1664 15.9325 40.0205 15.7867C39.8747 15.6408 39.6768 15.5523 39.4268 15.521C39.3955 15.344 39.3226 15.2085 39.208 15.1148C39.0934 15.0106 38.9789 14.9012 38.8643 14.7867C38.8434 14.7242 38.8278 14.6512 38.8174 14.5679C38.807 14.4846 38.7862 14.4064 38.7549 14.3335C38.7237 14.2606 38.682 14.1981 38.6299 14.146C38.5778 14.094 38.5049 14.0679 38.4112 14.0679C38.4007 14.0054 38.4268 13.9742 38.4893 13.9742C38.5518 13.9742 38.583 13.9481 38.583 13.896C38.583 13.8335 38.5726 13.771 38.5518 13.7085C38.5309 13.646 38.5205 13.5783 38.5205 13.5054C38.5205 13.4533 38.5257 13.4064 38.5362 13.3648C38.5466 13.3231 38.5622 13.2762 38.583 13.2242C38.5518 12.9429 38.5362 12.6564 38.5362 12.3648C38.5362 11.8023 38.5726 11.2502 38.6455 10.7085C38.7289 10.1564 38.7705 9.59913 38.7705 9.03663C38.7705 8.78663 38.7549 8.53663 38.7237 8.28663C38.7028 8.03663 38.6559 7.79184 38.583 7.55225C38.3434 7.60434 38.1039 7.66684 37.8643 7.73975C37.6247 7.80225 37.4007 7.89079 37.1924 8.00538C37.0778 7.93246 36.958 7.89079 36.833 7.88038C36.6976 7.85955 36.5674 7.82829 36.4424 7.78663C36.3695 7.64079 36.333 7.48975 36.333 7.3335C36.333 7.18767 36.3591 7.04705 36.4112 6.91163L36.5674 6.50538C36.8174 6.45329 37.0674 6.37517 37.3174 6.271C37.557 6.16684 37.8018 6.07309 38.0518 5.98975C38.1351 5.96892 38.2393 5.94288 38.3643 5.91163C38.4997 5.88038 38.5934 5.85434 38.6455 5.8335C38.7184 5.80225 38.7653 5.74496 38.7862 5.66163C38.8174 5.56788 38.8591 5.48975 38.9112 5.42725H39.1768C39.2393 5.42725 39.307 5.43246 39.3799 5.44288C39.4528 5.44288 39.5205 5.4585 39.583 5.48975C39.958 5.396 40.333 5.33871 40.708 5.31788C41.083 5.28663 41.4684 5.24496 41.8643 5.19288C41.9059 5.19288 41.9684 5.18767 42.0518 5.17725L42.3174 5.13038C42.4112 5.10955 42.4945 5.09392 42.5674 5.0835C42.6507 5.06267 42.708 5.05225 42.7393 5.05225C42.7705 5.05225 42.7862 5.06788 42.7862 5.09913H43.0518C43.4997 5.09913 43.9372 5.15642 44.3643 5.271L45.6455 5.61475C45.8226 5.76059 45.9997 5.90121 46.1768 6.03663C46.3539 6.17205 46.5518 6.29184 46.7705 6.396C46.8226 6.56267 46.9007 6.69809 47.0049 6.80225C47.1195 6.896 47.2445 7.00017 47.3799 7.11475C47.432 7.25017 47.4997 7.396 47.583 7.55225C47.6768 7.69809 47.7653 7.84913 47.8487 8.00538C47.932 8.16163 48.0049 8.31788 48.0674 8.47413C48.1299 8.61996 48.1612 8.76059 48.1612 8.896ZM46.708 9.13038C46.5934 8.89079 46.4841 8.64079 46.3799 8.38038C46.2757 8.11996 46.1455 7.88559 45.9893 7.67725C45.8018 7.62517 45.6091 7.56267 45.4112 7.48975C45.2237 7.40642 45.0934 7.26579 45.0205 7.06788C44.9997 7.07829 44.9632 7.0835 44.9112 7.0835C44.8174 7.0835 44.7341 7.04705 44.6612 6.97413C44.5882 6.90121 44.5049 6.85434 44.4112 6.8335C44.3278 6.82309 44.2132 6.80746 44.0674 6.78663C43.932 6.76579 43.7862 6.75017 43.6299 6.73975C43.4737 6.72934 43.3174 6.71892 43.1612 6.7085C43.0153 6.69809 42.9007 6.69288 42.8174 6.69288C42.7341 6.69288 42.6455 6.69809 42.5518 6.7085C42.4684 6.7085 42.3799 6.71371 42.2862 6.72413C42.2028 6.72413 42.1507 6.73975 42.1299 6.771C42.1091 6.79184 42.0674 6.81267 42.0049 6.8335C41.9528 6.81267 41.8955 6.80225 41.833 6.80225H41.6455C41.4268 6.80225 41.208 6.83871 40.9893 6.91163C40.7809 6.97413 40.5726 7.06267 40.3643 7.17725V7.23975C40.3643 7.32309 40.4007 7.36996 40.4737 7.38038C40.5466 7.39079 40.5882 7.43246 40.5987 7.50538C40.5466 7.50538 40.5049 7.51059 40.4737 7.521C40.4424 7.521 40.4268 7.55746 40.4268 7.63038C40.4268 7.73455 40.4372 7.84913 40.458 7.97413C40.4893 8.09913 40.5049 8.22413 40.5049 8.34913C40.5049 8.44288 40.4945 8.55225 40.4737 8.67725C40.4528 8.80225 40.4007 8.90121 40.3174 8.97413C40.4216 9.06788 40.4737 9.19288 40.4737 9.34913C40.4737 9.45329 40.4528 9.56267 40.4112 9.67725C40.3695 9.79184 40.3174 9.89079 40.2549 9.97413C40.2341 10.4117 40.1924 10.8544 40.1299 11.3023C40.0674 11.7502 40.0362 12.1929 40.0362 12.6304C40.0362 12.8492 40.0466 13.0627 40.0674 13.271C40.0987 13.4794 40.1455 13.6877 40.208 13.896C40.3226 14.0106 40.4424 14.0992 40.5674 14.1617C40.7028 14.2242 40.8434 14.2867 40.9893 14.3492V14.396C40.9893 14.4273 40.9684 14.4585 40.9268 14.4898C40.8851 14.521 40.8643 14.5627 40.8643 14.6148C40.8643 14.6564 40.8851 14.6773 40.9268 14.6773C41.3643 14.5523 41.7757 14.4012 42.1612 14.2242C42.5466 14.0471 42.9059 13.8075 43.2393 13.5054C43.2705 13.4742 43.3018 13.4585 43.333 13.4585C43.3539 13.4585 43.3799 13.4637 43.4112 13.4742C43.4528 13.4846 43.4893 13.495 43.5205 13.5054L43.5049 13.4429C43.5049 13.3804 43.5205 13.3231 43.5518 13.271C43.5934 13.219 43.6403 13.1721 43.6924 13.1304L43.8487 12.9898C43.9007 12.9377 43.9424 12.8856 43.9737 12.8335C44.057 12.8127 44.1143 12.771 44.1455 12.7085C44.1872 12.646 44.2549 12.6148 44.3487 12.6148C44.3695 12.5002 44.4268 12.4169 44.5205 12.3648C44.6143 12.3023 44.6716 12.2137 44.6924 12.0992C44.9007 11.9846 45.083 11.844 45.2393 11.6773C45.4059 11.5106 45.557 11.3335 45.6924 11.146C45.8382 10.9585 45.9737 10.7658 46.0987 10.5679C46.2237 10.3596 46.3539 10.1617 46.4893 9.97413V9.91163C46.4893 9.74496 46.5153 9.60955 46.5674 9.50538C46.6299 9.40121 46.6768 9.27621 46.708 9.13038Z" fill="black"/>
<path d="M58.5743 7.55224C58.5118 7.64599 58.4753 7.75016 58.4649 7.86474C58.4545 7.97933 58.4493 8.08349 58.4493 8.17724C58.4493 8.30224 58.4493 8.42724 58.4493 8.55224C58.4597 8.66683 58.4649 8.78141 58.4649 8.89599V9.13037C58.4441 9.20328 58.4128 9.2762 58.3712 9.34912C58.3295 9.42204 58.2982 9.49495 58.2774 9.56787C58.1316 9.95328 58.0587 10.3387 58.0587 10.7242V10.7554C58.0066 10.8804 57.9545 10.995 57.9024 11.0992C57.8607 11.2033 57.8191 11.3075 57.7774 11.4117C57.7357 11.5054 57.7045 11.6096 57.6837 11.7242C57.6628 11.8283 57.6576 11.9533 57.668 12.0992C57.5222 12.4637 57.3295 12.7971 57.0899 13.0992C56.8503 13.3908 56.6159 13.6929 56.3868 14.0054C56.168 14.0887 55.9649 14.1981 55.7774 14.3335C55.6003 14.469 55.4284 14.62 55.2618 14.7867C54.9389 14.8908 54.6212 15.0106 54.3087 15.146C53.9962 15.2814 53.7149 15.4637 53.4649 15.6929C53.267 15.7137 53.0691 15.745 52.8712 15.7867C52.6732 15.8283 52.4805 15.8908 52.293 15.9742H52.1055C52.0118 15.9742 51.9441 15.9533 51.9024 15.9117C51.767 15.9846 51.6264 16.0367 51.4805 16.0679C51.3347 16.0887 51.1889 16.0992 51.043 16.0992C50.8555 16.0992 50.668 16.0887 50.4805 16.0679C50.3034 16.0367 50.1212 16.0054 49.9337 15.9742C49.8295 15.8283 49.6837 15.719 49.4962 15.646C49.3087 15.5627 49.142 15.4846 48.9962 15.4117C48.6941 14.995 48.4753 14.594 48.3399 14.2085C48.2045 13.8127 48.0639 13.37 47.918 12.8804C47.9389 12.7346 47.9753 12.594 48.0274 12.4585C48.0795 12.3127 48.1003 12.1564 48.0899 11.9898C48.2774 11.4481 48.5222 10.9585 48.8243 10.521C49.1368 10.0731 49.4909 9.64599 49.8868 9.23974C49.8868 9.17724 49.8972 9.12516 49.918 9.08349C49.9493 9.04183 49.9545 8.97933 49.9337 8.89599C49.9441 8.90641 49.9649 8.91162 49.9962 8.91162C50.0795 8.91162 50.1316 8.89078 50.1524 8.84912C50.1732 8.79704 50.1784 8.73974 50.168 8.67724C50.543 8.43766 50.8816 8.16162 51.1837 7.84912C51.4962 7.53662 51.8503 7.2762 52.2462 7.06787C52.2774 6.97412 52.3295 6.89599 52.4024 6.83349C52.4753 6.77099 52.5326 6.69808 52.5743 6.61474C52.9076 6.52099 53.2097 6.38037 53.4805 6.19287C53.7514 6.00537 54.0378 5.8387 54.3399 5.69287C54.5066 5.59912 54.6628 5.53662 54.8087 5.50537C54.9649 5.4637 55.1316 5.42204 55.3087 5.38037C55.3712 5.35954 55.4284 5.34391 55.4805 5.33349C55.5326 5.32308 55.5899 5.31787 55.6524 5.31787C55.8399 5.31787 56.0222 5.35433 56.1993 5.42724C56.3764 5.48974 56.5587 5.52099 56.7462 5.52099C56.7982 5.52099 56.8399 5.52099 56.8712 5.52099C56.9128 5.51058 56.9545 5.50016 56.9962 5.48974C57.1732 5.70849 57.3972 5.87516 57.668 5.98974C57.7305 6.14599 57.8034 6.28141 57.8868 6.39599C57.9805 6.51058 58.0743 6.62516 58.168 6.73974C58.2618 6.84391 58.3451 6.9637 58.418 7.09912C58.5014 7.22412 58.5534 7.37516 58.5743 7.55224ZM57.0118 8.36474C57.0118 8.31266 57.0066 8.26578 56.9962 8.22412C56.892 8.19287 56.793 8.1512 56.6993 8.09912C56.6055 8.04704 56.5014 8.02099 56.3868 8.02099C56.3139 8.02099 56.2409 8.03662 56.168 8.06787C56.1576 7.99495 56.1264 7.94287 56.0743 7.91162C56.0326 7.88037 55.9805 7.85433 55.918 7.83349C55.8659 7.80224 55.8087 7.78141 55.7462 7.77099C55.6941 7.75016 55.6472 7.71891 55.6055 7.67724C55.5743 7.59391 55.5378 7.51058 55.4962 7.42724C55.4649 7.33349 55.4024 7.26578 55.3087 7.22412C55.2149 7.31787 55.1055 7.39599 54.9805 7.45849C54.8555 7.51058 54.7253 7.56266 54.5899 7.61474C54.4649 7.66683 54.3399 7.72933 54.2149 7.80224C54.1003 7.87516 54.0014 7.9637 53.918 8.06787H53.6368C53.5743 8.18245 53.4857 8.27099 53.3712 8.33349C53.2566 8.38558 53.1576 8.4637 53.0743 8.56787C52.9076 8.6512 52.7514 8.75537 52.6055 8.88037C52.4701 8.99495 52.3347 9.11995 52.1993 9.25537C52.0639 9.38037 51.9284 9.51058 51.793 9.64599C51.668 9.78141 51.5326 9.90641 51.3868 10.021C51.2514 10.3127 51.1003 10.5679 50.9337 10.7867C50.7774 10.995 50.6264 11.2085 50.4805 11.4273C50.3451 11.646 50.2253 11.8856 50.1212 12.146C50.0274 12.396 49.9805 12.7085 49.9805 13.0835V13.2398C49.9805 13.2919 49.9857 13.344 49.9962 13.396C50.1316 13.5419 50.2409 13.6981 50.3243 13.8648C50.418 14.0314 50.5691 14.1512 50.7774 14.2242C50.9857 14.3075 51.2045 14.344 51.4337 14.3335C51.6732 14.3231 51.9024 14.3492 52.1212 14.4117C52.6212 14.3179 53.1003 14.1669 53.5587 13.9585C54.0274 13.7398 54.4701 13.4794 54.8868 13.1773C54.9493 13.1252 55.0222 13.0731 55.1055 13.021C55.1889 12.9585 55.2566 12.896 55.3087 12.8335C55.3607 12.7814 55.4024 12.7242 55.4337 12.6617C55.4753 12.5992 55.517 12.5419 55.5587 12.4898C55.642 12.3544 55.7357 12.219 55.8399 12.0835C55.9441 11.9481 56.0534 11.8231 56.168 11.7085C56.2201 11.4794 56.2878 11.2606 56.3712 11.0523C56.4545 10.8335 56.5378 10.62 56.6212 10.4117C56.7045 10.2033 56.7722 9.98974 56.8243 9.77099C56.8868 9.55224 56.918 9.32308 56.918 9.08349C56.918 9.03141 56.9128 8.97412 56.9024 8.91162C56.9024 8.84912 56.8972 8.79183 56.8868 8.73974C56.9701 8.62516 57.0118 8.50016 57.0118 8.36474Z" fill="black"/>
<path d="M74.571 15.3179C74.5189 15.4846 74.5033 15.6512 74.5242 15.8179C74.4929 15.8596 74.4564 15.8856 74.4148 15.896C74.3731 15.9064 74.3314 15.9221 74.2898 15.9429C74.2481 15.9533 74.2117 15.9742 74.1804 16.0054C74.1596 16.0262 74.1596 16.0731 74.1804 16.146C73.8367 16.1669 73.4561 15.5523 73.1436 15.6773C72.8311 15.8023 72.5238 15.9377 72.2217 16.0835C72.0654 16.0314 71.93 15.969 71.8154 15.896C71.7008 15.8231 71.555 15.7762 71.3779 15.7554C71.2008 15.4012 71.0342 15.0314 70.8779 14.646C70.7321 14.2502 70.6592 13.8544 70.6592 13.4585C70.6592 13.1669 70.7113 12.9012 70.8154 12.6617C70.8154 12.3492 70.8415 12.0419 70.8936 11.7398C70.9456 11.4377 71.0029 11.1408 71.0654 10.8492C71.1383 10.5471 71.2008 10.245 71.2529 9.94288C71.305 9.64079 71.3311 9.3335 71.3311 9.021V8.67725C71.3102 8.67725 71.2842 8.70329 71.2529 8.75538C71.2217 8.79705 71.1904 8.84913 71.1592 8.91163C71.1383 8.96371 71.1175 9.01579 71.0967 9.06788C71.0758 9.11996 71.0602 9.15121 71.0498 9.16163C70.8727 9.29705 70.7321 9.46892 70.6279 9.67725C70.5342 9.87517 70.43 10.0627 70.3154 10.2398C70.1696 10.4585 70.0133 10.6721 69.8467 10.8804C69.6904 11.0887 69.4925 11.2502 69.2529 11.3648V11.396C69.2529 11.4481 69.2373 11.4846 69.2061 11.5054C69.1748 11.5262 69.1696 11.5783 69.1904 11.6617C68.93 11.745 68.6852 11.8648 68.4561 12.021C68.2373 12.1773 68.055 12.3752 67.9092 12.6148C67.7008 12.6669 67.5029 12.7398 67.3154 12.8335C67.1383 12.9169 66.9561 13.0106 66.7686 13.1148C66.6852 13.1564 66.5967 13.2085 66.5029 13.271C66.4092 13.3335 66.3154 13.3752 66.2217 13.396C66.1383 13.4273 66.0238 13.4481 65.8779 13.4585C65.7425 13.469 65.5967 13.4794 65.4404 13.4898C65.2946 13.5002 65.1488 13.5054 65.0029 13.5054H64.6592C64.6071 13.5054 64.5394 13.4794 64.4561 13.4273C64.3727 13.3752 64.279 13.3179 64.1748 13.2554C64.0811 13.1929 63.9821 13.1356 63.8779 13.0835C63.7738 13.021 63.6748 12.9794 63.581 12.9585C63.4977 12.6877 63.3779 12.4481 63.2217 12.2398C63.0758 12.021 62.9196 11.8023 62.7529 11.5835C62.7008 11.3335 62.6279 11.0731 62.5342 10.8023C62.4508 10.5314 62.2998 10.3075 62.081 10.1304C62.1331 10.0575 62.1592 9.97413 62.1592 9.88038C62.1592 9.76579 62.1331 9.65642 62.081 9.55225C62.029 9.44809 62.0029 9.3335 62.0029 9.2085C62.0029 9.12517 62.0081 9.06267 62.0185 9.021C61.904 9.146 61.8206 9.30746 61.7685 9.50538C61.7269 9.69288 61.706 9.86475 61.706 10.021C61.706 10.146 61.7217 10.2606 61.7529 10.3648C61.6488 10.5106 61.581 10.6929 61.5498 10.9117C61.529 11.1304 61.5185 11.3231 61.5185 11.4898C61.5185 11.6981 61.5342 11.9012 61.5654 12.0992C61.3988 12.2658 61.3154 12.469 61.3154 12.7085C61.3154 12.844 61.3467 12.9637 61.4092 13.0679C61.4092 13.1096 61.3988 13.1408 61.3779 13.1617C61.3571 13.1825 61.331 13.1981 61.2998 13.2085C61.279 13.219 61.2529 13.2346 61.2217 13.2554C61.2008 13.2658 61.1904 13.2919 61.1904 13.3335C61.1904 13.3856 61.1904 13.4429 61.1904 13.5054C61.2008 13.5679 61.206 13.6304 61.206 13.6929C61.206 13.8387 61.2008 13.9898 61.1904 14.146C61.18 14.3023 61.1748 14.4533 61.1748 14.5992C61.1748 14.9012 61.2008 15.12 61.2529 15.2554C61.3154 15.3804 61.3883 15.4742 61.4717 15.5367C61.5654 15.5992 61.6644 15.6617 61.7685 15.7242C61.8727 15.7867 61.9769 15.9065 62.081 16.0835C62.0498 16.1773 61.9925 16.2554 61.9092 16.3179C61.8363 16.37 61.7633 16.4273 61.6904 16.4898C61.6279 16.5419 61.5706 16.6044 61.5185 16.6773C61.4665 16.7502 61.4456 16.8544 61.456 16.9898H61.3779C61.2425 16.9898 61.1123 17.0106 60.9873 17.0523C60.8623 17.094 60.7321 17.1148 60.5967 17.1148C60.5654 17.1148 60.5342 17.1096 60.5029 17.0992C60.4717 17.0992 60.4404 17.0992 60.4092 17.0992L60.2529 17.0054C60.2008 16.9742 60.1488 16.9585 60.0967 16.9585C60.0446 16.9585 59.9769 16.969 59.8935 16.9898C59.7477 16.521 59.6331 16.0367 59.5498 15.5367C59.4769 15.0367 59.4404 14.5471 59.4404 14.0679C59.4404 14.0158 59.4508 13.9637 59.4717 13.9117C59.5029 13.8492 59.5446 13.8283 59.5967 13.8492V13.5523C59.5967 13.2294 59.6227 12.9169 59.6748 12.6148C59.7373 12.3023 59.7685 11.9794 59.7685 11.646C59.7685 11.5523 59.7633 11.4585 59.7529 11.3648C59.7529 11.271 59.7477 11.1825 59.7373 11.0992C59.7894 10.9221 59.8415 10.745 59.8935 10.5679C59.956 10.3804 59.9873 10.1877 59.9873 9.98975C59.9873 9.90642 59.9717 9.80746 59.9404 9.69288C60.0238 9.63038 60.0863 9.55225 60.1279 9.4585C60.1696 9.35434 60.2008 9.24496 60.2217 9.13038C60.2425 9.00538 60.2581 8.88559 60.2685 8.771C60.279 8.65642 60.2894 8.55225 60.2998 8.4585C60.404 8.25017 60.4613 8.02621 60.4717 7.78663C60.4821 7.54705 60.5342 7.32309 60.6279 7.11475C60.6175 7.07309 60.6123 7.00017 60.6123 6.896C60.6123 6.68767 60.6435 6.47934 60.706 6.271C60.779 6.05225 60.9196 5.88559 61.1279 5.771C61.3154 5.84392 61.5342 5.88038 61.7842 5.88038C62.0238 5.88038 62.2529 5.84392 62.4717 5.771C62.5342 5.79184 62.5915 5.81788 62.6435 5.84913C62.6956 5.86996 62.7477 5.896 62.7998 5.92725C62.8623 5.94809 62.9248 5.96892 62.9873 5.98975C63.0498 6.00017 63.1227 6.00017 63.206 5.98975C63.3102 6.29184 63.3988 6.59913 63.4717 6.91163C63.555 7.22413 63.6175 7.54184 63.6592 7.86475C63.68 8.00017 63.6852 8.146 63.6748 8.30225C63.6748 8.4585 63.6852 8.60434 63.706 8.73975C63.7165 8.82309 63.7425 8.90121 63.7842 8.97413C63.8258 9.03663 63.8675 9.10955 63.9092 9.19288C63.9508 9.27621 63.9821 9.36996 64.0029 9.47413C64.0342 9.57829 64.0446 9.7085 64.0342 9.86475C64.1488 10.1356 64.2738 10.396 64.4092 10.646C64.555 10.8856 64.7113 11.1252 64.8779 11.3648C64.9717 11.396 65.055 11.4377 65.1279 11.4898C65.2008 11.5314 65.2477 11.6044 65.2686 11.7085C65.3623 11.7085 65.4456 11.7242 65.5186 11.7554L65.7842 11.8335C66.18 11.7085 66.5446 11.5419 66.8779 11.3335C67.2217 11.1252 67.5811 10.9481 67.9561 10.8023C68.4144 10.3544 68.8102 9.85955 69.1436 9.31788C69.4769 8.76579 69.8102 8.21892 70.1436 7.67725V7.3335C70.2061 7.30225 70.2581 7.26579 70.2998 7.22413C70.3519 7.17205 70.4144 7.13559 70.4873 7.11475C70.4977 6.98975 70.5238 6.86996 70.5654 6.75538C70.6175 6.63038 70.6696 6.51579 70.7217 6.41163C70.7842 6.29705 70.8363 6.18767 70.8779 6.0835C70.9196 5.96892 70.9404 5.84913 70.9404 5.72413C70.9404 5.65121 70.9352 5.58871 70.9248 5.53663C71.0811 5.38038 71.2686 5.30225 71.4873 5.30225C71.6956 5.30225 71.904 5.35434 72.1123 5.4585C72.3311 5.55225 72.5342 5.64079 72.7217 5.72413C72.8363 5.97413 72.9196 6.23975 72.9717 6.521C73.0342 6.79184 73.0758 7.07309 73.0967 7.36475C73.1175 7.65642 73.1279 7.94809 73.1279 8.23975V9.34913C73.1175 9.43246 73.0863 9.49496 73.0342 9.53663C72.9925 9.56788 72.9613 9.61996 72.9404 9.69288V9.84913C72.9404 9.90121 72.9352 9.95329 72.9248 10.0054C72.9248 10.2242 72.8988 10.4533 72.8467 10.6929C72.7946 10.995 72.7269 11.3023 72.6436 11.6148C72.5706 11.9169 72.5342 12.2242 72.5342 12.5367C72.5342 12.6512 72.5394 12.7658 72.5498 12.8804C72.5602 12.995 72.5811 13.1096 72.6123 13.2242C72.5602 13.3179 72.5342 13.4377 72.5342 13.5835C72.5342 13.7502 72.5602 13.9064 72.6123 14.0523C72.6748 14.1877 72.7477 14.3231 72.8311 14.4585C72.9769 14.4585 73.1227 14.4533 73.2686 14.4429C73.4144 14.4325 73.5654 14.4273 73.7217 14.4273C73.92 15.1148 74.0554 15.1304 74.1804 15.1617C74.3054 15.1825 74.4356 15.2346 74.571 15.3179Z" fill="black"/>
<path d="M85.8067 11.9581C85.7025 11.9686 85.6088 11.9946 85.5254 12.0363C85.4525 12.0779 85.3744 12.1092 85.2911 12.13C85.3015 12.1404 85.3067 12.156 85.3067 12.1769C85.3067 12.2394 85.2911 12.2863 85.2598 12.3175C85.2286 12.3383 85.2233 12.3904 85.2442 12.4738C85.0879 12.5571 84.9265 12.6196 84.7598 12.6613C84.5931 12.7029 84.4213 12.7394 84.2442 12.7706C84.0775 12.8019 83.9108 12.8383 83.7442 12.88C83.5775 12.9217 83.4213 12.9894 83.2754 13.0831V12.9113C83.1504 12.9842 83.0306 13.0206 82.9161 13.0206C82.8119 13.0206 82.7129 13.005 82.6192 12.9738C82.5254 12.9321 82.4213 12.9113 82.3067 12.9113C82.2546 12.9113 82.1869 12.9321 82.1036 12.9738C81.9994 12.9633 81.9161 12.9373 81.8536 12.8956C81.8015 12.8436 81.7338 12.7915 81.6504 12.7394C81.5983 12.8436 81.5202 12.9113 81.4161 12.9425C81.3223 12.9633 81.2338 12.9738 81.1504 12.9738C81.0358 12.9738 80.9265 12.9686 80.8223 12.9581C80.7286 12.9477 80.6348 12.9321 80.5411 12.9113C80.3744 12.9633 80.2181 12.9946 80.0723 13.005C79.9265 13.005 79.7702 13.005 79.6036 13.005C79.4577 13.005 79.3171 13.0154 79.1817 13.0363C79.0567 13.0467 78.9265 13.0831 78.7911 13.1456C78.7494 13.0415 78.6608 12.9894 78.5254 12.9894C78.4629 12.9894 78.3952 12.9946 78.3223 13.005C78.2598 13.005 78.1973 13.005 78.1348 13.005C78.0306 13.005 77.9525 12.9738 77.9004 12.9113C77.8588 12.9321 77.8379 12.9686 77.8379 13.0206C77.8483 13.0727 77.8483 13.1144 77.8379 13.1456C77.6817 13.0831 77.515 13.0519 77.3379 13.0519C77.1921 13.0519 77.0515 13.0675 76.9161 13.0988C76.7806 13.13 76.6452 13.1456 76.5098 13.1456C76.4369 13.1456 76.364 13.1352 76.2911 13.1144C76.2181 13.0936 76.1556 13.0831 76.1036 13.0831C76.0411 13.0831 75.9942 13.0988 75.9629 13.13C75.9317 13.1508 75.9004 13.1769 75.8692 13.2081C75.8483 13.229 75.8171 13.255 75.7754 13.2863C75.7442 13.3071 75.6973 13.3175 75.6348 13.3175C75.5202 13.3175 75.4421 13.2863 75.4004 13.2238C75.3588 13.1508 75.2963 13.104 75.2129 13.0831C75.2129 12.979 75.1973 12.8852 75.1661 12.8019C75.1348 12.7186 75.0983 12.6352 75.0567 12.5519C75.015 12.4581 74.9786 12.3696 74.9473 12.2863C74.9161 12.2029 74.9004 12.1092 74.9004 12.005C74.9004 11.9738 74.9004 11.9425 74.9004 11.9113C74.9108 11.8696 74.9161 11.8331 74.9161 11.8019C75.0619 11.5936 75.2702 11.4477 75.5411 11.3644C75.8223 11.2706 76.0775 11.2238 76.3067 11.2238C76.4213 11.2238 76.5046 11.2446 76.5567 11.2863C76.6192 11.3279 76.6921 11.3852 76.7754 11.4581C77.5046 11.3748 78.2338 11.3175 78.9629 11.2863C79.7025 11.255 80.4369 11.2186 81.1661 11.1769C81.4056 11.156 81.6452 11.1404 81.8848 11.13C82.1244 11.1092 82.364 11.0883 82.6036 11.0675C82.6348 11.0675 82.6556 11.0571 82.6661 11.0363C82.6765 11.005 82.6817 10.9738 82.6817 10.9425C82.6921 10.9113 82.7025 10.8852 82.7129 10.8644C82.7338 10.8436 82.765 10.8331 82.8067 10.8331C82.9213 10.8331 82.9994 10.8696 83.0411 10.9425C83.0827 11.005 83.1452 11.0467 83.2286 11.0675C83.3015 11.0258 83.3848 10.9946 83.4786 10.9738C83.5827 10.9529 83.6817 10.9373 83.7754 10.9269C83.8692 10.906 83.9577 10.8852 84.0411 10.8644C84.1348 10.8331 84.2129 10.7863 84.2754 10.7238C84.3588 10.7133 84.4056 10.7342 84.4161 10.7863C84.4265 10.8279 84.4577 10.8592 84.5098 10.88C84.5619 10.8696 84.6192 10.8592 84.6817 10.8488C84.7442 10.8279 84.8015 10.8175 84.8536 10.8175H84.9629C85.0046 10.8175 85.0411 10.8227 85.0723 10.8331C85.1661 11.0415 85.2858 11.229 85.4317 11.3956C85.5879 11.5623 85.7129 11.7498 85.8067 11.9581Z" fill="black"/>
<path d="M108.829 20.0992C108.829 20.2137 108.803 20.3231 108.751 20.4273C108.543 20.5419 108.324 20.62 108.095 20.6617C107.876 20.7137 107.658 20.7398 107.439 20.7398C107.335 20.7398 107.22 20.7346 107.095 20.7242C106.98 20.7242 106.876 20.7137 106.783 20.6929C106.751 20.6825 106.715 20.6617 106.673 20.6304C106.631 20.5992 106.59 20.5835 106.548 20.5835C106.444 20.5835 106.345 20.5992 106.251 20.6304C106.158 20.6721 106.059 20.6929 105.954 20.6929C105.902 20.6929 105.85 20.6773 105.798 20.646C105.756 20.6148 105.71 20.594 105.658 20.5835C105.585 20.5627 105.512 20.5575 105.439 20.5679C105.366 20.5783 105.288 20.5835 105.204 20.5835C105.09 20.5835 104.986 20.5679 104.892 20.5367C104.809 20.5054 104.73 20.4481 104.658 20.3648C104.397 20.3335 104.142 20.2814 103.892 20.2085C103.642 20.146 103.392 20.0731 103.142 19.9898C102.892 19.9169 102.642 19.844 102.392 19.771C102.142 19.7085 101.887 19.6669 101.626 19.646C101.564 19.5731 101.491 19.5158 101.408 19.4742C101.324 19.4429 101.262 19.3856 101.22 19.3023C101.168 19.3023 101.131 19.3075 101.111 19.3179C101.09 19.3387 101.053 19.3492 101.001 19.3492C100.824 19.2033 100.631 19.0783 100.423 18.9742C100.225 18.87 100.017 18.771 99.7983 18.6773C99.59 18.5835 99.3817 18.4846 99.1733 18.3804C98.9754 18.2867 98.7879 18.1617 98.6108 18.0054H98.5327C98.4494 18.0158 98.3765 17.995 98.314 17.9429C98.2619 17.9012 98.1942 17.8804 98.1108 17.8804C98.0587 17.8804 98.0171 17.8856 97.9858 17.896C97.9546 17.8127 97.9077 17.745 97.8452 17.6929C97.7827 17.6408 97.715 17.5887 97.6421 17.5367C97.5796 17.495 97.5171 17.4481 97.4546 17.396C97.3921 17.3544 97.3452 17.2971 97.314 17.2242C97.0535 17.1304 96.7983 17.0158 96.5483 16.8804C96.3087 16.7554 96.0952 16.5887 95.9077 16.3804C95.6994 16.3596 95.5275 16.2971 95.3921 16.1929C95.2567 16.0783 95.1317 15.9377 95.0171 15.771C94.7671 15.6877 94.5379 15.5783 94.3296 15.4429C94.1212 15.3075 93.9129 15.1669 93.7046 15.021C93.5067 14.8752 93.2931 14.745 93.064 14.6304C92.8452 14.5054 92.5952 14.4169 92.314 14.3648C92.3035 14.2919 92.2723 14.2398 92.2202 14.2085C92.1681 14.1669 92.1056 14.1356 92.0327 14.1148C91.9702 14.0835 91.9077 14.0575 91.8452 14.0367C91.7827 14.0158 91.7358 13.9742 91.7046 13.9117C91.6733 13.9117 91.6421 13.9117 91.6108 13.9117C91.5796 13.9012 91.5483 13.896 91.5171 13.896C91.4858 13.896 91.4494 13.9012 91.4077 13.9117C91.3765 13.9117 91.3452 13.9117 91.314 13.9117L91.3296 13.8648C91.3296 13.8231 91.314 13.7971 91.2827 13.7867C91.2619 13.7762 91.2306 13.7658 91.189 13.7554C91.1473 13.745 91.1108 13.7294 91.0796 13.7085C91.0483 13.6877 91.0327 13.6408 91.0327 13.5679H90.9858C90.8712 13.5679 90.7671 13.5471 90.6733 13.5054C90.5796 13.4637 90.4754 13.4325 90.3608 13.4117C90.34 13.5262 90.3296 13.6356 90.3296 13.7398V14.021C90.3296 14.4898 90.3817 14.9846 90.4858 15.5054C90.59 16.0158 90.7515 16.4742 90.9702 16.8804C91.189 16.9637 91.3765 17.0731 91.5327 17.2085C91.689 17.344 91.84 17.5002 91.9858 17.6773C91.9962 17.9585 91.8921 18.1929 91.6733 18.3804C91.465 18.5783 91.2202 18.6773 90.939 18.6773C90.7827 18.6773 90.6369 18.6356 90.5015 18.5523C90.3765 18.4794 90.2723 18.37 90.189 18.2242C90.1265 18.2242 90.0692 18.2346 90.0171 18.2554C89.965 18.2867 89.9025 18.3023 89.8296 18.3023C89.7983 18.3023 89.7671 18.2971 89.7358 18.2867C89.6317 18.1096 89.5275 17.9533 89.4233 17.8179C89.3296 17.6825 89.2671 17.5002 89.2358 17.271C89.1212 17.219 89.0483 17.1252 89.0171 16.9898C88.9962 16.8544 88.939 16.745 88.8452 16.6617C88.8035 16.1929 88.7462 15.7242 88.6733 15.2554C88.6108 14.7867 88.5796 14.3179 88.5796 13.8492C88.5796 13.745 88.5848 13.6408 88.5952 13.5367C88.6056 13.4221 88.616 13.3075 88.6265 13.1929C88.6056 13.1408 88.5744 13.094 88.5327 13.0523C88.5015 13.0002 88.4754 12.9481 88.4546 12.896C88.2462 12.9481 88.0275 13.0002 87.7983 13.0523C87.5796 13.094 87.3556 13.1148 87.1265 13.1148C86.9806 13.1148 86.8035 13.094 86.5952 13.0523C86.3869 13.0002 86.2254 12.9325 86.1108 12.8492C86.0275 12.7971 85.9702 12.7033 85.939 12.5679C85.8973 12.4221 85.8765 12.2971 85.8765 12.1929C85.8765 12.0158 85.9077 11.8387 85.9702 11.6617C86.0327 11.4742 86.116 11.3127 86.2202 11.1773C86.7306 10.969 87.2046 10.7137 87.6421 10.4117C88.09 10.1096 88.5275 9.78141 88.9546 9.42724C88.965 9.32308 88.9806 9.21891 89.0015 9.11474C89.0327 9.01058 89.0483 8.9012 89.0483 8.78662C89.0483 8.66162 89.0171 8.54183 88.9546 8.42724C89.0171 8.36474 89.0483 8.28662 89.0483 8.19287C89.0483 8.0887 89.0744 7.99495 89.1265 7.91162V7.81787C89.1265 7.7762 89.1212 7.73454 89.1108 7.69287C89.1108 7.6512 89.0952 7.60954 89.064 7.56787C89.1369 7.16162 89.1942 6.76058 89.2358 6.36474C89.2775 5.95849 89.2983 5.54183 89.2983 5.11474C89.2983 5.08349 89.314 5.00016 89.3452 4.86474C89.3869 4.71891 89.4129 4.61995 89.4233 4.56787C89.465 4.32828 89.491 4.09391 89.5015 3.86474C89.5223 3.62516 89.5483 3.38558 89.5796 3.14599C89.59 3.06266 89.0627 3.05745 89.094 2.92204C89.1252 2.78662 89.1408 2.69287 89.1408 2.64078C89.1408 2.56787 89.1252 2.52099 89.094 2.50016C89.0731 2.46891 89.0523 2.42204 89.0314 2.35954C89.094 2.11995 89.6733 1.7762 89.6733 1.53662C89.6837 1.28662 89.7046 1.04183 89.7358 0.802246C89.9129 0.72933 90.0535 0.656413 90.1577 0.583496C90.2619 0.51058 90.4129 0.474121 90.6108 0.474121H90.6421C90.6629 0.599121 90.7098 0.718913 90.7827 0.833496C90.8556 0.937663 90.9285 1.04704 91.0015 1.16162C91.0848 1.26578 91.1577 1.36995 91.2202 1.47412C91.2827 1.56787 91.314 1.66162 91.314 1.75537C91.314 1.93245 91.2983 2.12516 91.2671 2.33349C91.2358 2.54183 91.2098 2.73454 91.189 2.91162C91.1369 3.38037 91.09 3.84391 91.0483 4.30224C91.0067 4.75016 90.9442 5.20849 90.8608 5.67724C90.8921 5.82308 90.9077 5.95849 90.9077 6.08349C90.9077 6.27099 90.8921 6.45849 90.8608 6.64599C90.8296 6.83349 90.814 7.0262 90.814 7.22412C90.814 7.31787 90.8192 7.41683 90.8296 7.52099C90.8504 7.62516 90.8817 7.71891 90.9233 7.80224C91.2775 7.70849 91.5952 7.51578 91.8765 7.22412C91.9181 7.18245 91.9598 7.13037 92.0015 7.06787C92.0535 6.99495 92.1056 6.93766 92.1577 6.89599C92.2619 6.81266 92.3712 6.73974 92.4858 6.67724C92.6108 6.60433 92.7306 6.53141 92.8452 6.45849C93.116 6.28141 93.3765 6.09912 93.6265 5.91162C93.8869 5.7137 94.1473 5.52099 94.4077 5.33349C95.1785 4.77099 95.9233 4.18766 96.6421 3.58349C97.3712 2.96891 98.0796 2.32308 98.7671 1.64599C98.7983 1.46891 98.8608 1.32828 98.9546 1.22412C99.0483 1.11995 99.1317 0.994955 99.2046 0.849121C99.4025 0.776205 99.5744 0.66683 99.7202 0.520996C99.7827 0.54183 99.8452 0.557455 99.9077 0.567871C99.9806 0.567871 100.048 0.567871 100.111 0.567871C100.184 0.567871 100.251 0.57308 100.314 0.583496C100.387 0.583496 100.449 0.599121 100.501 0.630371C100.512 0.786621 100.527 0.927246 100.548 1.05224C100.569 1.17724 100.631 1.29704 100.736 1.41162C100.736 1.43245 100.736 1.45328 100.736 1.47412C100.746 1.49495 100.751 1.51578 100.751 1.53662C100.751 1.6512 100.72 1.74495 100.658 1.81787C100.595 1.89078 100.559 1.97933 100.548 2.08349L99.7358 2.89599C99.465 3.16683 99.215 3.45849 98.9858 3.77099C98.9025 3.78141 98.8296 3.80745 98.7671 3.84912C98.7046 3.89078 98.6421 3.93766 98.5796 3.98974C98.5275 4.03141 98.4702 4.07308 98.4077 4.11474C98.3452 4.15641 98.2775 4.18766 98.2046 4.20849C98.0171 4.45849 97.8035 4.68766 97.564 4.89599C97.3244 5.09391 97.0796 5.28662 96.8296 5.47412C96.5796 5.66162 96.3296 5.85433 96.0796 6.05224C95.84 6.23974 95.616 6.44808 95.4077 6.67724C95.189 6.78141 94.9754 6.90641 94.7671 7.05224C94.5692 7.18766 94.4077 7.35954 94.2827 7.56787H94.2046C94.1525 7.56787 94.1108 7.58349 94.0796 7.61474C94.0483 7.63558 94.0067 7.64599 93.9546 7.64599C93.3921 8.13558 92.8087 8.59912 92.2046 9.03662C91.6004 9.4637 91.0223 9.93245 90.4702 10.4429V10.8335C90.6473 10.9377 90.84 11.0367 91.0483 11.1304C91.2567 11.2137 91.4598 11.3075 91.6577 11.4117C91.866 11.5158 92.0587 11.6304 92.2358 11.7554C92.4233 11.87 92.5848 12.0106 92.7202 12.1773C92.741 12.1669 92.7671 12.1617 92.7983 12.1617C92.8921 12.1617 92.965 12.1929 93.0171 12.2554C93.0692 12.3075 93.1577 12.3231 93.2827 12.3023C93.3244 12.469 93.4181 12.5887 93.564 12.6617C93.7098 12.7346 93.8556 12.7971 94.0015 12.8492C94.1265 12.9742 94.241 13.094 94.3452 13.2085C94.4494 13.3127 94.6004 13.3804 94.7983 13.4117C94.8192 13.4533 94.8348 13.5002 94.8452 13.5523C94.8556 13.6044 94.8765 13.6512 94.9077 13.6929C95.1056 13.7554 95.2931 13.844 95.4702 13.9585C95.6577 14.0731 95.84 14.1929 96.0171 14.3179C96.1942 14.4325 96.3712 14.5471 96.5483 14.6617C96.7358 14.7658 96.9337 14.8492 97.1421 14.9117C97.1733 15.0158 97.2306 15.0887 97.314 15.1304C97.4077 15.1721 97.4806 15.2346 97.5327 15.3179H97.814C97.8452 15.37 97.8869 15.4221 97.939 15.4742C97.991 15.5158 98.0275 15.5783 98.0483 15.6617C98.1317 15.6825 98.2254 15.7137 98.3296 15.7554C98.4337 15.7867 98.5275 15.8283 98.6108 15.8804C98.6421 15.9117 98.6629 15.9481 98.6733 15.9898C98.6942 16.0314 98.7254 16.0679 98.7671 16.0992C98.8296 16.1512 98.9233 16.1929 99.0483 16.2242C99.1837 16.245 99.2983 16.2814 99.3921 16.3335C99.5796 16.4377 99.7619 16.5523 99.939 16.6773C100.116 16.8127 100.303 16.9377 100.501 17.0523L101.111 17.3804C101.215 17.4325 101.309 17.4898 101.392 17.5523C101.486 17.6148 101.579 17.6721 101.673 17.7242C101.861 17.8075 102.059 17.8596 102.267 17.8804C102.486 17.9117 102.684 17.969 102.861 18.0523C102.913 18.0835 102.949 18.12 102.97 18.1617C102.991 18.2137 103.027 18.2554 103.079 18.2867C103.163 18.3387 103.293 18.3752 103.47 18.396C103.647 18.4169 103.793 18.4533 103.908 18.5054C104.053 18.5679 104.194 18.6252 104.329 18.6773C104.475 18.7398 104.621 18.8127 104.767 18.896C105.079 18.9169 105.387 18.9533 105.689 19.0054C106.001 19.0575 106.309 19.1096 106.611 19.1617C106.913 19.2137 107.215 19.2606 107.517 19.3023C107.829 19.344 108.142 19.3596 108.454 19.3492C108.454 19.37 108.465 19.3804 108.486 19.3804C108.517 19.3908 108.543 19.396 108.564 19.396C108.637 19.5106 108.699 19.6252 108.751 19.7398C108.803 19.8544 108.829 19.9742 108.829 20.0992Z" fill="black"/>
</g>
<defs>
<clipPath id="clip0_231_60">
<rect width="109" height="21" fill="white"/>
</clipPath>
</defs>
</svg>
