<svg width="746" height="133" viewBox="0 0 746 133" fill="none" xmlns="http://www.w3.org/2000/svg">
<path d="M315.266 1.6C313 3.86667 313 128.133 315.266 130.4C316.2 131.333 319.133 132 321.8 132C331.8 132 331 137.467 331 66.8C331 19.0667 330.6 2.8 329.4 1.6C328.466 0.666668 325.4 1.24857e-06 322.333 1.24857e-06C319.266 1.24857e-06 316.2 0.666668 315.266 1.6Z" fill="black"/>
<path d="M359.266 1.59999C357 3.86666 357 128.133 359.266 130.4C360.2 131.333 363.266 132 366.333 132C369.4 132 372.466 131.333 373.4 130.4C375.666 128.133 375.666 3.86666 373.4 1.59999C372.466 0.66666 369.4 -6.88434e-06 366.333 -6.88434e-06C363.266 -6.88434e-06 360.2 0.66666 359.266 1.59999Z" fill="black"/>
<path d="M0.999805 12.2668C0.599805 13.2002 0.466471 40.4002 0.599805 72.6668L0.999805 131.333H8.33314H15.6665V71.3335V11.3335L8.59981 10.9335C3.7998 10.6668 1.3998 11.0668 0.999805 12.2668Z" fill="black"/>
<path d="M22.4662 12.8002C20.9995 16.6668 21.6662 23.8668 23.5329 24.9335C24.5995 25.4668 38.4662 25.8668 54.3329 25.6002L83.1329 25.2002L82.7329 18.2668L82.3329 11.3335L52.8662 10.9335C26.7329 10.6668 23.2662 10.9335 22.4662 12.8002Z" fill="black"/>
<path d="M132.866 43.2002C112.2 48.2668 98.4664 65.6002 98.4664 86.6668C98.3331 100.134 101.533 108.8 109.666 117.867C125.8 135.334 151.533 137.867 171.933 123.867C178.466 119.334 178.866 116.934 174.333 111.334C171.533 107.867 170.733 107.6 168.733 109.067C152.466 120.667 132.466 120 122.066 107.334C110.6 93.4668 114.066 69.3335 128.866 60.6668C140.333 54.0002 156.6 57.4668 164.466 68.4002C166.6 71.3335 168.333 75.2002 168.333 76.9335V80.0002H146.733C134.733 80.0002 124.333 80.5335 123.533 81.0668C121.266 82.5335 120.333 88.0002 121.666 91.4668L123 94.6668L153.933 94.4002L185 94.0002L184.866 84.2668C184.333 56.6668 159.133 36.8002 132.866 43.2002Z" fill="black"/>
<path d="M238.333 43.2003C216.733 48.5337 203 66.0003 203 88.0003C203 106.134 212.733 121.334 229 128.934C235.8 132 238.733 132.667 248.333 132.667C258.467 132.667 260.733 132.267 268.467 128.4C273.133 126 278.467 122.667 280.2 120.8L283.4 117.467L279.8 112.667C277.8 110.134 275.8 108 275.133 108C274.6 108 272.2 109.467 269.933 111.2C259.933 118.534 242.2 119.334 232.467 112.934C220.067 104.667 215.8 86.9337 223 72.8003C229.267 60.4003 240.2 55.2003 254.333 57.867C262.2 59.3337 273.667 71.6003 273.667 78.667C273.667 79.467 265.8 80.0003 251.133 80.0003C225.933 80.0003 225.267 80.267 225.933 88.9337L226.333 94.0003L257.133 94.4003C281 94.667 288.333 94.267 289.4 92.9337C291.8 90.0003 289 74.0003 284.333 64.5337C278.333 52.267 269 45.467 254.333 42.8003C250.067 42.0003 246.2 41.3337 245.8 41.467C245.4 41.467 242.067 42.267 238.333 43.2003Z" fill="black"/>
<path d="M490.066 42.667C475.8 45.6003 463.933 54.8003 458.066 67.6003C447 91.6003 456.6 118.134 480.066 129.067C486.333 132 489.533 132.667 499 132.667C509.133 132.667 511.4 132.267 519.133 128.4C523.8 126 529.133 122.667 530.866 120.8L534.066 117.467L530.466 112.667C526.333 107.334 525.8 107.2 521.533 110.4C511.266 118.4 493.133 119.6 483.266 112.934C480.2 111.067 476.066 106.534 474.066 103.067C470.866 97.6003 470.333 95.2003 470.466 87.3337C470.466 80.5337 471.266 76.5337 473.4 72.5337C477.133 65.3337 484.466 59.067 490.333 57.867C497.666 56.5337 508.066 58.0003 512.066 60.9337C517 64.667 522.733 72.1337 523.666 76.267L524.6 80.0003H501.933C476.6 80.0003 475.933 80.267 476.6 88.9337L477 94.0003L508.466 94.4003C544.733 94.8003 542.466 95.6003 540.333 82.0003C538.466 70.267 534.866 62.4003 527.533 54.667C518.466 44.9337 503.266 40.1337 490.066 42.667Z" fill="black"/>
<path d="M593 43.2003C582.867 45.7337 575.933 49.867 569.267 57.3337C548.733 80.1337 555.933 115.067 583.8 128.8C590.6 132.134 593.133 132.667 603 132.667C612.6 132.534 615.667 132 622.6 128.8C632.867 124.134 638.467 118.667 636.6 115.067C635.8 113.734 634.067 111.6 632.6 110.267C630.067 108 629.8 108 623 112.267C617.267 115.734 614.333 116.667 607 117.067C595.8 117.734 590.067 116 583.667 109.734C577 103.334 574.6 97.067 574.6 86.9337C574.733 76.8003 578.6 68.267 586.067 62.267C593 56.5337 605.267 55.6003 614.333 60.0003C620.733 63.067 626.067 69.7337 627.667 76.267L628.6 80.0003H606.067C581.8 80.0003 580.333 80.4003 580.333 86.8003C580.333 94.9337 579.133 94.667 613 94.667C638.067 94.667 644.2 94.267 644.733 92.8003C646.067 89.3337 643.267 73.467 640.067 66.4003C635.667 56.8003 629.667 50.267 622.733 47.467C619.533 46.1337 616.067 44.5337 615 44.0003C610.867 42.0003 599.533 41.467 593 43.2003Z" fill="black"/>
<path d="M704.733 43.2003C701.8 44.267 697.4 46.267 695.133 47.867C691.4 50.5336 691 51.467 691 58.1336C691 66.4003 692.333 67.067 697.933 61.7336C700.733 59.067 703.267 58.1336 709 57.6003C715.8 57.067 716.467 57.2003 720.867 61.6003C723.4 64.1336 726.067 68.5336 726.867 71.3336C727.667 74.4003 728.333 88.1337 728.333 103.467C728.333 133.334 727.933 132 737.667 132C740.467 132 743.4 131.2 744.333 130C745.533 128.534 745.8 120.4 745.4 97.7336C744.867 67.7336 744.867 67.2003 741.133 59.6003C739.133 55.467 735.533 50.5336 733.267 48.8003C725.533 43.067 713.133 40.667 704.733 43.2003Z" fill="black"/>
<path d="M399.8 62.5333C389.133 73.2 381.666 81.6 382.2 82.5333C382.733 83.3333 386.466 84 390.6 84H397.933L417.133 65.8667C427.666 55.8667 436.333 46.8 436.333 45.8667C436.333 44.4 434.066 44 427.266 44H418.333L399.8 62.5333Z" fill="black"/>
<path d="M669 45.7334C668.6 46.6667 668.466 66.2667 668.6 89.3334L669 131.333L675.533 131.733C679.133 132 682.6 131.6 683.266 130.933C683.933 130.267 684.466 112.8 684.333 90.6667C684.2 53.6 684.066 51.4667 681.533 47.8667C679.4 44.9334 677.8 44 674.2 44C671.666 44 669.266 44.8 669 45.7334Z" fill="black"/>
<path d="M22.1998 65.867C21.7998 67.6003 21.6665 70.8003 21.9332 72.8003L22.3332 76.667H50.9998H79.6665V70.0003V63.3337L51.3998 62.9337L22.9998 62.667L22.1998 65.867Z" fill="black"/>
<path d="M381.933 91.0667C382.333 92.6667 404.6 113.733 419.266 126.267C425.4 131.6 426.466 132 433.8 132C440.466 132 441.666 131.6 441.533 129.6C441.533 128.4 432.066 118.8 420.6 108.4L399.666 89.3333H390.6C383.933 89.3333 381.533 89.7333 381.933 91.0667Z" fill="black"/>
</svg>
