<svg width="330" height="186" viewBox="0 0 330 186" fill="none" xmlns="http://www.w3.org/2000/svg">
<g clip-path="url(#clip0_244_8)">
<path d="M147.2 72.4933C146.501 73.1921 146.501 111.505 147.2 112.204C147.488 112.491 148.392 112.697 149.214 112.697C152.297 112.697 152.051 114.383 152.051 92.5952C152.051 77.8785 151.927 72.8633 151.557 72.4933C151.269 72.2055 150.324 72 149.379 72C148.433 72 147.488 72.2055 147.2 72.4933Z" fill="black"/>
<path d="M160.766 72.4933C160.067 73.1921 160.067 111.505 160.766 112.204C161.054 112.491 161.999 112.697 162.945 112.697C163.89 112.697 164.835 112.491 165.123 112.204C165.822 111.505 165.822 73.1921 165.123 72.4933C164.835 72.2055 163.89 72 162.945 72C161.999 72 161.054 72.2055 160.766 72.4933Z" fill="black"/>
<path d="M50.3082 75.7821C50.1848 76.0699 50.1437 84.4559 50.1848 94.4041L50.3082 112.492H52.5691H54.8301V93.993V75.4944L52.6513 75.371C51.1714 75.2888 50.4315 75.4121 50.3082 75.7821Z" fill="black"/>
<path d="M56.9266 75.9465C56.4744 77.1386 56.6799 79.3585 57.2555 79.6874C57.5843 79.8518 61.8596 79.9751 66.7514 79.8929L75.6308 79.7696L75.5075 77.6319L75.3842 75.4943L66.2992 75.371C58.2421 75.2888 57.1732 75.371 56.9266 75.9465Z" fill="black"/>
<path d="M90.9639 85.3192C84.5924 86.8812 80.3582 92.2253 80.3582 98.7204C80.3171 102.872 81.3036 105.544 83.8111 108.34C88.7854 113.725 96.7192 114.506 103.009 110.19C105.023 108.792 105.146 108.052 103.749 106.326C102.885 105.257 102.639 105.174 102.022 105.627C97.0068 109.203 90.8406 108.997 87.6342 105.092C84.0991 100.817 85.1677 93.3763 89.7307 90.7043C93.2661 88.6489 98.2814 89.7177 100.707 93.0886C101.364 93.993 101.899 95.1851 101.899 95.7195V96.665H95.2393C91.5396 96.665 88.3331 96.8294 88.0865 96.9938C87.3875 97.446 87.0999 99.1315 87.5109 100.2L87.9221 101.187L97.4591 101.105L107.037 100.981L106.996 97.9804C106.832 89.4711 99.0623 83.346 90.9639 85.3192Z" fill="black"/>
<path d="M123.48 85.3192C116.821 86.9635 112.587 92.3487 112.587 99.1315C112.587 104.722 115.588 109.409 120.603 111.752C122.7 112.697 123.604 112.903 126.564 112.903C129.688 112.903 130.387 112.779 132.771 111.587C134.21 110.847 135.854 109.82 136.389 109.244L137.375 108.216L136.265 106.737C135.649 105.956 135.032 105.298 134.826 105.298C134.662 105.298 133.922 105.75 133.223 106.284C130.14 108.545 124.673 108.792 121.672 106.819C117.849 104.27 116.533 98.8027 118.753 94.4452C120.685 90.6221 124.056 89.0189 128.413 89.8411C130.839 90.2933 134.374 94.0752 134.374 96.254C134.374 96.5006 131.949 96.665 127.427 96.665C119.657 96.665 119.452 96.7473 119.657 99.4193L119.781 100.981L129.277 101.105C136.635 101.187 138.896 101.064 139.225 100.653C139.965 99.7482 139.102 94.8152 137.663 91.8965C135.813 88.1146 132.935 86.018 128.413 85.1959C127.098 84.9492 125.906 84.7437 125.783 84.7848C125.659 84.7848 124.632 85.0315 123.48 85.3192Z" fill="black"/>
<path d="M201.093 85.1546C196.694 86.059 193.036 88.8954 191.227 92.8418C187.815 100.241 190.775 108.422 198.01 111.793C199.942 112.697 200.928 112.903 203.847 112.903C206.971 112.903 207.67 112.779 210.054 111.587C211.493 110.847 213.138 109.819 213.672 109.244L214.658 108.216L213.549 106.736C212.274 105.092 212.11 105.051 210.794 106.037C207.629 108.504 202.038 108.874 198.996 106.819C198.051 106.243 196.776 104.845 196.16 103.777C195.173 102.091 195.009 101.351 195.05 98.9258C195.05 96.8293 195.297 95.5961 195.954 94.3628C197.105 92.143 199.366 90.2109 201.175 89.8409C203.436 89.4298 206.642 89.882 207.876 90.7864C209.397 91.9374 211.164 94.2395 211.452 95.5138L211.74 96.6649H204.751C196.941 96.6649 196.735 96.7471 196.941 99.4191L197.064 100.981L206.766 101.105C217.947 101.228 217.248 101.475 216.591 97.2815C216.015 93.664 214.905 91.2386 212.644 88.8543C209.849 85.8534 205.162 84.3735 201.093 85.1546Z" fill="black"/>
<path d="M232.828 85.3192C229.704 86.1003 227.566 87.3746 225.511 89.6767C219.18 96.7062 221.4 107.477 229.992 111.711C232.088 112.738 232.869 112.903 235.911 112.903C238.871 112.862 239.817 112.697 241.954 111.711C245.12 110.272 246.846 108.586 246.271 107.477C246.024 107.066 245.49 106.408 245.037 105.997C244.256 105.298 244.174 105.298 242.078 106.613C240.31 107.682 239.405 107.97 237.145 108.093C233.692 108.299 231.924 107.764 229.951 105.832C227.895 103.859 227.155 101.927 227.155 98.8027C227.196 95.6785 228.389 93.0476 230.691 91.1977C232.828 89.43 236.61 89.1423 239.405 90.4988C241.379 91.4443 243.023 93.4998 243.516 95.514L243.804 96.6651H236.857C229.375 96.6651 228.923 96.7884 228.923 98.7616C228.923 101.269 228.553 101.187 238.994 101.187C246.723 101.187 248.614 101.064 248.778 100.611C249.189 99.5427 248.326 94.6508 247.34 92.472C245.983 89.5122 244.133 87.498 241.995 86.6347C241.009 86.2236 239.94 85.7303 239.611 85.5659C238.337 84.9492 234.842 84.7848 232.828 85.3192Z" fill="black"/>
<path d="M267.277 85.3192C266.373 85.6481 265.016 86.2647 264.317 86.758C263.166 87.5802 263.043 87.868 263.043 89.9233C263.043 92.4721 263.454 92.6776 265.18 91.0333C266.044 90.2111 266.825 89.9233 268.593 89.7589C270.689 89.5945 270.895 89.6356 272.251 90.9922C273.032 91.7732 273.855 93.1298 274.101 93.9931C274.348 94.9386 274.553 99.1727 274.553 103.9C274.553 113.108 274.43 112.697 277.431 112.697C278.294 112.697 279.198 112.451 279.486 112.081C279.856 111.629 279.938 109.121 279.815 102.132C279.651 92.8831 279.651 92.7187 278.5 90.3755C277.883 89.1012 276.773 87.5802 276.074 87.0458C273.69 85.2781 269.867 84.5382 267.277 85.3192Z" fill="black"/>
<path d="M173.263 91.2797C169.974 94.5684 167.672 97.1582 167.836 97.4459C168.001 97.6926 169.152 97.8981 170.426 97.8981H172.687L178.607 92.3074C181.854 89.2243 184.526 86.4289 184.526 86.1412C184.526 85.689 183.827 85.5657 181.731 85.5657H178.977L173.263 91.2797Z" fill="black"/>
<path d="M256.26 86.1001C256.137 86.3878 256.095 92.4307 256.137 99.5425L256.26 112.491L258.274 112.615C259.384 112.697 260.453 112.574 260.658 112.368C260.864 112.163 261.028 106.777 260.987 99.9535C260.946 88.5255 260.905 87.8677 260.124 86.7578C259.466 85.8535 258.973 85.5657 257.863 85.5657C257.082 85.5657 256.342 85.8123 256.26 86.1001Z" fill="black"/>
<path d="M56.8442 92.3076C56.7209 92.842 56.6798 93.8286 56.762 94.4453L56.8853 95.6374H65.7236H74.5618V93.582V91.5266L65.8469 91.4033L57.0909 91.321L56.8442 92.3076Z" fill="black"/>
<path d="M167.754 100.077C167.878 100.57 174.743 107.065 179.264 110.93C181.156 112.574 181.484 112.697 183.745 112.697C185.801 112.697 186.171 112.574 186.13 111.957C186.13 111.587 183.211 108.627 179.676 105.421L173.222 99.5425H170.426C168.371 99.5425 167.631 99.6658 167.754 100.077Z" fill="black"/>
</g>
<defs>
<clipPath id="clip0_244_8">
<rect width="230" height="41.0054" fill="white" transform="translate(50 72)"/>
</clipPath>
</defs>
</svg>
