<svg width="330" height="186" viewBox="0 0 330 186" fill="none" xmlns="http://www.w3.org/2000/svg">
<g clip-path="url(#clip0_244_8)">
<path d="M238.606 125.947C240.091 125.947 241.291 124.763 241.291 123.303C241.291 121.843 240.091 120.659 238.606 120.659C237.124 120.659 235.921 121.843 235.921 123.303C235.921 124.763 237.124 125.947 238.606 125.947Z" fill="#0B3B2D"/>
<path d="M97.2456 135.999C96.0512 135.999 94.9504 135.815 93.9431 135.447C92.9501 135.064 92.0795 134.526 91.3312 133.832C90.5973 133.138 90.0218 132.323 89.6044 131.388C89.2015 130.453 89 129.426 89 128.306C89 127.188 89.2015 126.16 89.6044 125.225C90.0218 124.29 90.6046 123.476 91.3528 122.781C92.1011 122.087 92.979 121.556 93.9863 121.188C94.9936 120.805 96.1016 120.614 97.3104 120.614C98.6487 120.614 99.8502 120.833 100.915 121.273C101.994 121.712 102.901 122.349 103.635 123.185L101.39 125.225C100.843 124.659 100.246 124.241 99.5984 123.972C98.9509 123.688 98.2458 123.546 97.4831 123.546C96.7492 123.546 96.08 123.66 95.4757 123.886C94.8713 124.113 94.3459 124.439 93.8999 124.864C93.4682 125.289 93.13 125.792 92.8854 126.373C92.6552 126.954 92.54 127.598 92.54 128.306C92.54 129.001 92.6552 129.638 92.8854 130.219C93.13 130.8 93.4682 131.31 93.8999 131.749C94.3459 132.174 94.864 132.5 95.4541 132.727C96.0584 132.953 96.7203 133.067 97.4399 133.067C98.1306 133.067 98.7998 132.96 99.4474 132.748C100.109 132.521 100.75 132.146 101.368 131.622L103.354 134.108C102.534 134.717 101.577 135.185 100.484 135.51C99.4042 135.836 98.3249 135.999 97.2456 135.999ZM100.16 133.662V128.073H103.354V134.108L100.16 133.662ZM105.502 135.744V119.977H108.869V135.744H105.502ZM116.657 135.914C115.419 135.914 114.318 135.659 113.354 135.149C112.404 134.639 111.649 133.945 111.088 133.067C110.541 132.174 110.267 131.161 110.267 130.028C110.267 128.88 110.541 127.868 111.088 126.989C111.649 126.096 112.404 125.403 113.354 124.906C114.318 124.397 115.419 124.142 116.657 124.142C117.88 124.142 118.974 124.397 119.938 124.906C120.902 125.403 121.657 126.089 122.204 126.968C122.751 127.846 123.024 128.866 123.024 130.028C123.024 131.161 122.751 132.174 122.204 133.067C121.657 133.945 120.902 134.639 119.938 135.149C118.974 135.659 117.88 135.914 116.657 135.914ZM116.657 133.194C117.218 133.194 117.722 133.066 118.168 132.812C118.614 132.557 118.966 132.195 119.225 131.728C119.484 131.246 119.614 130.68 119.614 130.028C119.614 129.362 119.484 128.795 119.225 128.328C118.966 127.86 118.614 127.499 118.168 127.244C117.722 126.989 117.218 126.861 116.657 126.861C116.095 126.861 115.592 126.989 115.146 127.244C114.7 127.499 114.34 127.86 114.066 128.328C113.807 128.795 113.678 129.362 113.678 130.028C113.678 130.68 113.807 131.246 114.066 131.728C114.34 132.195 114.7 132.557 115.146 132.812C115.592 133.066 116.095 133.194 116.657 133.194ZM131.276 135.914C130.254 135.914 129.377 135.702 128.643 135.277C127.909 134.852 127.347 134.207 126.959 133.343C126.571 132.464 126.376 131.359 126.376 130.028C126.376 128.682 126.577 127.577 126.98 126.713C127.397 125.849 127.973 125.204 128.708 124.779C129.441 124.354 130.297 124.142 131.276 124.142C132.37 124.142 133.348 124.382 134.211 124.864C135.089 125.346 135.78 126.026 136.284 126.904C136.802 127.782 137.061 128.824 137.061 130.028C137.061 131.218 136.802 132.252 136.284 133.131C135.78 134.009 135.089 134.696 134.211 135.192C133.348 135.673 132.37 135.914 131.276 135.914ZM124.412 135.744V119.977H127.779V126.628L127.563 130.007L127.628 133.407V135.744H124.412ZM130.693 133.194C131.254 133.194 131.751 133.066 132.183 132.812C132.629 132.557 132.982 132.195 133.24 131.728C133.514 131.246 133.651 130.68 133.651 130.028C133.651 129.362 133.514 128.795 133.24 128.328C132.982 127.86 132.629 127.499 132.183 127.244C131.751 126.989 131.254 126.861 130.693 126.861C130.132 126.861 129.628 126.989 129.182 127.244C128.736 127.499 128.384 127.86 128.124 128.328C127.865 128.795 127.736 129.362 127.736 130.028C127.736 130.68 127.865 131.246 128.124 131.728C128.384 132.195 128.736 132.557 129.182 132.812C129.628 133.066 130.132 133.194 130.693 133.194ZM145.385 135.744V133.513L145.169 133.024V129.029C145.169 128.321 144.947 127.768 144.5 127.372C144.068 126.975 143.399 126.776 142.493 126.776C141.874 126.776 141.262 126.876 140.658 127.074C140.068 127.258 139.564 127.513 139.147 127.839L137.938 125.523C138.571 125.084 139.334 124.744 140.226 124.503C141.118 124.262 142.025 124.142 142.946 124.142C144.716 124.142 146.091 124.552 147.069 125.374C148.048 126.195 148.537 127.478 148.537 129.22V135.744H145.385ZM141.845 135.914C140.938 135.914 140.161 135.766 139.514 135.468C138.867 135.156 138.37 134.739 138.024 134.214C137.679 133.69 137.507 133.102 137.507 132.451C137.507 131.77 137.672 131.175 138.003 130.665C138.348 130.155 138.888 129.759 139.622 129.476C140.356 129.178 141.313 129.029 142.493 129.029H145.579V130.963H142.859C142.068 130.963 141.521 131.09 141.219 131.346C140.931 131.6 140.788 131.919 140.788 132.302C140.788 132.727 140.953 133.067 141.284 133.322C141.629 133.563 142.097 133.683 142.687 133.683C143.248 133.683 143.752 133.556 144.198 133.3C144.644 133.032 144.968 132.642 145.169 132.132L145.687 133.662C145.443 134.398 144.996 134.958 144.35 135.341C143.702 135.723 142.867 135.914 141.845 135.914ZM150.721 135.744V119.977H154.088V135.744H150.721ZM156.587 135.744V120.869H159.479L168.395 131.579H166.991V120.869H170.445V135.744H167.574L158.638 125.034H160.041V135.744H156.587ZM178.445 135.914C177.207 135.914 176.106 135.659 175.142 135.149C174.193 134.639 173.437 133.945 172.876 133.067C172.329 132.174 172.056 131.161 172.056 130.028C172.056 128.88 172.329 127.868 172.876 126.989C173.437 126.096 174.193 125.403 175.142 124.906C176.106 124.397 177.207 124.142 178.445 124.142C179.668 124.142 180.762 124.397 181.726 124.906C182.69 125.403 183.445 126.089 183.992 126.968C184.539 127.846 184.813 128.866 184.813 130.028C184.813 131.161 184.539 132.174 183.992 133.067C183.445 133.945 182.69 134.639 181.726 135.149C180.762 135.659 179.668 135.914 178.445 135.914ZM178.445 133.194C179.006 133.194 179.511 133.066 179.956 132.812C180.401 132.557 180.754 132.195 181.014 131.728C181.273 131.246 181.403 130.68 181.403 130.028C181.403 129.362 181.273 128.795 181.014 128.328C180.754 127.86 180.401 127.499 179.956 127.244C179.511 126.989 179.006 126.861 178.445 126.861C177.884 126.861 177.379 126.989 176.934 127.244C176.489 127.499 176.128 127.86 175.855 128.328C175.596 128.795 175.466 129.362 175.466 130.028C175.466 130.68 175.596 131.246 175.855 131.728C176.128 132.195 176.489 132.557 176.934 132.812C177.379 133.066 177.884 133.194 178.445 133.194ZM201.073 124.142C201.994 124.142 202.806 124.326 203.513 124.694C204.231 125.048 204.792 125.601 205.195 126.352C205.612 127.088 205.822 128.037 205.822 129.199V135.744H202.454V129.709C202.454 128.788 202.26 128.108 201.872 127.669C201.484 127.23 200.936 127.01 200.231 127.01C199.741 127.01 199.303 127.124 198.915 127.35C198.526 127.563 198.224 127.889 198.008 128.328C197.792 128.767 197.684 129.327 197.684 130.007V135.744H194.317V129.709C194.317 128.788 194.122 128.108 193.734 127.669C193.359 127.23 192.819 127.01 192.115 127.01C191.624 127.01 191.187 127.124 190.798 127.35C190.41 127.563 190.107 127.889 189.891 128.328C189.676 128.767 189.568 129.327 189.568 130.007V135.744H186.201V124.311H189.417V127.435L188.813 126.522C189.215 125.743 189.783 125.154 190.518 124.758C191.266 124.347 192.115 124.142 193.064 124.142C194.129 124.142 195.057 124.41 195.849 124.949C196.654 125.473 197.188 126.281 197.446 127.372L196.259 127.053C196.648 126.16 197.267 125.452 198.116 124.928C198.979 124.404 199.965 124.142 201.073 124.142ZM215.1 135.744V133.513L214.884 133.024V129.029C214.884 128.321 214.661 127.768 214.215 127.372C213.783 126.975 213.114 126.776 212.207 126.776C211.588 126.776 210.977 126.876 210.373 127.074C209.783 127.258 209.278 127.513 208.862 127.839L207.653 125.523C208.285 125.084 209.048 124.744 209.941 124.503C210.832 124.262 211.739 124.142 212.66 124.142C214.431 124.142 215.804 124.552 216.783 125.374C217.761 126.195 218.251 127.478 218.251 129.22V135.744H215.1ZM211.559 135.914C210.653 135.914 209.877 135.766 209.229 135.468C208.581 135.156 208.084 134.739 207.74 134.214C207.393 133.69 207.221 133.102 207.221 132.451C207.221 131.77 207.386 131.175 207.717 130.665C208.063 130.155 208.602 129.759 209.337 129.476C210.07 129.178 211.026 129.029 212.207 129.029H215.294V130.963H212.574C211.782 130.963 211.236 131.09 210.934 131.346C210.645 131.6 210.502 131.919 210.502 132.302C210.502 132.727 210.667 133.067 210.999 133.322C211.344 133.563 211.812 133.683 212.402 133.683C212.963 133.683 213.465 133.556 213.912 133.3C214.358 133.032 214.682 132.642 214.884 132.132L215.402 133.662C215.157 134.398 214.711 134.958 214.064 135.341C213.416 135.723 212.58 135.914 211.559 135.914ZM225.505 135.914C224.411 135.914 223.427 135.673 222.548 135.192C221.671 134.696 220.972 134.009 220.454 133.131C219.951 132.252 219.698 131.218 219.698 130.028C219.698 128.824 219.951 127.782 220.454 126.904C220.972 126.026 221.671 125.346 222.548 124.864C223.427 124.382 224.411 124.142 225.505 124.142C226.484 124.142 227.34 124.354 228.074 124.779C228.807 125.204 229.377 125.849 229.779 126.713C230.183 127.577 230.384 128.682 230.384 130.028C230.384 131.359 230.19 132.464 229.8 133.343C229.412 134.207 228.851 134.852 228.117 135.277C227.398 135.702 226.527 135.914 225.505 135.914ZM226.088 133.194C226.635 133.194 227.132 133.066 227.577 132.812C228.025 132.557 228.376 132.195 228.635 131.728C228.909 131.246 229.046 130.68 229.046 130.028C229.046 129.362 228.909 128.795 228.635 128.328C228.376 127.86 228.025 127.499 227.577 127.244C227.132 126.989 226.635 126.861 226.088 126.861C225.527 126.861 225.024 126.989 224.577 127.244C224.131 127.499 223.772 127.86 223.498 128.328C223.239 128.795 223.109 129.362 223.109 130.028C223.109 130.68 223.239 131.246 223.498 131.728C223.772 132.195 224.131 132.557 224.577 132.812C225.024 133.066 225.527 133.194 226.088 133.194ZM229.131 135.744V133.407L229.196 130.007L228.981 126.628V119.977H232.348V135.744H229.131Z" fill="#0B3B2D"/>
<path fill-rule="evenodd" clip-rule="evenodd" d="M165.276 50C181.017 50 193.777 62.5906 193.777 78.1218C193.777 93.6531 181.017 106.244 165.276 106.244C149.536 106.244 136.775 93.6531 136.775 78.1218C136.775 62.5906 149.536 50 165.276 50ZM164.246 52.1043C160.995 52.5558 157.899 55.1338 155.495 59.4453C154.798 60.6959 154.169 62.0776 153.621 63.5695C156.889 62.759 160.479 62.2814 164.246 62.2075V52.1043ZM151.212 64.2449C151.894 62.134 152.727 60.1919 153.69 58.4656C154.882 56.3282 156.295 54.4826 157.888 53.065C149.226 55.5474 142.398 62.2847 139.882 70.8322C141.318 69.2603 143.189 67.8652 145.355 66.6897C147.105 65.7402 149.073 64.9173 151.212 64.2449ZM150.528 66.6215C149.706 69.846 149.222 73.3881 149.147 77.1053H138.908C139.366 73.897 141.978 70.8423 146.348 68.4711C147.615 67.7831 149.016 67.1624 150.528 66.6215ZM151.208 77.1053C151.293 73.0486 151.885 69.2401 152.864 65.8751C156.275 64.9088 160.135 64.3247 164.246 64.2407V68.6319C162.712 72.5061 159.584 75.5926 155.657 77.1053H151.208ZM149.147 79.1383H138.908C139.366 82.3466 141.978 85.4012 146.348 87.7726C147.615 88.4605 149.016 89.0811 150.528 89.6221C149.706 86.3976 149.222 82.8555 149.147 79.1383ZM152.864 90.3687C151.885 87.0036 151.293 83.195 151.208 79.1383H155.657C159.584 80.651 162.712 83.7375 164.246 87.6119V92.003C160.135 91.919 156.275 91.3347 152.864 90.3687ZM151.212 91.9989C149.073 91.3263 147.105 90.5034 145.355 89.554C143.189 88.3785 141.318 86.9832 139.882 85.4114C142.398 93.9589 149.226 100.696 157.888 103.178C156.295 101.761 154.882 99.9154 153.69 97.7779C152.727 96.0517 151.894 94.1098 151.212 91.9989ZM164.246 104.139C160.995 103.688 157.899 101.11 155.495 96.7983C154.798 95.5478 154.169 94.166 153.621 92.6742C156.889 93.4846 160.479 93.9621 164.246 94.0361V104.139ZM172.664 103.178C174.257 101.761 175.671 99.9154 176.862 97.7779C177.824 96.0517 178.658 94.1098 179.34 91.9989C181.479 91.3263 183.447 90.5034 185.197 89.554C187.363 88.3785 189.234 86.9832 190.671 85.4114C188.155 93.9589 181.327 100.696 172.664 103.178ZM176.931 92.6742C176.383 94.166 175.754 95.5478 175.057 96.7983C172.654 101.11 169.558 103.688 166.306 104.139V94.0361C170.074 93.9621 173.664 93.4846 176.931 92.6742ZM180.024 89.6221C181.536 89.0811 182.937 88.4605 184.204 87.7726C188.574 85.4012 191.187 82.3466 191.644 79.1383H181.405C181.33 82.8555 180.846 86.3976 180.024 89.6221ZM179.344 79.1383C179.259 83.195 178.667 87.0036 177.688 90.3687C174.278 91.3347 170.418 91.919 166.306 92.003V87.6151C167.839 83.7393 170.968 80.6515 174.896 79.1383H179.344ZM181.405 77.1053H191.644C191.187 73.897 188.574 70.8423 184.204 68.4711C182.937 67.7831 181.536 67.1624 180.024 66.6215C180.846 69.846 181.33 73.3881 181.405 77.1053ZM177.688 65.8751C178.667 69.2401 179.259 73.0486 179.344 77.1053H174.896C170.968 75.5921 167.839 72.5043 166.306 68.6286V64.2407C170.418 64.3247 174.278 64.9088 177.688 65.8751ZM179.34 64.2449C181.479 64.9173 183.447 65.7402 185.197 66.6897C187.363 67.8652 189.234 69.2603 190.671 70.8322C188.155 62.2847 181.327 55.5474 172.664 53.065C174.257 54.4826 175.671 56.3282 176.862 58.4656C177.824 60.1919 178.658 62.134 179.34 64.2449ZM166.306 52.1043C169.558 52.5558 172.654 55.1338 175.057 59.4453C175.754 60.6959 176.383 62.0776 176.931 63.5695C173.664 62.759 170.074 62.2814 166.306 62.2075V52.1043Z" fill="#0B3B2D"/>
</g>
<defs>
<clipPath id="clip0_244_8">
<rect width="152.292" height="86" fill="white" transform="translate(89 50)"/>
</clipPath>
</defs>
</svg>
