<svg width="330" height="186" viewBox="0 0 330 186" fill="none" xmlns="http://www.w3.org/2000/svg">
<g clip-path="url(#clip0_244_8)">
<path d="M201.418 50.3914C183.09 52.0206 160.188 57.0333 141.547 63.5186C130.801 67.2468 125.068 69.5965 116.389 73.8573C100.819 81.5331 90.9811 89.0835 87.4722 96.1014C86.4383 98.2004 86.313 98.7019 86.313 100.801C86.3443 103.589 86.9083 104.936 89.0073 107.035C90.4798 108.508 94.2394 110.45 97.1844 111.296C102.291 112.769 106.019 113.145 115.92 113.207C122.186 113.27 126.822 113.176 129.391 112.894C132.336 112.581 141.046 112.456 164.575 112.456C181.743 112.424 195.81 112.33 195.81 112.174C195.81 112.048 193.429 109.542 190.484 106.628C187.57 103.715 185.158 101.24 185.158 101.114C185.158 101.02 185.753 100.77 186.505 100.55C187.226 100.331 189.732 99.485 192.051 98.6391C220.059 88.551 239.609 75.8938 243.181 65.6177C245.28 59.5397 241.207 54.4643 232.372 52.1146C226.231 50.4854 224.759 50.3288 214.295 50.2348C208.875 50.1721 203.079 50.2661 201.418 50.3914ZM220.78 51.9579C231.589 52.7725 238.607 55.3102 241.05 59.2577C246.627 68.2807 226.67 83.9141 193.962 96.1327C191.268 97.1353 187.821 98.3572 186.317 98.8271L183.56 99.7043L174.256 90.3993L164.951 81.0944L150.226 95.8195L135.501 110.544L132.994 110.858C118.676 112.581 103.92 111.86 95.9625 109.041C80.9869 103.746 87.4409 91.308 112.223 77.8988C142.487 61.5135 191.706 49.7335 220.78 51.9579ZM173.472 91.8092C178.015 96.3521 181.712 100.143 181.712 100.237C181.712 100.362 181.179 100.582 180.553 100.77C179.895 100.926 177.388 101.647 174.976 102.336C165.295 105.156 154.204 107.693 145.119 109.135C142.424 109.573 139.793 109.981 139.26 110.075C138.477 110.2 140.733 107.819 151.635 96.9161C158.967 89.5849 165.013 83.6009 165.076 83.6009C165.17 83.6009 168.929 87.2977 173.472 91.8092ZM187.57 105.908C189.858 108.195 191.737 110.169 191.737 110.294C191.737 110.451 182.057 110.544 170.214 110.544C158.403 110.544 148.784 110.482 148.878 110.388C148.972 110.294 150.915 109.855 153.233 109.417C159.029 108.32 171.467 105.218 177.482 103.37C180.239 102.524 182.715 101.835 182.965 101.804C183.216 101.804 185.283 103.652 187.57 105.908Z" fill="black"/>
<path d="M90.3862 123.264C88.0365 124.11 86.1567 126.836 86.1567 129.311C86.1567 133.885 91.0128 137.175 95.1797 135.452C97.4041 134.512 97.7487 133.917 97.7487 131.16V128.716H95.4303C93.6132 128.716 93.0806 128.81 92.924 129.217C92.548 130.157 92.736 130.282 94.4591 130.282H96.1822V131.63C96.1822 133.666 95.4303 134.199 92.7047 134.199C90.6682 134.199 90.5116 134.136 89.4777 133.102C87.9112 131.536 87.4413 129.562 88.1618 127.651C89.5403 124.079 93.7385 123.264 96.7462 125.99L97.4354 126.617V125.677C97.4354 123.452 93.5506 122.105 90.3862 123.264Z" fill="black"/>
<path d="M117.361 123.233C115.889 123.766 114.51 125.019 113.664 126.648C112.724 128.497 112.975 131.379 114.197 133.165C115.92 135.577 119.147 136.548 121.81 135.421C126.196 133.603 127.292 128.121 123.94 124.768C122.06 122.889 119.805 122.356 117.361 123.233ZM122.123 125.176C122.593 125.489 123.314 126.429 123.721 127.244C124.755 129.311 124.473 131.128 122.844 132.883C121.747 134.042 121.496 134.167 119.805 134.293C118.238 134.387 117.8 134.293 116.891 133.666C113.821 131.567 114.009 126.68 117.204 124.894C118.551 124.173 120.932 124.298 122.123 125.176Z" fill="black"/>
<path d="M142.55 129.248V135.922L143.271 135.796C143.929 135.702 143.96 135.577 144.117 131.191L144.273 126.648L148.66 131.285C151.041 133.823 153.14 135.922 153.265 135.922C153.39 135.922 153.516 133.039 153.516 129.499V123.076H152.576H151.636V127.588V132.099L148.252 128.622C146.372 126.679 144.336 124.549 143.709 123.86L142.582 122.606L142.55 129.248Z" fill="black"/>
<path d="M172.721 123.202C171.655 123.703 170.747 125.113 170.747 126.303C170.747 127.463 171.875 128.622 173.911 129.687C176.982 131.222 177.64 132.256 176.449 133.729C175.634 134.731 173.566 134.762 171.749 133.791L170.402 133.102L170.496 133.917C170.684 135.608 174.256 136.517 176.512 135.452C178.485 134.512 179.175 131.974 177.859 130.439C177.483 129.969 176.198 129.092 175.008 128.465C172.376 127.055 171.969 126.523 172.627 125.332C173.285 124.204 175.29 123.985 176.888 124.925L177.953 125.552V124.8C177.953 123.265 174.757 122.293 172.721 123.202Z" fill="black"/>
<path d="M206.901 123.202C205.084 124.016 204.426 125.771 205.241 127.588C205.46 128.058 206.557 128.873 208.092 129.687C209.47 130.439 210.723 131.285 210.911 131.63C211.444 132.632 210.943 133.729 209.721 134.23C208.405 134.763 207.12 134.606 205.585 133.666L204.52 133.008L204.645 133.917C204.865 135.797 208.781 136.611 210.88 135.201C213.167 133.666 213.292 131.222 211.162 129.687C210.473 129.217 209.47 128.622 208.906 128.403C206.651 127.494 205.836 125.928 207.026 124.862C207.841 124.142 209.783 124.204 211.037 124.988L212.102 125.646V124.831C212.102 123.265 208.938 122.262 206.901 123.202Z" fill="black"/>
<path d="M219.778 123.421C219.652 123.766 218.963 125.363 218.211 126.93C215.047 133.697 214.326 135.389 214.452 135.608C214.89 136.298 215.768 135.577 216.551 133.948L217.428 132.162H220.248H223.099L223.882 133.885C224.321 134.825 224.822 135.64 224.979 135.64C225.919 135.765 226.2 135.734 226.169 135.452C226.138 134.794 220.467 122.763 220.185 122.763C220.091 122.763 219.872 123.045 219.778 123.421ZM221.47 128.465C222.002 129.687 222.378 130.752 222.315 130.815C222.253 130.877 221.282 130.909 220.154 130.846L218.117 130.752L219.057 128.465C219.59 127.243 220.122 126.209 220.248 126.209C220.373 126.209 220.906 127.212 221.47 128.465Z" fill="black"/>
<path d="M234.691 123.421C234.565 123.828 233.814 125.896 233.062 127.995C232.31 130.126 231.621 131.849 231.495 131.849C231.401 131.849 230.618 129.906 229.772 127.526C228.3 123.484 228.143 123.233 227.328 123.139C226.545 123.045 226.482 123.108 226.67 123.766C226.858 124.361 229.302 130.846 230.963 135.076C231.151 135.546 231.401 135.828 231.527 135.703C231.652 135.577 232.404 133.603 233.218 131.379C234.064 129.123 234.816 127.212 234.941 127.087C235.035 126.962 235.881 128.904 236.821 131.41C237.761 133.917 238.607 135.828 238.732 135.703C238.92 135.452 239.328 134.449 242.461 126.272L243.682 123.077H242.837C242.022 123.077 241.897 123.296 240.456 127.212C239.641 129.499 238.858 131.504 238.732 131.63C238.607 131.755 237.761 129.844 236.853 127.4C235.944 124.925 235.161 122.857 235.098 122.795C235.035 122.732 234.847 123.014 234.691 123.421Z" fill="black"/>
<path d="M101.821 129.248C101.821 132.695 101.915 135.577 102.009 135.671C102.103 135.765 102.448 135.796 102.793 135.702C103.325 135.546 103.388 135.232 103.388 133.039V130.564L104.265 130.658C104.954 130.721 105.644 131.347 107.21 133.259C108.557 134.919 109.466 135.765 109.936 135.796C110.312 135.828 110.656 135.734 110.719 135.64C110.813 135.514 109.936 134.324 108.839 132.977C107.743 131.629 106.834 130.47 106.834 130.408C106.834 130.376 107.335 130.032 107.931 129.656C109.873 128.465 110.061 125.771 108.338 124.11C107.492 123.296 107.21 123.233 104.61 123.139L101.821 123.014V129.248ZM107.147 125.113C107.993 125.896 107.962 127.557 107.085 128.403C106.583 128.841 105.988 129.029 104.892 129.029H103.388V126.648V124.236L104.954 124.392C105.831 124.486 106.803 124.8 107.147 125.113Z" fill="black"/>
<path d="M128.796 127.901C128.922 132.225 128.984 132.851 129.58 133.634C131.929 136.799 136.284 136.674 137.913 133.415C138.383 132.507 138.477 131.473 138.477 127.682V123.076H137.694H136.911V127.745C136.911 132.287 136.879 132.444 136.127 133.352C135.219 134.418 133.903 134.794 132.524 134.324C130.895 133.728 130.519 132.569 130.394 127.525L130.269 123.076H129.486H128.702L128.796 127.901Z" fill="black"/>
<path d="M157.588 129.311V135.577L158.779 135.796C160.565 136.141 163.792 135.483 165.201 134.449C168.742 131.974 168.616 126.617 165.014 124.11C163.886 123.327 163.447 123.233 160.659 123.139L157.588 123.014V129.311ZM163.447 124.956C165.233 125.771 166.047 127.118 166.047 129.374C166.047 132.413 164.074 134.355 160.972 134.355H159.468V129.342V124.33H160.815C161.536 124.33 162.726 124.611 163.447 124.956Z" fill="black"/>
<path d="M182.339 129.436V135.796L185.503 135.859C189.169 135.953 189.858 135.796 189.858 134.95C189.858 134.418 189.607 134.355 186.882 134.355H183.905V132.162V129.969H186.568C189.2 129.969 189.231 129.969 189.231 129.186C189.231 128.403 189.2 128.403 186.568 128.403H183.905V126.366V124.33H186.882C189.639 124.33 189.858 124.298 189.858 123.703C189.858 123.108 189.639 123.076 186.098 123.076H182.339V129.436Z" fill="black"/>
<path d="M193.68 129.405L193.774 135.765H197.534C201.2 135.765 201.294 135.734 201.388 135.044C201.482 134.355 201.419 134.355 198.317 134.355H195.153L195.247 132.225L195.341 130.126L198.004 129.969C200.416 129.812 200.667 129.75 200.667 129.186C200.667 128.622 200.416 128.559 197.91 128.465L195.153 128.371L195.247 126.429L195.341 124.486L198.411 124.392C201.2 124.33 201.45 124.267 201.45 123.703C201.45 123.108 201.231 123.076 197.534 123.076H193.618L193.68 129.405Z" fill="black"/>
</g>
<defs>
<clipPath id="clip0_244_8">
<rect width="157.902" height="86" fill="white" transform="translate(86 50)"/>
</clipPath>
</defs>
</svg>
