<svg width="672" height="366" viewBox="0 0 672 366" fill="none" xmlns="http://www.w3.org/2000/svg">
<path d="M491.2 1.66678C413.2 8.60012 315.733 29.9335 236.4 57.5335C190.666 73.4001 166.266 83.4001 129.333 101.533C63.0663 134.2 21.1997 166.333 6.26634 196.2C1.86634 205.133 1.33301 207.267 1.33301 216.2C1.46634 228.067 3.86634 233.8 12.7997 242.733C19.0663 249 35.0663 257.267 47.5997 260.867C69.333 267.133 85.1997 268.733 127.333 269C154 269.267 173.733 268.867 184.666 267.667C197.2 266.333 234.266 265.8 334.4 265.8C407.466 265.667 467.333 265.267 467.333 264.6C467.333 264.067 457.2 253.4 444.666 241C432.266 228.6 422 218.067 422 217.533C422 217.133 424.533 216.067 427.733 215.133C430.8 214.2 441.466 210.6 451.333 207C570.533 164.067 653.733 110.2 668.933 66.4668C677.866 40.6001 660.533 19.0001 622.933 9.00012C596.8 2.06678 590.533 1.40012 546 1.00012C522.933 0.73345 498.266 1.13345 491.2 1.66678ZM573.6 8.33345C619.6 11.8001 649.466 22.6001 659.866 39.4001C683.6 77.8001 598.666 144.333 459.466 196.333C448 200.6 433.333 205.8 426.933 207.8L415.2 211.533L375.6 171.933L336 132.333L273.333 195L210.666 257.667L200 259C139.066 266.333 76.2663 263.267 42.3997 251.267C-21.3337 228.733 6.13301 175.8 111.6 118.733C240.4 49.0001 449.866 -1.13322 573.6 8.33345ZM372.266 177.933C391.6 197.267 407.333 213.4 407.333 213.8C407.333 214.333 405.066 215.267 402.4 216.067C399.6 216.733 388.933 219.8 378.666 222.733C337.466 234.733 290.266 245.533 251.6 251.667C240.133 253.533 228.933 255.267 226.666 255.667C223.333 256.2 232.933 246.067 279.333 199.667C310.533 168.467 336.266 143 336.533 143C336.933 143 352.933 158.733 372.266 177.933ZM432.266 237.933C442 247.667 450 256.067 450 256.6C450 257.267 408.8 257.667 358.4 257.667C308.133 257.667 267.2 257.4 267.6 257C268 256.6 276.266 254.733 286.133 252.867C310.8 248.2 363.733 235 389.333 227.133C401.066 223.533 411.6 220.6 412.666 220.467C413.733 220.467 422.533 228.333 432.266 237.933Z" fill="black"/>
<path d="M18.6665 311.8C8.6665 315.4 0.666504 327 0.666504 337.534C0.666504 357 21.3332 371 39.0665 363.667C48.5332 359.667 49.9998 357.134 49.9998 345.4V335H40.1332C32.3998 335 30.1332 335.4 29.4665 337.134C27.8665 341.134 28.6665 341.667 35.9998 341.667H43.3332V347.4C43.3332 356.067 40.1332 358.334 28.5332 358.334C19.8665 358.334 19.1998 358.067 14.7998 353.667C8.13317 347 6.13317 338.6 9.19984 330.467C15.0665 315.267 32.9332 311.8 45.7332 323.4L48.6665 326.067V322.067C48.6665 312.6 32.1332 306.867 18.6665 311.8Z" fill="black"/>
<path d="M133.466 311.667C127.2 313.934 121.333 319.267 117.733 326.2C113.733 334.067 114.8 346.334 120 353.934C127.333 364.2 141.066 368.334 152.4 363.534C171.066 355.8 175.733 332.467 161.466 318.2C153.466 310.2 143.866 307.934 133.466 311.667ZM153.733 319.934C155.733 321.267 158.8 325.267 160.533 328.734C164.933 337.534 163.733 345.267 156.8 352.734C152.133 357.667 151.066 358.2 143.866 358.734C137.2 359.134 135.333 358.734 131.466 356.067C118.4 347.134 119.2 326.334 132.8 318.734C138.533 315.667 148.666 316.2 153.733 319.934Z" fill="black"/>
<path d="M240.667 337.267V365.667L243.733 365.134C246.533 364.734 246.667 364.2 247.333 345.534L248 326.2L266.667 345.934C276.8 356.734 285.733 365.667 286.267 365.667C286.8 365.667 287.333 353.4 287.333 338.334V311H283.333H279.333V330.2V349.4L264.933 334.6C256.933 326.334 248.267 317.267 245.6 314.334L240.8 309L240.667 337.267Z" fill="black"/>
<path d="M369.066 311.533C364.533 313.667 360.666 319.667 360.666 324.733C360.666 329.667 365.466 334.6 374.133 339.133C387.2 345.667 390 350.067 384.933 356.333C381.466 360.6 372.666 360.733 364.933 356.6L359.2 353.667L359.6 357.133C360.4 364.333 375.6 368.2 385.2 363.667C393.6 359.667 396.533 348.867 390.933 342.333C389.333 340.333 383.866 336.6 378.8 333.933C367.6 327.933 365.866 325.667 368.666 320.6C371.466 315.8 380 314.867 386.8 318.867L391.333 321.533V318.333C391.333 311.8 377.733 307.667 369.066 311.533Z" fill="black"/>
<path d="M514.533 311.534C506.8 315 504 322.467 507.467 330.2C508.4 332.2 513.067 335.667 519.6 339.134C525.467 342.334 530.8 345.934 531.6 347.4C533.867 351.667 531.733 356.334 526.533 358.467C520.933 360.734 515.467 360.067 508.933 356.067L504.4 353.267L504.933 357.134C505.867 365.134 522.533 368.6 531.467 362.6C541.2 356.067 541.733 345.667 532.667 339.134C529.733 337.134 525.467 334.6 523.067 333.667C513.467 329.8 510 323.134 515.067 318.6C518.533 315.534 526.8 315.8 532.133 319.134L536.667 321.934V318.467C536.667 311.8 523.2 307.534 514.533 311.534Z" fill="black"/>
<path d="M569.333 312.467C568.8 313.933 565.867 320.733 562.667 327.4C549.2 356.2 546.133 363.4 546.667 364.333C548.533 367.267 552.267 364.2 555.6 357.267L559.333 349.667H571.333H583.467L586.8 357C588.667 361 590.8 364.467 591.467 364.467C595.467 365 596.667 364.867 596.533 363.667C596.4 360.867 572.267 309.667 571.067 309.667C570.667 309.667 569.733 310.867 569.333 312.467ZM576.533 333.933C578.8 339.133 580.4 343.667 580.133 343.933C579.867 344.2 575.733 344.333 570.933 344.067L562.267 343.667L566.267 333.933C568.533 328.733 570.8 324.333 571.333 324.333C571.867 324.333 574.133 328.6 576.533 333.933Z" fill="black"/>
<path d="M632.8 312.467C632.266 314.2 629.066 323 625.866 331.934C622.666 341 619.733 348.334 619.2 348.334C618.8 348.334 615.466 340.067 611.866 329.934C605.6 312.734 604.933 311.667 601.466 311.267C598.133 310.867 597.866 311.134 598.666 313.934C599.466 316.467 609.866 344.067 616.933 362.067C617.733 364.067 618.8 365.267 619.333 364.734C619.866 364.2 623.066 355.8 626.533 346.334C630.133 336.734 633.333 328.6 633.866 328.067C634.266 327.534 637.866 335.8 641.866 346.467C645.866 357.134 649.466 365.267 650 364.734C650.8 363.667 652.533 359.4 665.866 324.6L671.066 311H667.466C664 311 663.466 311.934 657.333 328.6C653.866 338.334 650.533 346.867 650 347.4C649.466 347.934 645.866 339.8 642 329.4C638.133 318.867 634.8 310.067 634.533 309.8C634.266 309.534 633.466 310.734 632.8 312.467Z" fill="black"/>
<path d="M67.333 337.267C67.333 351.934 67.733 364.2 68.133 364.6C68.533 365 69.9997 365.134 71.4663 364.734C73.733 364.067 73.9997 362.734 73.9997 353.4V342.867L77.733 343.267C80.6663 343.534 83.5997 346.2 90.2663 354.334C95.9997 361.4 99.8663 365 101.866 365.134C103.466 365.267 104.933 364.867 105.2 364.467C105.6 363.934 101.866 358.867 97.1997 353.134C92.533 347.4 88.6663 342.467 88.6663 342.2C88.6663 342.067 90.7997 340.6 93.333 339C101.6 333.934 102.4 322.467 95.0663 315.4C91.4663 311.934 90.2663 311.667 79.1997 311.267L67.333 310.734V337.267ZM89.9997 319.667C93.5997 323 93.4663 330.067 89.733 333.667C87.5997 335.534 85.0663 336.334 80.3997 336.334H73.9997V326.2V315.934L80.6663 316.6C84.3997 317 88.533 318.334 89.9997 319.667Z" fill="black"/>
<path d="M182.133 331.533C182.667 349.933 182.933 352.6 185.467 355.933C195.467 369.4 214 368.867 220.933 355C222.933 351.133 223.333 346.733 223.333 330.6V311H220H216.667V330.867C216.667 350.2 216.533 350.867 213.333 354.733C209.467 359.267 203.867 360.867 198 358.867C191.067 356.333 189.467 351.4 188.933 329.933L188.4 311H185.067H181.733L182.133 331.533Z" fill="black"/>
<path d="M304.667 337.533V364.2L309.733 365.133C317.333 366.6 331.067 363.8 337.067 359.4C352.133 348.867 351.6 326.067 336.267 315.4C331.467 312.067 329.6 311.667 317.733 311.267L304.667 310.733V337.533ZM329.6 319C337.2 322.467 340.667 328.2 340.667 337.8C340.667 350.733 332.267 359 319.067 359H312.667V337.667V316.333H318.4C321.467 316.333 326.533 317.533 329.6 319Z" fill="black"/>
<path d="M410 338.067V365.133L423.467 365.4C439.067 365.8 442 365.133 442 361.533C442 359.267 440.933 359 429.333 359H416.667V349.667V340.333H428C439.2 340.333 439.333 340.333 439.333 337C439.333 333.667 439.2 333.667 428 333.667H416.667V325V316.333H429.333C441.067 316.333 442 316.2 442 313.667C442 311.133 441.067 311 426 311H410V338.067Z" fill="black"/>
<path d="M458.267 337.933L458.667 365H474.667C490.267 365 490.667 364.867 491.067 361.933C491.467 359 491.2 359 478 359H464.533L464.933 349.933L465.333 341L476.667 340.333C486.933 339.667 488 339.4 488 337C488 334.6 486.933 334.333 476.267 333.933L464.533 333.533L464.933 325.267L465.333 317L478.4 316.6C490.267 316.333 491.333 316.067 491.333 313.667C491.333 311.133 490.4 311 474.667 311H458L458.267 337.933Z" fill="black"/>
</svg>
