<svg width="340" height="380" viewBox="0 0 340 380" fill="none" xmlns="http://www.w3.org/2000/svg">
<g clip-path="url(#clip0_215_2)">
<path d="M340 0H0L30 340L170 380L310 340L340 0Z" fill="#E65100"/>
<path d="M170 30V349L282 317L307 30H170Z" fill="#FF6D00"/>
<path d="M170 200V160H256L249 275L170 301V259L211 245L214 200H170ZM259 120L262 80H170V120H259Z" fill="white"/>
<path d="M170 259V301L91 275L87 220H127L129 245L170 259ZM121 120H170V80H79L86 200H170V160H124L121 120Z" fill="#EEEEEE"/>
</g>
<defs>
<clipPath id="clip0_215_2">
<rect width="340" height="380" fill="white"/>
</clipPath>
</defs>
</svg>
