<svg width="360" height="360" viewBox="0 0 360 360" fill="none" xmlns="http://www.w3.org/2000/svg">
<g clip-path="url(#clip0_215_24)">
<path d="M0 360V0H360V360H0Z" fill="#FFD600"/>
<path d="M235.38 269.47C242.3 280.71 249.82 291.48 265.75 291.48C279.13 291.48 286.15 284.83 286.15 275.63C286.15 264.62 278.89 260.71 264.17 254.3L256.1 250.86C232.81 240.98 217.32 228.6 217.32 202.45C217.32 178.35 235.77 160.01 264.6 160.01C285.13 160.01 299.88 167.12 310.52 185.74L285.38 201.81C279.85 191.93 273.87 188.04 264.6 188.04C255.14 188.04 249.15 194.01 249.15 201.81C249.15 211.45 255.15 215.35 269 221.32L277.07 224.76C304.52 236.45 320 248.39 320 275.23C320 304.15 297.16 320 266.5 320C236.51 320 219.48 304.95 210 286.32L235.38 269.47ZM119.52 270.29C124.58 279.35 132.27 286.32 143.33 286.32C153.91 286.32 160 282.14 160 265.89V160H193.33V271.01C193.33 304.68 173.8 320 145.28 320C119.51 320 100.91 302.54 93.3301 286.32L119.52 270.29Z" fill="#000001"/>
</g>
<defs>
<clipPath id="clip0_215_24">
<rect width="360" height="360" fill="white"/>
</clipPath>
</defs>
</svg>
