<svg width="502" height="683" viewBox="0 0 502 683" fill="none" xmlns="http://www.w3.org/2000/svg">
<path d="M220.666 1.46678C181.866 5.60011 139.466 19.4668 108.266 38.1334C85.4663 51.8668 58.7996 75.7334 43.9996 95.8668C-2.53374 158.8 -11.8671 241.6 16.7996 337.2C43.5996 426.667 104.266 525.867 198.8 634.667C230.266 670.933 240.4 681.067 246.4 682.133C256.666 683.867 260.4 682.133 272.4 669.6C285.466 656 319.333 617.2 335.466 597.333C421.2 492.133 475.733 391.467 494.533 303.867C501.866 269.867 504 229.6 500 199.733C489.733 122.4 445.066 61.4668 373.6 27.3334C348 15.0668 323.866 7.60011 295.866 3.20011C280 0.80011 236.4 -0.266557 220.666 1.46678ZM280.666 44.6668C310.533 48.1334 335.733 55.6001 360.133 68.0001C440.133 108.533 474 189.067 453.866 290.667C440.133 359.867 399.2 441.867 336.133 527.2C311.733 560 254.533 628.667 251.333 628.667C249.466 628.667 216.933 591.2 194.666 563.333C106.8 453.6 57.7329 357.2 45.3329 270C42.3996 250.267 42.7996 216.933 45.8663 198.4C53.1996 156.4 72.3996 121.467 103.2 94.2668C147.066 55.7334 214.666 36.8001 280.666 44.6668Z" fill="url(#paint0_linear_197_17)"/>
<path d="M234.933 134.8C208.933 138.267 179.466 154.267 163.066 173.6C150.666 188.267 144.4 199.6 138.666 217.333C133.733 232.533 132.533 258 135.866 274.8C141.866 304.8 160.266 332 186 349.2C250.666 392.4 337.733 362.667 363.066 288.533C367.6 275.333 369.066 263.733 368.266 246.267C367.2 218.133 359.466 198.133 341.333 175.733C327.6 158.8 302.4 142.933 280.4 137.333C267.866 134.267 247.2 133.067 234.933 134.8ZM275.866 180.667C299.733 188.933 319.733 211.333 324.666 235.6C327.2 247.6 325.733 266.8 321.466 277.867C306 318.533 259.333 337.733 220.4 319.6C194.133 307.333 178.533 284.4 177.066 256C176.133 240.133 178 230.933 184.666 217.6C194.933 197.067 215.866 181.333 238.266 177.333C248.8 175.6 265.2 176.933 275.866 180.667Z" fill="url(#paint1_linear_197_17)"/>
<defs>
<linearGradient id="paint0_linear_197_17" x1="251.263" y1="682.699" x2="251.263" y2="0.612122" gradientUnits="userSpaceOnUse">
<stop stop-color="white"/>
<stop offset="1" stop-color="#D3D3D3"/>
</linearGradient>
<linearGradient id="paint1_linear_197_17" x1="251.23" y1="369.205" x2="251.23" y2="134.002" gradientUnits="userSpaceOnUse">
<stop stop-color="white"/>
<stop offset="1" stop-color="#D3D3D3"/>
</linearGradient>
</defs>
</svg>
