<svg width="122" height="150" viewBox="0 0 122 150" fill="none" xmlns="http://www.w3.org/2000/svg">
<path d="M20.16 0.468751C16.5565 1.34766 12.8358 3.92578 10.7264 7.03125C10.2284 7.76367 9.43736 9.25781 8.96861 10.4004L8.119 12.4512L8.03111 43.7109L7.94322 75H6.56627C4.57408 75 2.23033 76.2305 1.08775 77.8711L0.208845 79.1601L0.120954 100.43C0.0330633 124.365 -0.0548273 123.311 2.20103 125.244C3.51939 126.387 4.83775 126.855 6.68345 126.855H7.91392L8.03111 132.217C8.1483 137.109 8.23619 137.725 8.93931 139.541C10.4042 143.291 13.0116 146.25 16.4393 148.066C20.3358 150.088 17.5526 150 64.9842 150C106.732 150 107.846 150 110.043 149.414C111.303 149.092 113.06 148.418 113.998 147.891C116.166 146.66 118.92 143.818 120.092 141.621C122.055 137.93 121.937 141.475 121.937 87.0117V37.6465L103.129 18.8379L84.2909 9.5371e-07L53.0897 0.0292978C27.2206 0.0585947 21.5956 0.117188 20.16 0.468751ZM80.3944 21.1523C80.5116 32.3145 80.5409 32.7246 81.1854 34.3652C82.4452 37.5293 84.7303 39.8437 87.8065 40.9863C89.3592 41.5723 90.0038 41.6016 100.668 41.6016H111.918L112.123 71.25C112.211 87.5683 112.269 108.779 112.211 118.389L112.123 135.85L111.244 137.256C110.629 138.281 109.926 138.896 108.9 139.424L107.465 140.186L65.8338 140.273C36.0975 140.332 23.7928 140.244 22.6502 140.01C21.4784 139.775 20.746 139.395 19.8085 138.516C18.0506 136.904 17.6405 135.41 17.6405 130.605V126.855H56.6053C99.9061 126.855 96.6835 127.002 98.8807 124.863C100.873 122.93 100.844 123.281 100.844 101.016C100.844 86.8652 100.756 80.7422 100.492 79.7754C100.053 78.0176 97.9432 75.7617 96.3026 75.3223C95.4823 75.0879 83.5292 75 56.4002 75H17.6405V45.3223C17.6405 20.0684 17.6991 15.4102 18.0799 14.1797C18.6366 12.2754 20.3358 10.6055 22.2401 10.0781C23.3534 9.78516 29.7694 9.69727 51.9764 9.69727L80.2772 9.66797L80.3944 21.1523ZM28.6561 88.2129C33.871 89.1797 36.3319 92.1973 36.0389 97.2363C35.8924 99.8144 35.1893 101.396 33.6073 102.773C31.4686 104.648 29.0077 105.469 25.3456 105.469H22.9139V110.303V115.137H19.8377H16.7616V101.836V88.5058L18.0213 88.3594C21.6835 87.8613 26.4295 87.8027 28.6561 88.2129ZM52.1522 88.1836C59.9452 89.1797 63.9295 93.5156 63.9295 101.045C63.9295 108.486 60.4725 113.027 53.617 114.697C51.244 115.283 46.0292 115.576 42.7479 115.283L40.1991 115.078V101.807V88.5058L41.4588 88.3594C45.0917 87.8613 49.1053 87.8027 52.1522 88.1836ZM84.7303 90.6738V93.1641H79.4569H74.1835V96.2402V99.3164H79.0174H83.8514V101.807V104.297H79.0174H74.1835V109.717V115.137H71.1073H68.0311V101.66V88.1836H76.3807H84.7303V90.6738Z" fill="#D3D3D3"/>
<path d="M23.1191 92.7832C23.002 92.8711 22.9141 94.7168 22.9141 96.8848V100.781H24.9062C28.0117 100.781 29.8281 99.4922 30.1504 97.0605C30.3848 95.332 29.5645 93.8086 28.0703 93.1348C26.8984 92.6074 23.5293 92.3438 23.1191 92.7832Z" fill="#D3D3D3"/>
<path d="M46.8789 92.7539C46.3809 92.9004 46.3516 93.5742 46.3516 101.689V110.449L47.1426 110.625C48.3438 110.947 52.1816 110.215 53.5 109.453C55.082 108.516 55.8438 107.666 56.6641 105.908C57.25 104.648 57.3379 103.975 57.3379 101.221C57.3379 98.4668 57.25 97.8223 56.6934 96.8262C55.8145 95.1855 54.3496 93.8672 52.7969 93.3105C51.4492 92.8125 47.7871 92.4902 46.8789 92.7539Z" fill="#D3D3D3"/>
</svg>
