<svg width="330" height="186" viewBox="0 0 330 186" fill="none" xmlns="http://www.w3.org/2000/svg">
<g clip-path="url(#clip0_244_8)">
<path d="M65.585 74.3305C65.585 74.5667 67.1435 76.2669 69.0326 78.156L72.433 81.5564H82.2092H91.9854L91.5603 80.1396C90.9936 78.1088 89.6712 76.5502 87.5459 75.3223C85.7513 74.2833 85.0901 74.2361 75.6445 74.0944C70.1188 73.9999 65.585 74.0944 65.585 74.3305Z" fill="black"/>
<path d="M58.1703 75.9365C57.3674 76.456 56.2339 77.7783 55.7144 78.9118C54.8171 80.7537 54.7227 81.7927 54.7227 90.6716V100.448H58.5009H62.2791V93.7414V86.9878L74.2278 98.9365C80.7452 105.454 86.4126 110.838 86.696 110.838C87.6877 110.838 90.7103 107.863 91.3715 106.257C91.8438 105.123 92.0327 102.101 92.0327 95.0165V85.3348H88.2545H84.4762V92.0412V98.7948L72.5276 86.8461C66.0101 80.3287 60.39 74.9447 60.1539 74.9447C59.8705 74.9447 59.0204 75.4169 58.1703 75.9365Z" fill="black"/>
<path d="M179.971 81.2259C179.121 81.462 177.799 82.4066 177.043 83.3039C175.862 84.6263 175.626 85.3347 175.626 87.2238C175.626 90.6242 177.279 92.3244 182.474 94.2608C186.772 95.9138 188.094 97.0945 187.575 98.9364C187.291 100.164 185.213 101.392 183.419 101.392C181.766 101.392 179.688 100.259 178.602 98.7474C177.704 97.5195 177.657 97.5195 176.193 98.2752C175.343 98.7002 174.682 99.3614 174.682 99.692C174.682 100.825 178.743 104.131 180.868 104.698C184.552 105.69 189.181 104.273 190.786 101.676C191.306 100.778 191.684 99.3142 191.684 97.9918C191.684 95.1109 190.267 93.4107 186.394 91.7577C180.538 89.2546 180.113 89.0185 179.971 87.3655C179.782 85.5709 181.199 84.3902 183.466 84.3902C185.072 84.3902 187.433 85.9487 187.433 87.0349C187.433 87.8378 187.764 87.8378 189.747 87.1766C191.684 86.5154 191.636 85.3347 189.558 83.2567C187.15 80.8008 183.56 80.0452 179.971 81.2259Z" fill="black"/>
<path d="M106.201 92.844V104.698H108.326H110.452L110.546 96.3389L110.688 87.9323L116.591 96.2917L122.495 104.651L124.762 104.698H126.981V92.8913V81.0843H124.856H122.731L122.636 89.2075L122.495 97.3779L116.827 89.3492L111.113 81.3204L108.657 81.1787L106.201 81.0371V92.844Z" fill="black"/>
<path d="M130.854 89.9631C130.996 98.7948 130.996 98.8892 132.318 100.826C136.663 107.437 147.998 105.784 150.076 98.228C150.359 97.2362 150.595 92.9857 150.595 88.7352V81.0843H148.47H146.345V88.6408C146.345 99.0309 145.448 100.92 140.536 100.92C138.552 100.92 137.986 100.684 136.616 99.3143L135.01 97.7085V89.3964V81.0843H132.838H130.712L130.854 89.9631Z" fill="black"/>
<path d="M153.901 92.8913V104.698H156.027H158.152V100.967V97.2362L159.994 97.0473C161.033 96.9529 162.072 96.9529 162.355 97.0473C162.591 97.1418 164.055 98.8892 165.519 100.967L168.211 104.698H170.809H173.359L172.509 103.376C172.037 102.667 170.762 100.873 169.628 99.3143C168.495 97.803 167.597 96.4334 167.597 96.2444C167.597 96.1028 168.259 95.5833 169.062 95.1582C172.226 93.3163 173.17 87.7906 170.903 84.1541C169.298 81.5566 167.597 81.0843 160.324 81.0843H153.901V92.8913ZM166.984 85.996C168.448 87.6962 168.4 90.0576 166.936 91.805C165.897 92.9857 165.472 93.1274 161.977 93.2691L158.152 93.458V89.2547C158.152 86.9405 158.294 84.8625 158.53 84.6736C158.719 84.4375 160.419 84.3902 162.355 84.5319C165.472 84.7208 165.992 84.8625 166.984 85.996Z" fill="black"/>
<path d="M192.628 82.7371V84.3429L196.076 84.4846L199.476 84.6263L199.618 94.6858L199.713 104.745L201.743 104.604L203.727 104.462L203.869 94.4024L203.963 84.3901H207.269H210.575V82.7371V81.0842H201.602H192.628V82.7371Z" fill="black"/>
<path d="M211.52 81.2732C211.52 81.4149 213.55 84.6264 216.006 88.4046L220.493 95.2999V99.9754V104.698H222.618H224.743V100.07C224.743 96.0083 224.885 95.2999 225.877 93.8358C226.491 92.9385 228.616 89.6798 230.6 86.6099L234.189 81.0843H231.639H229.136L226.113 86.0432C224.46 88.7352 222.901 90.9077 222.713 90.8605C222.476 90.8132 220.965 88.6407 219.359 86.0432L216.384 81.3204L213.928 81.1787C212.606 81.0843 211.52 81.1315 211.52 81.2732Z" fill="black"/>
<path d="M235.133 92.8913V104.698H242.926H250.719V102.809V100.92H245.051H239.384V91.0021V81.0843H237.259H235.133V92.8913Z" fill="black"/>
<path d="M253.08 92.8913V104.698H261.581H270.082V102.809V100.92H263.706H257.331V97.6141V94.3081H262.998H268.665V92.419V90.5299H262.998H257.283L257.425 87.5545L257.567 84.6264L263.848 84.4847L270.082 84.343V82.7373V81.0843H261.581H253.08V92.8913Z" fill="black"/>
<path d="M55.2423 105.737C55.7146 107.437 57.6509 109.657 59.54 110.649C60.5318 111.168 63.1766 111.31 71.1109 111.31H81.3593L77.8645 107.768L74.3696 104.226H64.5462H54.77L55.2423 105.737Z" fill="black"/>
</g>
<defs>
<clipPath id="clip0_244_8">
<rect width="230" height="37.3101" fill="white" transform="translate(50 74)"/>
</clipPath>
</defs>
</svg>
