<?xml version="1.0" standalone="no"?>
<!DOCTYPE svg PUBLIC "-//W3C//DTD SVG 20010904//EN"
 "http://www.w3.org/TR/2001/REC-SVG-20010904/DTD/svg10.dtd">
<svg version="1.0" xmlns="http://www.w3.org/2000/svg"
 width="487.000000pt" height="79.000000pt" viewBox="0 0 487.000000 79.000000"
 preserveAspectRatio="xMidYMid meet">

<g transform="translate(0.000000,79.000000) scale(0.100000,-0.100000)"
fill="#000000" stroke="none">
<path d="M330 783 c0 -5 33 -41 73 -81 l72 -72 207 0 207 0 -9 30 c-12 43 -40
76 -85 102 -38 22 -52 23 -252 26 -117 2 -213 0 -213 -5z"/>
<path d="M173 749 c-17 -11 -41 -39 -52 -63 -19 -39 -21 -61 -21 -249 l0 -207
80 0 80 0 0 142 0 143 253 -253 c138 -138 258 -252 264 -252 21 0 85 63 99 97
10 24 14 88 14 238 l0 205 -80 0 -80 0 0 -142 0 -143 -253 253 c-138 138 -257
252 -262 252 -6 0 -24 -10 -42 -21z"/>
<path d="M2752 637 c-18 -5 -46 -25 -62 -44 -25 -28 -30 -43 -30 -83 0 -72 35
-108 145 -149 91 -35 119 -60 108 -99 -6 -26 -50 -52 -88 -52 -35 0 -79 24
-102 56 -19 26 -20 26 -51 10 -18 -9 -32 -23 -32 -30 0 -24 86 -94 131 -106
78 -21 176 9 210 64 11 19 19 50 19 78 0 61 -30 97 -112 132 -124 53 -133 58
-136 93 -4 38 26 63 74 63 34 0 84 -33 84 -56 0 -17 7 -17 49 -3 41 14 40 39
-4 83 -51 52 -127 68 -203 43z"/>
<path d="M1190 391 l0 -251 45 0 45 0 2 177 3 178 125 -177 125 -177 48 -1 47
0 0 250 0 250 -45 0 -45 0 -2 -172 -3 -173 -120 170 -121 170 -52 3 -52 3 0
-250z"/>
<path d="M1712 452 c3 -187 3 -189 31 -230 92 -140 332 -105 376 55 6 21 11
111 11 201 l0 162 -45 0 -45 0 0 -160 c0 -220 -19 -260 -123 -260 -42 0 -54 5
-83 34 l-34 34 0 176 0 176 -46 0 -45 0 3 -188z"/>
<path d="M2200 390 l0 -250 45 0 45 0 0 79 0 79 39 4 c22 2 44 2 50 0 5 -2 36
-39 67 -83 l57 -79 55 0 54 0 -18 28 c-10 15 -37 53 -61 86 -24 32 -43 61 -43
65 0 3 14 14 31 23 67 39 87 156 39 233 -34 55 -70 65 -224 65 l-136 0 0 -250z
m277 146 c31 -36 30 -86 -1 -123 -22 -25 -31 -28 -105 -31 l-81 -4 0 89 c0 49
3 93 8 97 4 5 40 6 81 3 66 -4 77 -7 98 -31z"/>
<path d="M3020 605 l0 -34 73 -3 72 -3 3 -213 2 -213 43 3 42 3 3 213 2 212
70 0 70 0 0 35 0 35 -190 0 -190 0 0 -35z"/>
<path d="M3420 636 c0 -3 43 -71 95 -151 l95 -146 0 -99 0 -100 45 0 45 0 0
98 c0 86 3 101 24 132 13 19 58 88 100 153 l76 117 -54 0 -53 0 -64 -105 c-35
-57 -68 -103 -72 -102 -5 1 -37 47 -71 102 l-63 100 -52 3 c-28 2 -51 1 -51
-2z"/>
<path d="M3920 390 l0 -250 165 0 165 0 0 40 0 40 -120 0 -120 0 0 210 0 210
-45 0 -45 0 0 -250z"/>
<path d="M4300 390 l0 -250 180 0 180 0 0 40 0 40 -135 0 -135 0 0 70 0 70
120 0 120 0 0 40 0 40 -120 0 -121 0 3 63 3 62 133 3 132 3 0 34 0 35 -180 0
-180 0 0 -250z"/>
<path d="M111 118 c10 -36 51 -83 91 -104 21 -11 77 -14 245 -14 l217 0 -74
75 -74 75 -208 0 -207 0 10 -32z"/>
</g>
</svg>
